{
.appVersion = "1056";
DisplayStrings = (
","
);
date = "2018-10-03 14:49:26 +0000";
familyName = "New Font";
fontMaster = (
{
ascender = 800;
capHeight = 700;
descender = -200;
guideLines = (
{
locked = 1;
position = "{0, 465}";
},
{
locked = 1;
position = "{0, 250}";
},
{
locked = 1;
position = "{0, 35}";
},
{
locked = 1;
position = "{0, 665}";
},
{
angle = 90;
locked = 1;
position = "{35, 700}";
},
{
locked = 1;
position = "{0, -165}";
}
);
id = "E2083702-67E7-471D-AE09-DB685EF5235E";
visible = 1;
xHeight = 500;
}
);
glyphs = (
{
color = 3;
glyphname = A;
lastChange = "2018-11-21 16:02:21 +0000";
layers = (
{
layerId = "E2083702-67E7-471D-AE09-DB685EF5235E";
paths = (
{
closed = 1;
nodes = (
"35.389 0 OFFCURVE",
"48.457 9.931 OFFCURVE",
"53.147 23.734 CURVE SMOOTH",
"122.974 215 LINE",
"377.026 215 LINE",
"446.853 23.733 LINE SMOOTH",
"451.543 9.931 OFFCURVE",
"464.612 0 OFFCURVE",
"480 0 CURVE SMOOTH",
"499.33 0 OFFCURVE",
"515 15.67 OFFCURVE",
"515 35 CURVE SMOOTH",
"515 39.488 OFFCURVE",
"514.155 43.779 OFFCURVE",
"512.615 47.723 CURVE SMOOTH",
"293.097 649.013 LINE SMOOTH",
"286.132 668.09 OFFCURVE",
"273.39 677.003 OFFCURVE",
"253.081 677.003 CURVE SMOOTH",
"246.919 677.003 LINE SMOOTH",
"226.61 677.003 OFFCURVE",
"213.868 668.09 OFFCURVE",
"206.903 649.013 CURVE SMOOTH",
"-12.615 47.723 LINE SMOOTH",
"-14.155 43.779 OFFCURVE",
"-15 39.488 OFFCURVE",
"-15 35 CURVE SMOOTH",
"-15 15.67 OFFCURVE",
"0.67 0 OFFCURVE",
"20 0 CURVE SMOOTH"
);
},
{
closed = 1;
nodes = (
"250 562.94 LINE",
"351.47 285 LINE",
"148.53 285 LINE"
);
}
);
width = 560;
},
{
associatedMasterId = "E2083702-67E7-471D-AE09-DB685EF5235E";
layerId = "A8185D96-F11A-4DCF-B901-57D1B74323C9";
name = "Nov 13 18, 15:08";
paths = (
{
closed = 0;
nodes = (
"233 700 LINE",
"460 700 LINE",
"460 0 LINE"
);
},
{
closed = 0;
nodes = (
"5 6 LINE",
"460 700 LINE"
);
},
{
closed = 0;
nodes = (
"210 320 LINE",
"460 320 LINE"
);
}
);
width = 600;
},
{
associatedMasterId = "E2083702-67E7-471D-AE09-DB685EF5235E";
layerId = "B7204A27-DC2F-4D0A-9BEA-FF53830508FA";
name = "Nov 13 18, 15:09";
paths = (
{
closed = 0;
nodes = (
"40 35 LINE",
"250 665 LINE",
"460 35 LINE"
);
},
{
closed = 0;
nodes = (
"113 250 LINE",
"387 250 LINE"
);
}
);
width = 600;
},
{
associatedMasterId = "E2083702-67E7-471D-AE09-DB685EF5235E";
layerId = "B8B0CF55-516C-47DA-B477-00E4843E72D1";
name = "Nov 21 18, 17:01";
paths = (
{
closed = 0;
nodes = (
"20 35 LINE",
"250 665 LINE",
"480 35 LINE"
);
},
{
closed = 0;
nodes = (
"103 250 LINE",
"397 250 LINE"
);
}
);
width = 600;
}
);
unicode = 0041;
},
{
color = 6;
glyphname = B;
lastChange = "2018-11-20 10:46:38 +0000";
layers = (
{
layerId = "E2083702-67E7-471D-AE09-DB685EF5235E";
paths = (
{
closed = 1;
nodes = (
"180 -45 LINE SMOOTH",
"433.711 -45 OFFCURVE",
"545 19.981 OFFCURVE",
"545 179 CURVE SMOOTH",
"545 269.235 OFFCURVE",
"509.998 327.257 OFFCURVE",
"431.216 360.194 CURVE",
"487.139 397.393 OFFCURVE",
"515 453.694 OFFCURVE",
"515 530 CURVE SMOOTH",
"515 680.417 OFFCURVE",
"409.422 745 OFFCURVE",
"180 745 CURVE SMOOTH",
"32.534 745 LINE SMOOTH",
"9.411 745 OFFCURVE",
"-6.509 738.491 OFFCURVE",
"-22.5 722.5 CURVE SMOOTH",
"-38.491 706.509 OFFCURVE",
"-45 690.589 OFFCURVE",
"-45 667.466 CURVE SMOOTH",
"-45 32.534 LINE SMOOTH",
"-45 9.411 OFFCURVE",
"-38.491 -6.509 OFFCURVE",
"-22.5 -22.5 CURVE SMOOTH",
"-6.509 -38.491 OFFCURVE",
"9.411 -45 OFFCURVE",
"32.534 -45 CURVE SMOOTH"
);
},
{
closed = 1;
nodes = (
"45 305 LINE",
"184 305.008 LINE SMOOTH",
"394.303 305 OFFCURVE",
"455 273.557 OFFCURVE",
"455 179 CURVE SMOOTH",
"455 81.387 OFFCURVE",
"388.404 45 OFFCURVE",
"180 45 CURVE SMOOTH",
"45 45 LINE"
);
},
{
closed = 1;
nodes = (
"45 655 LINE",
"180 655 LINE SMOOTH",
"363.283 655 OFFCURVE",
"425 620.513 OFFCURVE",
"425 530 CURVE SMOOTH",
"425 435.633 OFFCURVE",
"356.845 395 OFFCURVE",
"180 395 CURVE SMOOTH",
"45 395 LINE"
);
}
);
width = 600;
},
{
associatedMasterId = "E2083702-67E7-471D-AE09-DB685EF5235E";
layerId = "45508ED9-614E-4FE5-B21F-AB96C8B036E2";
name = "Nov 13 18, 21:49";
paths = (
{
closed = 0;
nodes = (
"0 350 LINE",
"180 350 LINE SMOOTH",
"370 350 OFFCURVE",
"470 400 OFFCURVE",
"470 530 CURVE SMOOTH",
"470 660 OFFCURVE",
"370 700 OFFCURVE",
"180 700 CURVE",
"0 700 LINE",
"0 0 LINE",
"180 0 LINE",
"400 0 OFFCURVE",
"500 44 OFFCURVE",
"500 179 CURVE SMOOTH",
"500 314 OFFCURVE",
"400 350 OFFCURVE",
"184 350 CURVE SMOOTH"
);
}
);
width = 600;
}
);
unicode = 0042;
},
{
color = 3;
glyphname = C;
lastChange = "2018-11-21 14:02:23 +0000";
layers = (
{
layerId = "E2083702-67E7-471D-AE09-DB685EF5235E";
paths = (
{
closed = 1;
nodes = (
"511.183 0 OFFCURVE",
"649.151 61.409 OFFCURVE",
"717.11 145.863 CURVE SMOOTH",
"722.042 151.895 OFFCURVE",
"725 159.602 OFFCURVE",
"725 168 CURVE SMOOTH",
"725 187.33 OFFCURVE",
"709.33 203 OFFCURVE",
"690 203 CURVE SMOOTH",
"678.909 203 OFFCURVE",
"669.024 197.841 OFFCURVE",
"662.611 189.792 CURVE SMOOTH",
"607.707 121.512 OFFCURVE",
"490.838 70 OFFCURVE",
"390 70 CURVE SMOOTH",
"217.114 70 OFFCURVE",
"85 191.686 OFFCURVE",
"85 350 CURVE SMOOTH",
"85 508.314 OFFCURVE",
"217.114 630 OFFCURVE",
"390 630 CURVE SMOOTH",
"498.266 630 OFFCURVE",
"588.215 599.854 OFFCURVE",
"644.632 546.349 CURVE",
"460.483 419.057 LINE SMOOTH",
"451.144 412.772 OFFCURVE",
"445 402.104 OFFCURVE",
"445 390 CURVE SMOOTH",
"445 370.67 OFFCURVE",
"460.67 355 OFFCURVE",
"480 355 CURVE SMOOTH",
"487.547 355 OFFCURVE",
"494.536 357.389 OFFCURVE",
"500.253 361.451 CURVE SMOOTH",
"695.957 496.731 LINE SMOOTH",
"710.821 507.006 OFFCURVE",
"718.084 518.428 OFFCURVE",
"720.975 536.073 CURVE SMOOTH",
"723.858 553.678 OFFCURVE",
"720.954 566.928 OFFCURVE",
"708.847 580.643 CURVE SMOOTH",
"639.996 656.927 OFFCURVE",
"525.091 700 OFFCURVE",
"390 700 CURVE SMOOTH",
"179.13 700 OFFCURVE",
"15 547.767 OFFCURVE",
"15 350 CURVE SMOOTH",
"15 152.233 OFFCURVE",
"179.13 0 OFFCURVE",
"390 0 CURVE SMOOTH"
);
}
);
width = 740;
},
{
associatedMasterId = "E2083702-67E7-471D-AE09-DB685EF5235E";
layerId = "935A29D4-80F0-448A-9611-E0ADBFF24E71";
name = path;
paths = (
{
closed = 0;
nodes = (
"825 159 LINE",
"748 59 OFFCURVE",
"613 0 OFFCURVE",
"458 0 CURVE SMOOTH",
"221 0 OFFCURVE",
"20 157 OFFCURVE",
"20 350 CURVE SMOOTH",
"20 543 OFFCURVE",
"221 700 OFFCURVE",
"458 700 CURVE SMOOTH",
"591 700 OFFCURVE",
"710 651 OFFCURVE",
"789 574 CURVE",
"577 421 LINE"
);
}
);
width = 845;
},
{
associatedMasterId = "E2083702-67E7-471D-AE09-DB685EF5235E";
layerId = "A321D4EC-67AE-4E1B-8BA9-B540B13C32C0";
name = "Nov 21 18, 15:02";
paths = (
{
closed = 0;
nodes = (
"690 168 LINE",
"633 97 OFFCURVE",
"509 35 OFFCURVE",
"390 35 CURVE SMOOTH",
"200 35 OFFCURVE",
"50 170 OFFCURVE",
"50 350 CURVE SMOOTH",
"50 530 OFFCURVE",
"200 665 OFFCURVE",
"390 665 CURVE SMOOTH",
"540 665 OFFCURVE",
"644 611 OFFCURVE",
"697 540 CURVE",
"480 390 LINE"
);
}
);
visible = 1;
width = 845;
}
);
unicode = 0043;
},
{
color = 3;
glyphname = D;
lastChange = "2018-11-21 16:05:18 +0000";
layers = (
{
layerId = "E2083702-67E7-471D-AE09-DB685EF5235E";
paths = (
{
closed = 1;
nodes = (
"155 0 LINE SMOOTH",
"419 0 OFFCURVE",
"556 118.487 OFFCURVE",
"556 350 CURVE SMOOTH",
"556 581.513 OFFCURVE",
"418.749 700 OFFCURVE",
"155 700 CURVE SMOOTH",
"35 700 LINE",
"35 700 LINE SMOOTH",
"16 700 OFFCURVE",
"0 684 OFFCURVE",
"0 665 CURVE SMOOTH",
"0 35 LINE",
"0 35 LINE SMOOTH",
"0 16 OFFCURVE",
"16 0 OFFCURVE",
"35 0 CURVE SMOOTH",
"35 0 LINE"
);
},
{
closed = 1;
nodes = (
"70 630 LINE",
"155 630 LINE SMOOTH",
"381.415 630 OFFCURVE",
"486 541.071 OFFCURVE",
"486 350 CURVE SMOOTH",
"486 158.929 OFFCURVE",
"381.415 70 OFFCURVE",
"155 70 CURVE SMOOTH",
"70 70 LINE"
);
}
);
width = 600;
},
{
associatedMasterId = "E2083702-67E7-471D-AE09-DB685EF5235E";
layerId = "6D4DD2B5-B371-40D3-9D81-F05B9E1D2137";
name = "Nov 13 18, 21:44";
paths = (
{
closed = 1;
nodes = (
"35 665 LINE",
"155 665 LINE",
"363 665 OFFCURVE",
"601 611 OFFCURVE",
"601 350 CURVE SMOOTH",
"601 89 OFFCURVE",
"363 35 OFFCURVE",
"155 35 CURVE SMOOTH",
"35 35 LINE"
);
}
);
width = 600;
},
{
associatedMasterId = "E2083702-67E7-471D-AE09-DB685EF5235E";
layerId = "853A3F3E-5114-4F75-A08F-27812451C703";
name = "Nov 21 18, 17:04";
paths = (
{
closed = 1;
nodes = (
"35 665 LINE",
"155 665 LINE",
"363 665 OFFCURVE",
"521 591 OFFCURVE",
"521 350 CURVE SMOOTH",
"521 109 OFFCURVE",
"363 35 OFFCURVE",
"155 35 CURVE SMOOTH",
"35 35 LINE"
);
}
);
width = 600;
}
);
unicode = 0044;
},
{
color = 3;
glyphname = E;
lastChange = "2018-11-21 16:07:03 +0000";
layers = (
{
layerId = "E2083702-67E7-471D-AE09-DB685EF5235E";
paths = (
{
closed = 1;
nodes = (
"31 700 OFFCURVE",
"15 684 OFFCURVE",
"15 665 CURVE SMOOTH",
"15 35 LINE SMOOTH",
"15 16 OFFCURVE",
"31 0 OFFCURVE",
"50 0 CURVE SMOOTH",
"400 0 LINE SMOOTH",
"419 0 OFFCURVE",
"435 16 OFFCURVE",
"435 35 CURVE SMOOTH",
"435 54 OFFCURVE",
"419 70 OFFCURVE",
"400 70 CURVE SMOOTH",
"85 70 LINE",
"85 315 LINE",
"320 315 LINE SMOOTH",
"339 315 OFFCURVE",
"355 331 OFFCURVE",
"355 350 CURVE SMOOTH",
"355 369 OFFCURVE",
"339 385 OFFCURVE",
"320 385 CURVE SMOOTH",
"85 385 LINE",
"85 630 LINE",
"400 630 LINE SMOOTH",
"419 630 OFFCURVE",
"435 646 OFFCURVE",
"435 665 CURVE SMOOTH",
"435 684 OFFCURVE",
"419 700 OFFCURVE",
"400 700 CURVE SMOOTH",
"50 700 LINE SMOOTH"
);
}
);
width = 450;
},
{
associatedMasterId = "E2083702-67E7-471D-AE09-DB685EF5235E";
layerId = "9378D0BF-9129-47E4-84F2-819C0D971155";
name = "Nov 13 18, 14:19";
paths = (
{
closed = 0;
nodes = (
"430 665 LINE",
"80 665 LINE",
"80 35 LINE",
"430 35 LINE"
);
},
{
closed = 0;
nodes = (
"350 350 LINE",
"80 350 LINE"
);
}
);
width = 600;
}
);
unicode = 0045;
},
{
color = 3;
glyphname = F;
lastChange = "2018-11-21 16:09:12 +0000";
layers = (
{
layerId = "E2083702-67E7-471D-AE09-DB685EF5235E";
paths = (
{
closed = 1;
nodes = (
"15 35 LINE SMOOTH",
"15 16 OFFCURVE",
"31 0 OFFCURVE",
"50 0 CURVE SMOOTH",
"69 0 OFFCURVE",
"85 16 OFFCURVE",
"85 35 CURVE SMOOTH",
"85 315 LINE",
"320 315 LINE SMOOTH",
"339 315 OFFCURVE",
"355 331 OFFCURVE",
"355 350 CURVE SMOOTH",
"355 369 OFFCURVE",
"339 385 OFFCURVE",
"320 385 CURVE SMOOTH",
"85 385 LINE",
"85 630 LINE",
"400 630 LINE SMOOTH",
"419 630 OFFCURVE",
"435 646 OFFCURVE",
"435 665 CURVE SMOOTH",
"435 684 OFFCURVE",
"419 700 OFFCURVE",
"400 700 CURVE SMOOTH",
"50 700 LINE SMOOTH",
"31 700 OFFCURVE",
"15 684 OFFCURVE",
"15 665 CURVE SMOOTH"
);
}
);
width = 450;
},
{
associatedMasterId = "E2083702-67E7-471D-AE09-DB685EF5235E";
layerId = "9AC23CB4-70E3-461D-B8B2-DECB75ABED2C";
name = "Nov 13 18, 14:20";
paths = (
{
closed = 0;
nodes = (
"80 0 LINE",
"80 700 LINE",
"500 700 LINE",
"288 547 LINE"
);
},
{
closed = 0;
nodes = (
"450 350 LINE",
"80 350 LINE"
);
}
);
width = 600;
},
{
associatedMasterId = "E2083702-67E7-471D-AE09-DB685EF5235E";
layerId = "EB3E7163-1D7D-45B8-829B-5319FD4778D2";
name = "Nov 13 18, 15:06";
paths = (
{
closed = 0;
nodes = (
"450 700 LINE",
"80 700 LINE",
"80 0 LINE"
);
},
{
closed = 0;
nodes = (
"400 350 LINE",
"80 350 LINE"
);
}
);
width = 600;
},
{
associatedMasterId = "E2083702-67E7-471D-AE09-DB685EF5235E";
layerId = "F08D4385-D5C8-4B7E-A184-89616EA36CC8";
name = "Nov 21 18, 17:07";
paths = (
{
closed = 0;
nodes = (
"430 665 LINE",
"80 665 LINE",
"80 35 LINE"
);
},
{
closed = 0;
nodes = (
"350 350 LINE",
"80 350 LINE"
);
}
);
width = 600;
}
);
unicode = 0046;
},
{
color = 3;
glyphname = G;
lastChange = "2018-11-21 16:49:37 +0000";
layers = (
{
layerId = "E2083702-67E7-471D-AE09-DB685EF5235E";
paths = (
{
closed = 1;
nodes = (
"643 35 LINE SMOOTH",
"643 16 OFFCURVE",
"627 0 OFFCURVE",
"608 0 CURVE SMOOTH",
"589 0 OFFCURVE",
"573 16 OFFCURVE",
"573 35 CURVE SMOOTH",
"573 107 LINE",
"516 37 OFFCURVE",
"436 0 OFFCURVE",
"338 0 CURVE SMOOTH",
"160 0 OFFCURVE",
"15 157 OFFCURVE",
"15 350 CURVE SMOOTH",
"15 543 OFFCURVE",
"160 700 OFFCURVE",
"338 700 CURVE SMOOTH",
"439 700 OFFCURVE",
"534 647 OFFCURVE",
"594 559 CURVE SMOOTH",
"598 553 OFFCURVE",
"600 546 OFFCURVE",
"600 539 CURVE SMOOTH",
"600 520 OFFCURVE",
"584 504 OFFCURVE",
"565 504 CURVE SMOOTH",
"553 504 OFFCURVE",
"542 510 OFFCURVE",
"536 520 CURVE SMOOTH",
"488 590 OFFCURVE",
"416 630 OFFCURVE",
"338 630 CURVE SMOOTH",
"199 630 OFFCURVE",
"85 505 OFFCURVE",
"85 350 CURVE SMOOTH",
"85 195 OFFCURVE",
"199 70 OFFCURVE",
"338 70 CURVE SMOOTH",
"440 70 OFFCURVE",
"515 120 OFFCURVE",
"558 215 CURVE",
"412 215 LINE SMOOTH",
"393 215 OFFCURVE",
"377 231 OFFCURVE",
"377 250 CURVE SMOOTH",
"377 269 OFFCURVE",
"393 285 OFFCURVE",
"412 285 CURVE SMOOTH",
"608 285 LINE SMOOTH",
"627 285 OFFCURVE",
"643 269 OFFCURVE",
"643 250 CURVE SMOOTH"
);
}
);
width = 658;
},
{
associatedMasterId = "E2083702-67E7-471D-AE09-DB685EF5235E";
layerId = "D866EB9B-F772-4146-AE64-071B688D13A8";
name = "Nov 13 18, 15:05";
paths = (
{
closed = 0;
nodes = (
"628 519 LINE",
"553 627 OFFCURVE",
"410 700 OFFCURVE",
"248 700 CURVE SMOOTH",
"7 700 OFFCURVE",
"-189 543 OFFCURVE",
"-189 350 CURVE SMOOTH",
"-189 157 OFFCURVE",
"7 0 OFFCURVE",
"248 0 CURVE SMOOTH",
"454 0 OFFCURVE",
"629 118 OFFCURVE",
"672 275 CURVE"
);
},
{
closed = 0;
nodes = (
"365 275 LINE",
"672 275 LINE",
"672 0 LINE"
);
}
);
width = 600;
},
{
associatedMasterId = "E2083702-67E7-471D-AE09-DB685EF5235E";
layerId = "C6E4E874-C93A-4D9D-A8FC-FC1141E81A02";
name = "Nov 21 18, 17:47";
paths = (
{
closed = 0;
nodes = (
"475 539 LINE",
"423 616 OFFCURVE",
"340 665 OFFCURVE",
"248 665 CURVE SMOOTH",
"89 665 OFFCURVE",
"-40 524 OFFCURVE",
"-40 350 CURVE SMOOTH",
"-40 176 OFFCURVE",
"89 35 OFFCURVE",
"248 35 CURVE SMOOTH",
"393 35 OFFCURVE",
"480 125 OFFCURVE",
"518 250 CURVE SMOOTH"
);
},
{
closed = 0;
nodes = (
"322 250 LINE",
"518 250 LINE",
"518 35 LINE"
);
}
);
width = 600;
}
);
unicode = 0047;
},
{
color = 3;
glyphname = H;
lastChange = "2018-11-21 16:10:19 +0000";
layers = (
{
layerId = "E2083702-67E7-471D-AE09-DB685EF5235E";
paths = (
{
closed = 1;
nodes = (
"69 0 OFFCURVE",
"85 16 OFFCURVE",
"85 35 CURVE SMOOTH",
"85 315 LINE",
"365 315 LINE",
"365 35 LINE SMOOTH",
"365 16 OFFCURVE",
"381 0 OFFCURVE",
"400 0 CURVE SMOOTH",
"419 0 OFFCURVE",
"435 16 OFFCURVE",
"435 35 CURVE SMOOTH",
"435 665 LINE SMOOTH",
"435 684 OFFCURVE",
"419 700 OFFCURVE",
"400 700 CURVE SMOOTH",
"381 700 OFFCURVE",
"365 684 OFFCURVE",
"365 665 CURVE SMOOTH",
"365 385 LINE",
"85 385 LINE",
"85 665 LINE SMOOTH",
"85 684 OFFCURVE",
"69 700 OFFCURVE",
"50 700 CURVE SMOOTH",
"31 700 OFFCURVE",
"15 684 OFFCURVE",
"15 665 CURVE SMOOTH",
"15 35 LINE SMOOTH",
"15 16 OFFCURVE",
"31 0 OFFCURVE",
"50 0 CURVE SMOOTH"
);
}
);
width = 450;
},
{
associatedMasterId = "E2083702-67E7-471D-AE09-DB685EF5235E";
layerId = "4CA767A7-C11E-4A79-987E-B3D72894B3C9";
name = "Nov 13 18, 12:59";
paths = (
{
closed = 0;
nodes = (
"70 700 LINE",
"70 0 LINE"
);
},
{
closed = 0;
nodes = (
"440 700 LINE",
"440 0 LINE"
);
},
{
closed = 0;
nodes = (
"70 350 LINE",
"440 350 LINE"
);
}
);
width = 600;
},
{
associatedMasterId = "E2083702-67E7-471D-AE09-DB685EF5235E";
layerId = "0619B2C6-E6AB-4E88-9F58-145FFC17906C";
name = "Nov 21 18, 17:09";
paths = (
{
closed = 0;
nodes = (
"80 665 LINE",
"80 35 LINE"
);
},
{
closed = 0;
nodes = (
"430 350 LINE",
"80 350 LINE"
);
},
{
closed = 0;
nodes = (
"430 35 LINE",
"430 665 LINE"
);
}
);
width = 600;
}
);
unicode = 0048;
},
{
color = 3;
glyphname = I;
lastChange = "2018-11-21 16:16:21 +0000";
layers = (
{
layerId = "E2083702-67E7-471D-AE09-DB685EF5235E";
paths = (
{
closed = 1;
nodes = (
"230 0 LINE SMOOTH",
"249 0 OFFCURVE",
"265 16 OFFCURVE",
"265 35 CURVE SMOOTH",
"265 54 OFFCURVE",
"249 70 OFFCURVE",
"230 70 CURVE SMOOTH",
"175 70 LINE",
"175 630 LINE",
"230 630 LINE SMOOTH",
"249 630 OFFCURVE",
"265 646 OFFCURVE",
"265 665 CURVE SMOOTH",
"265 684 OFFCURVE",
"249 700 OFFCURVE",
"230 700 CURVE SMOOTH",
"50 700 LINE SMOOTH",
"31 700 OFFCURVE",
"15 684 OFFCURVE",
"15 665 CURVE SMOOTH",
"15 646 OFFCURVE",
"31 630 OFFCURVE",
"50 630 CURVE SMOOTH",
"105 630 LINE",
"105 70 LINE",
"50 70 LINE SMOOTH",
"31 70 OFFCURVE",
"15 54 OFFCURVE",
"15 35 CURVE SMOOTH",
"15 16 OFFCURVE",
"31 0 OFFCURVE",
"50 0 CURVE SMOOTH"
);
}
);
width = 280;
},
{
associatedMasterId = "E2083702-67E7-471D-AE09-DB685EF5235E";
layerId = "7AC97260-73DB-4960-93F3-9564DABD8E9F";
name = "Nov 13 18, 14:52";
paths = (
{
closed = 0;
nodes = (
"200 665 LINE",
"200 35 LINE"
);
},
{
closed = 0;
nodes = (
"110 665 LINE",
"290 665 LINE"
);
},
{
closed = 0;
nodes = (
"110 35 LINE",
"290 35 LINE"
);
}
);
width = 600;
}
);
unicode = 0049;
},
{
color = 3;
glyphname = J;
lastChange = "2018-11-21 16:16:23 +0000";
layers = (
{
layerId = "E2083702-67E7-471D-AE09-DB685EF5235E";
paths = (
{
closed = 1;
nodes = (
"182 700 LINE SMOOTH",
"163 700 OFFCURVE",
"147 684 OFFCURVE",
"147 665 CURVE SMOOTH",
"147 646 OFFCURVE",
"163 630 OFFCURVE",
"182 630 CURVE SMOOTH",
"305 630 LINE",
"305 250 LINE SMOOTH",
"305 126 OFFCURVE",
"266 70 OFFCURVE",
"185 70 CURVE SMOOTH",
"140 70 OFFCURVE",
"102 92 OFFCURVE",
"81 131 CURVE SMOOTH",
"75 142 OFFCURVE",
"63 150 OFFCURVE",
"50 150 CURVE SMOOTH",
"31 150 OFFCURVE",
"15 134 OFFCURVE",
"15 115 CURVE SMOOTH",
"15 109 OFFCURVE",
"17 103 OFFCURVE",
"20 98 CURVE SMOOTH",
"53 37 OFFCURVE",
"115 0 OFFCURVE",
"185 0 CURVE SMOOTH",
"309 0 OFFCURVE",
"375 90 OFFCURVE",
"375 250 CURVE SMOOTH",
"375 665 LINE SMOOTH",
"375 684 OFFCURVE",
"359 700 OFFCURVE",
"340 700 CURVE SMOOTH"
);
}
);
width = 390;
},
{
associatedMasterId = "E2083702-67E7-471D-AE09-DB685EF5235E";
layerId = "213C35F4-7BF8-44CA-8EE2-B9F502FC8E99";
name = "Nov 13 18, 21:42";
paths = (
{
closed = 0;
nodes = (
"0 230 LINE SMOOTH",
"0 90 OFFCURVE",
"35 0 OFFCURVE",
"175 0 CURVE SMOOTH",
"315 0 OFFCURVE",
"350 90 OFFCURVE",
"350 230 CURVE",
"350 700 LINE",
"175 700 LINE"
);
}
);
width = 600;
},
{
associatedMasterId = "E2083702-67E7-471D-AE09-DB685EF5235E";
layerId = "C6BA09ED-5982-40A0-BAD9-3B530231A690";
name = "Nov 21 18, 17:13";
paths = (
{
closed = 0;
nodes = (
"29 158 LINE",
"32 143 OFFCURVE",
"37 129 OFFCURVE",
"43 115 CURVE SMOOTH",
"68 69 OFFCURVE",
"116 35 OFFCURVE",
"178 35 CURVE SMOOTH",
"258 35 OFFCURVE",
"333 80 OFFCURVE",
"333 250 CURVE",
"333 665 LINE",
"175 665 LINE"
);
}
);
width = 600;
},
{
associatedMasterId = "E2083702-67E7-471D-AE09-DB685EF5235E";
layerId = "8AE4C866-B1D1-4AC5-9AC5-DD64F07ABD48";
name = "Nov 21 18, 17:15";
paths = (
{
closed = 0;
nodes = (
"43 115 LINE",
"68 69 OFFCURVE",
"116 35 OFFCURVE",
"178 35 CURVE SMOOTH",
"258 35 OFFCURVE",
"333 80 OFFCURVE",
"333 250 CURVE",
"333 665 LINE",
"175 665 LINE"
);
}
);
width = 600;
}
);
unicode = 004A;
},
{
color = 3;
glyphname = K;
lastChange = "2018-11-21 16:18:33 +0000";
layers = (
{
layerId = "E2083702-67E7-471D-AE09-DB685EF5235E";
paths = (
{
closed = 1;
nodes = (
"69 0 OFFCURVE",
"85 16 OFFCURVE",
"85 35 CURVE SMOOTH",
"85 238 LINE",
"177 354 LINE",
"349 20 LINE SMOOTH",
"354 8 OFFCURVE",
"366 0 OFFCURVE",
"380 0 CURVE SMOOTH",
"399 0 OFFCURVE",
"415 16 OFFCURVE",
"415 35 CURVE SMOOTH",
"415 41 OFFCURVE",
"414 47 OFFCURVE",
"411 52 CURVE SMOOTH",
"225 414 LINE",
"407 643 LINE SMOOTH",
"412 649 OFFCURVE",
"415 657 OFFCURVE",
"415 665 CURVE SMOOTH",
"415 684 OFFCURVE",
"399 700 OFFCURVE",
"380 700 CURVE SMOOTH",
"369 700 OFFCURVE",
"359 695 OFFCURVE",
"352 687 CURVE SMOOTH",
"85 350 LINE",
"85 665 LINE SMOOTH",
"85 684 OFFCURVE",
"69 700 OFFCURVE",
"50 700 CURVE SMOOTH",
"31 700 OFFCURVE",
"15 684 OFFCURVE",
"15 665 CURVE SMOOTH",
"15 35 LINE SMOOTH",
"15 16 OFFCURVE",
"31 0 OFFCURVE",
"50 0 CURVE SMOOTH"
);
}
);
width = 430;
},
{
associatedMasterId = "E2083702-67E7-471D-AE09-DB685EF5235E";
layerId = "B85A98B3-1513-4614-9B0B-A1CF6198F6F5";
name = "Nov 13 18, 14:59";
paths = (
{
closed = 0;
nodes = (
"110 700 LINE",
"110 0 LINE",
"177 240 OFFCURVE",
"261 493 OFFCURVE",
"525 702 CURVE"
);
},
{
closed = 0;
nodes = (
"450 0 LINE",
"250 366 LINE"
);
}
);
width = 600;
},
{
associatedMasterId = "E2083702-67E7-471D-AE09-DB685EF5235E";
layerId = "6BB73F11-8E3B-4C19-8230-446DE04BC412";
name = "Nov 21 18, 17:16";
paths = (
{
closed = 0;
nodes = (
"110 665 LINE",
"110 35 LINE",
"495 667 LINE"
);
},
{
closed = 0;
nodes = (
"420 35 LINE",
"281 306 LINE"
);
}
);
width = 600;
},
{
associatedMasterId = "E2083702-67E7-471D-AE09-DB685EF5235E";
layerId = "B85AAE8B-28CE-4451-86F6-76001AB5F600";
name = "Nov 21 18, 17:17";
paths = (
{
closed = 0;
nodes = (
"110 665 LINE",
"110 35 LINE"
);
},
{
closed = 0;
nodes = (
"440 35 LINE",
"246 414 LINE"
);
},
{
closed = 0;
nodes = (
"440 665 LINE",
"110 250 LINE"
);
}
);
width = 600;
}
);
unicode = 004B;
},
{
color = 3;
glyphname = L;
lastChange = "2018-11-21 16:20:06 +0000";
layers = (
{
layerId = "E2083702-67E7-471D-AE09-DB685EF5235E";
paths = (
{
closed = 1;
nodes = (
"15 16 OFFCURVE",
"31 0 OFFCURVE",
"50 0 CURVE SMOOTH",
"350 0 LINE SMOOTH",
"369 0 OFFCURVE",
"385 16 OFFCURVE",
"385 35 CURVE SMOOTH",
"385 54 OFFCURVE",
"369 70 OFFCURVE",
"350 70 CURVE SMOOTH",
"85 70 LINE",
"85 665 LINE SMOOTH",
"85 684 OFFCURVE",
"69 700 OFFCURVE",
"50 700 CURVE SMOOTH",
"31 700 OFFCURVE",
"15 684 OFFCURVE",
"15 665 CURVE SMOOTH",
"15 35 LINE SMOOTH"
);
}
);
width = 400;
},
{
associatedMasterId = "E2083702-67E7-471D-AE09-DB685EF5235E";
layerId = "48974C2F-28E4-466C-999A-BDF634041D7A";
name = "Nov 13 18, 14:49";
paths = (
{
closed = 0;
nodes = (
"90 700 LINE",
"90 0 LINE",
"340 0 LINE"
);
}
);
width = 600;
},
{
associatedMasterId = "E2083702-67E7-471D-AE09-DB685EF5235E";
layerId = "293E6F2F-7BA3-4273-9C83-74AF1B376721";
name = "Nov 21 18, 17:18";
paths = (
{
closed = 0;
nodes = (
"80 665 LINE",
"80 35 LINE",
"430 35 LINE"
);
}
);
visible = 1;
width = 600;
}
);
unicode = 004C;
},
{
color = 3;
glyphname = M;
lastChange = "2018-11-21 16:23:09 +0000";
layers = (
{
layerId = "E2083702-67E7-471D-AE09-DB685EF5235E";
paths = (
{
closed = 1;
nodes = (
"69 0 OFFCURVE",
"85 16 OFFCURVE",
"85 35 CURVE SMOOTH",
"85 526 LINE",
"276 170 LINE SMOOTH",
"285 153 OFFCURVE",
"298 145 OFFCURVE",
"317 145 CURVE SMOOTH",
"323 145 LINE SMOOTH",
"342 145 OFFCURVE",
"355 153 OFFCURVE",
"364 170 CURVE SMOOTH",
"555 526 LINE",
"555 35 LINE SMOOTH",
"555 16 OFFCURVE",
"571 0 OFFCURVE",
"590 0 CURVE SMOOTH",
"609 0 OFFCURVE",
"625 16 OFFCURVE",
"625 35 CURVE SMOOTH",
"625 634 LINE SMOOTH",
"625 655 OFFCURVE",
"615 667 OFFCURVE",
"595 673 CURVE SMOOTH",
"589 674 LINE SMOOTH",
"569 679 OFFCURVE",
"554 673 OFFCURVE",
"544 654 CURVE SMOOTH",
"320 236 LINE",
"96 654 LINE SMOOTH",
"86 673 OFFCURVE",
"71 679 OFFCURVE",
"51 674 CURVE SMOOTH",
"45 673 LINE SMOOTH",
"25 667 OFFCURVE",
"15 655 OFFCURVE",
"15 634 CURVE SMOOTH",
"15 35 LINE SMOOTH",
"15 16 OFFCURVE",
"31 0 OFFCURVE",
"50 0 CURVE SMOOTH"
);
}
);
width = 640;
},
{
associatedMasterId = "E2083702-67E7-471D-AE09-DB685EF5235E";
layerId = "4C1D43DF-8501-476F-8396-FC16AF097F88";
name = "Nov 13 18, 14:23";
paths = (
{
closed = 0;
nodes = (
"30 35 LINE",
"30 665 LINE",
"300 162 LINE",
"570 665 LINE",
"570 35 LINE"
);
}
);
width = 600;
}
);
unicode = 004D;
},
{
color = 3;
glyphname = N;
lastChange = "2018-11-21 16:22:18 +0000";
layers = (
{
layerId = "E2083702-67E7-471D-AE09-DB685EF5235E";
paths = (
{
closed = 1;
nodes = (
"433 27 LINE SMOOTH",
"453 32 OFFCURVE",
"463 45 OFFCURVE",
"463 66 CURVE SMOOTH",
"463 665 LINE SMOOTH",
"463 688 OFFCURVE",
"451 700 OFFCURVE",
"428 700 CURVE SMOOTH",
"405 700 OFFCURVE",
"393 688 OFFCURVE",
"393 665 CURVE SMOOTH",
"393 161 LINE",
"96 657 LINE SMOOTH",
"85 674 OFFCURVE",
"70 680 OFFCURVE",
"50 675 CURVE SMOOTH",
"45 673 LINE SMOOTH",
"25 668 OFFCURVE",
"15 655 OFFCURVE",
"15 634 CURVE SMOOTH",
"15 35 LINE SMOOTH",
"15 12 OFFCURVE",
"27 0 OFFCURVE",
"50 0 CURVE SMOOTH",
"73 0 OFFCURVE",
"85 12 OFFCURVE",
"85 35 CURVE SMOOTH",
"85 539 LINE",
"382 43 LINE SMOOTH",
"393 26 OFFCURVE",
"408 20 OFFCURVE",
"428 25 CURVE SMOOTH"
);
},
{
closed = 1;
nodes = (
"393 16 OFFCURVE",
"409 0 OFFCURVE",
"428 0 CURVE SMOOTH",
"447 0 OFFCURVE",
"463 16 OFFCURVE",
"463 35 CURVE",
"463 114 LINE",
"333 146 LINE",
"393 35 LINE"
);
},
{
closed = 1;
nodes = (
"85 684 OFFCURVE",
"69 700 OFFCURVE",
"50 700 CURVE SMOOTH",
"31 700 OFFCURVE",
"15 684 OFFCURVE",
"15 665 CURVE",
"15 586 LINE",
"145 554 LINE",
"85 665 LINE"
);
}
);
width = 478;
},
{
associatedMasterId = "E2083702-67E7-471D-AE09-DB685EF5235E";
layerId = "F81F1C6B-D17F-454A-B24E-25465580DC09";
name = "Nov 13 18, 14:24";
paths = (
{
closed = 1;
nodes = (
"449 35 LINE",
"71 665 LINE",
"71 35 LINE",
"71 665 LINE",
"449 35 LINE",
"449 665 LINE"
);
}
);
visible = 1;
width = 600;
}
);
unicode = 004E;
},
{
color = 3;
glyphname = O;
lastChange = "2018-11-21 16:23:45 +0000";
layers = (
{
layerId = "E2083702-67E7-471D-AE09-DB685EF5235E";
paths = (
{
closed = 1;
nodes = (
"515 0 OFFCURVE",
"658 158 OFFCURVE",
"658 350 CURVE SMOOTH",
"658 542 OFFCURVE",
"515 700 OFFCURVE",
"338 700 CURVE SMOOTH",
"160 700 OFFCURVE",
"15 543 OFFCURVE",
"15 350 CURVE SMOOTH",
"15 157 OFFCURVE",
"160 0 OFFCURVE",
"338 0 CURVE SMOOTH"
);
},
{
closed = 1;
nodes = (
"199 70 OFFCURVE",
"85 195 OFFCURVE",
"85 350 CURVE SMOOTH",
"85 505 OFFCURVE",
"199 630 OFFCURVE",
"338 630 CURVE SMOOTH",
"475 630 OFFCURVE",
"588 504 OFFCURVE",
"588 350 CURVE SMOOTH",
"588 196 OFFCURVE",
"475 70 OFFCURVE",
"338 70 CURVE SMOOTH"
);
}
);
width = 673;
},
{
associatedMasterId = "E2083702-67E7-471D-AE09-DB685EF5235E";
layerId = "1A375AFC-51D4-4005-B0A6-3EFE269D326C";
name = "Nov 13 18, 15:02";
paths = (
{
closed = 1;
nodes = (
"486 0 OFFCURVE",
"682 157 OFFCURVE",
"682 350 CURVE SMOOTH",
"682 543 OFFCURVE",
"486 700 OFFCURVE",
"248 700 CURVE SMOOTH",
"7 700 OFFCURVE",
"-189 543 OFFCURVE",
"-189 350 CURVE SMOOTH",
"-189 157 OFFCURVE",
"7 0 OFFCURVE",
"248 0 CURVE SMOOTH"
);
}
);
width = 600;
},
{
associatedMasterId = "E2083702-67E7-471D-AE09-DB685EF5235E";
layerId = "3A155FA4-8AF7-49FA-855F-D9E0BC720D79";
name = "Nov 13 18, 15:02";
paths = (
{
closed = 1;
nodes = (
"404 35 OFFCURVE",
"533 176 OFFCURVE",
"533 350 CURVE SMOOTH",
"533 524 OFFCURVE",
"404 665 OFFCURVE",
"248 665 CURVE SMOOTH",
"89 665 OFFCURVE",
"-40 524 OFFCURVE",
"-40 350 CURVE SMOOTH",
"-40 176 OFFCURVE",
"89 35 OFFCURVE",
"248 35 CURVE SMOOTH"
);
}
);
width = 600;
}
);
unicode = 004F;
},
{
color = 3;
glyphname = P;
lastChange = "2018-11-21 16:26:01 +0000";
layers = (
{
layerId = "E2083702-67E7-471D-AE09-DB685EF5235E";
paths = (
{
closed = 1;
nodes = (
"69 0 OFFCURVE",
"85 16 OFFCURVE",
"85 35 CURVE SMOOTH",
"85 280 LINE",
"256 280 LINE SMOOTH",
"401 281 OFFCURVE",
"490 361 OFFCURVE",
"490 490 CURVE SMOOTH",
"490 616 OFFCURVE",
"396 700 OFFCURVE",
"256 700 CURVE SMOOTH",
"75 700 LINE SMOOTH",
"57 700 OFFCURVE",
"45 695 OFFCURVE",
"33 683 CURVE SMOOTH",
"20 670 OFFCURVE",
"15 658 OFFCURVE",
"15 640 CURVE SMOOTH",
"15 35 LINE SMOOTH",
"15 16 OFFCURVE",
"31 0 OFFCURVE",
"50 0 CURVE SMOOTH"
);
},
{
closed = 1;
nodes = (
"85 350 LINE",
"85 630 LINE",
"256 630 LINE SMOOTH",
"357 630 OFFCURVE",
"420 576 OFFCURVE",
"420 490 CURVE SMOOTH",
"420 400 OFFCURVE",
"363 351 OFFCURVE",
"256 350 CURVE SMOOTH"
);
}
);
width = 505;
},
{
associatedMasterId = "E2083702-67E7-471D-AE09-DB685EF5235E";
layerId = "180A0195-082D-416D-9F9B-BACBE38B396F";
name = "Nov 13 18, 14:55";
paths = (
{
closed = 0;
nodes = (
"123 35 LINE",
"123 665 LINE",
"329 665 LINE",
"436 665 OFFCURVE",
"528 607 OFFCURVE",
"528 490 CURVE SMOOTH",
"528 373 OFFCURVE",
"446 316 OFFCURVE",
"329 315 CURVE",
"123 315 LINE"
);
}
);
width = 600;
}
);
unicode = 0050;
},
{
color = 3;
glyphname = Q;
lastChange = "2018-11-21 16:28:19 +0000";
layers = (
{
layerId = "E2083702-67E7-471D-AE09-DB685EF5235E";
paths = (
{
closed = 1;
nodes = (
"578 -114 OFFCURVE",
"594 -98 OFFCURVE",
"594 -79 CURVE SMOOTH",
"594 -73 OFFCURVE",
"593 -68 OFFCURVE",
"590 -63 CURVE SMOOTH",
"525 67 LINE",
"606 131 OFFCURVE",
"658 234 OFFCURVE",
"658 350 CURVE SMOOTH",
"658 542 OFFCURVE",
"515 700 OFFCURVE",
"338 700 CURVE SMOOTH",
"160 700 OFFCURVE",
"15 543 OFFCURVE",
"15 350 CURVE SMOOTH",
"15 157 OFFCURVE",
"160 0 OFFCURVE",
"338 0 CURVE SMOOTH",
"383 0 OFFCURVE",
"427 10 OFFCURVE",
"466 29 CURVE",
"527 -94 LINE SMOOTH",
"533 -106 OFFCURVE",
"545 -114 OFFCURVE",
"559 -114 CURVE SMOOTH"
);
},
{
closed = 1;
nodes = (
"199 70 OFFCURVE",
"85 195 OFFCURVE",
"85 350 CURVE SMOOTH",
"85 505 OFFCURVE",
"199 630 OFFCURVE",
"338 630 CURVE SMOOTH",
"475 630 OFFCURVE",
"588 504 OFFCURVE",
"588 350 CURVE SMOOTH",
"588 262 OFFCURVE",
"551 183 OFFCURVE",
"493 131 CURVE",
"456 207 LINE SMOOTH",
"450 219 OFFCURVE",
"438 227 OFFCURVE",
"424 227 CURVE SMOOTH",
"405 227 OFFCURVE",
"389 211 OFFCURVE",
"389 192 CURVE SMOOTH",
"389 186 OFFCURVE",
"390 181 OFFCURVE",
"393 176 CURVE SMOOTH",
"435 92 LINE",
"405 78 OFFCURVE",
"372 70 OFFCURVE",
"338 70 CURVE SMOOTH"
);
}
);
width = 673;
},
{
associatedMasterId = "E2083702-67E7-471D-AE09-DB685EF5235E";
layerId = "D6FBA8EC-4400-4532-AD41-61F20D3DFAEF";
name = "Nov 13 18, 15:01";
paths = (
{
closed = 1;
nodes = (
"486 0 OFFCURVE",
"682 157 OFFCURVE",
"682 350 CURVE SMOOTH",
"682 543 OFFCURVE",
"486 700 OFFCURVE",
"248 700 CURVE SMOOTH",
"7 700 OFFCURVE",
"-189 543 OFFCURVE",
"-189 350 CURVE SMOOTH",
"-189 157 OFFCURVE",
"7 0 OFFCURVE",
"248 0 CURVE SMOOTH"
);
},
{
closed = 0;
nodes = (
"334 176 LINE",
"599 -114 LINE"
);
}
);
width = 600;
},
{
associatedMasterId = "E2083702-67E7-471D-AE09-DB685EF5235E";
layerId = "481F7791-05C1-41A5-8C54-44BB9185EB13";
name = "Nov 13 18, 15:01";
paths = (
{
closed = 1;
nodes = (
"424 0 OFFCURVE",
"540 157 OFFCURVE",
"540 350 CURVE SMOOTH",
"540 543 OFFCURVE",
"424 700 OFFCURVE",
"280 700 CURVE SMOOTH",
"138 700 OFFCURVE",
"20 543 OFFCURVE",
"20 350 CURVE SMOOTH",
"20 157 OFFCURVE",
"138 0 OFFCURVE",
"280 0 CURVE SMOOTH"
);
},
{
closed = 0;
nodes = (
"385 153 LINE",
"510 -101 LINE"
);
}
);
width = 600;
},
{
associatedMasterId = "E2083702-67E7-471D-AE09-DB685EF5235E";
layerId = "004006FC-1029-4EB9-82D6-A337714B89EF";
name = "Nov 21 18, 17:27";
paths = (
{
closed = 1;
nodes = (
"404 35 OFFCURVE",
"533 176 OFFCURVE",
"533 350 CURVE SMOOTH",
"533 524 OFFCURVE",
"404 665 OFFCURVE",
"248 665 CURVE SMOOTH",
"89 665 OFFCURVE",
"-40 524 OFFCURVE",
"-40 350 CURVE SMOOTH",
"-40 176 OFFCURVE",
"89 35 OFFCURVE",
"248 35 CURVE SMOOTH"
);
},
{
closed = 0;
nodes = (
"469 -79 LINE",
"334 192 LINE"
);
}
);
width = 600;
}
);
unicode = 0051;
},
{
color = 3;
glyphname = R;
lastChange = "2018-11-21 16:27:01 +0000";
layers = (
{
layerId = "E2083702-67E7-471D-AE09-DB685EF5235E";
paths = (
{
closed = 1;
nodes = (
"69 0 OFFCURVE",
"85 16 OFFCURVE",
"85 35 CURVE SMOOTH",
"85 280 LINE",
"236 280 LINE",
"384 18 LINE SMOOTH",
"390 7 OFFCURVE",
"402 0 OFFCURVE",
"415 0 CURVE SMOOTH",
"434 0 OFFCURVE",
"450 16 OFFCURVE",
"450 35 CURVE SMOOTH",
"450 42 OFFCURVE",
"448 48 OFFCURVE",
"445 53 CURVE SMOOTH",
"313 285 LINE",
"424 304 OFFCURVE",
"490 379 OFFCURVE",
"490 490 CURVE SMOOTH",
"490 616 OFFCURVE",
"396 700 OFFCURVE",
"256 700 CURVE SMOOTH",
"75 700 LINE SMOOTH",
"57 700 OFFCURVE",
"45 695 OFFCURVE",
"33 683 CURVE SMOOTH",
"20 670 OFFCURVE",
"15 658 OFFCURVE",
"15 640 CURVE SMOOTH",
"15 35 LINE SMOOTH",
"15 16 OFFCURVE",
"31 0 OFFCURVE",
"50 0 CURVE SMOOTH"
);
},
{
closed = 1;
nodes = (
"85 630 LINE",
"256 630 LINE SMOOTH",
"357 630 OFFCURVE",
"420 576 OFFCURVE",
"420 490 CURVE SMOOTH",
"420 400 OFFCURVE",
"363 351 OFFCURVE",
"256 350 CURVE SMOOTH",
"85 350 LINE"
);
}
);
width = 505;
},
{
associatedMasterId = "E2083702-67E7-471D-AE09-DB685EF5235E";
layerId = "EB38D675-20E6-4F3B-8FE9-CF3EECA854A2";
name = "Nov 13 18, 14:56";
paths = (
{
closed = 0;
nodes = (
"100 0 LINE",
"100 700 LINE",
"340 700 LINE",
"415 700 OFFCURVE",
"551 670 OFFCURVE",
"551 540 CURVE SMOOTH",
"551 410 OFFCURVE",
"426 381 OFFCURVE",
"340 380 CURVE",
"100 380 LINE",
"500 0 LINE"
);
}
);
width = 600;
},
{
associatedMasterId = "E2083702-67E7-471D-AE09-DB685EF5235E";
layerId = "5EB139FE-F4C4-44AD-AF27-8BF8B78790F0";
name = "Nov 13 18, 14:57";
paths = (
{
closed = 0;
nodes = (
"100 0 LINE",
"100 700 LINE",
"340 700 LINE",
"415 700 OFFCURVE",
"551 670 OFFCURVE",
"551 540 CURVE SMOOTH",
"551 410 OFFCURVE",
"426 381 OFFCURVE",
"340 380 CURVE",
"100 380 LINE"
);
},
{
closed = 0;
nodes = (
"320 380 LINE",
"500 0 LINE"
);
}
);
width = 600;
},
{
associatedMasterId = "E2083702-67E7-471D-AE09-DB685EF5235E";
layerId = "9CC9877C-CAEB-471B-B363-595903AD9364";
name = "Nov 13 18, 14:57";
paths = (
{
closed = 0;
nodes = (
"100 0 LINE",
"100 700 LINE",
"340 700 LINE",
"415 700 OFFCURVE",
"551 670 OFFCURVE",
"551 540 CURVE SMOOTH",
"551 410 OFFCURVE",
"426 381 OFFCURVE",
"340 380 CURVE",
"100 380 LINE"
);
},
{
closed = 0;
nodes = (
"376 380 LINE",
"500 0 LINE"
);
}
);
width = 600;
},
{
associatedMasterId = "E2083702-67E7-471D-AE09-DB685EF5235E";
layerId = "333E1D6F-43B1-4C76-81AC-F8E77CDDC639";
name = "Nov 21 18, 17:26";
paths = (
{
closed = 0;
nodes = (
"123 35 LINE",
"123 665 LINE",
"329 665 LINE",
"436 665 OFFCURVE",
"528 607 OFFCURVE",
"528 490 CURVE SMOOTH",
"528 373 OFFCURVE",
"446 316 OFFCURVE",
"329 315 CURVE",
"123 315 LINE"
);
},
{
closed = 0;
nodes = (
"488 35 LINE",
"329 315 LINE"
);
}
);
width = 600;
}
);
unicode = 0052;
},
{
color = 3;
glyphname = S;
lastChange = "2018-11-21 16:29:41 +0000";
layers = (
{
layerId = "E2083702-67E7-471D-AE09-DB685EF5235E";
paths = (
{
closed = 1;
nodes = (
"401 0 LINE SMOOTH",
"542 0 OFFCURVE",
"625 71 OFFCURVE",
"625 192 CURVE SMOOTH",
"625 314 OFFCURVE",
"542 385 OFFCURVE",
"401 385 CURVE SMOOTH",
"239 385 LINE SMOOTH",
"136 385 OFFCURVE",
"85 426 OFFCURVE",
"85 508 CURVE SMOOTH",
"85 589 OFFCURVE",
"136 630 OFFCURVE",
"239 630 CURVE SMOOTH",
"550 630 LINE SMOOTH",
"569 630 OFFCURVE",
"585 646 OFFCURVE",
"585 665 CURVE SMOOTH",
"585 684 OFFCURVE",
"569 700 OFFCURVE",
"550 700 CURVE SMOOTH",
"239 700 LINE SMOOTH",
"98 700 OFFCURVE",
"15 629 OFFCURVE",
"15 508 CURVE SMOOTH",
"15 386 OFFCURVE",
"98 315 OFFCURVE",
"239 315 CURVE SMOOTH",
"401 315 LINE SMOOTH",
"504 315 OFFCURVE",
"555 274 OFFCURVE",
"555 192 CURVE SMOOTH",
"555 111 OFFCURVE",
"504 70 OFFCURVE",
"401 70 CURVE SMOOTH",
"90 70 LINE SMOOTH",
"71 70 OFFCURVE",
"55 54 OFFCURVE",
"55 35 CURVE SMOOTH",
"55 16 OFFCURVE",
"71 0 OFFCURVE",
"90 0 CURVE SMOOTH"
);
}
);
width = 640;
},
{
associatedMasterId = "E2083702-67E7-471D-AE09-DB685EF5235E";
layerId = "C94531BF-8A1B-4112-BFBB-AEF82BB2DC67";
name = "Nov 13 18, 15:15";
paths = (
{
closed = 0;
nodes = (
"570 665 LINE",
"219 665 LINE",
"66 665 OFFCURVE",
"30 580 OFFCURVE",
"30 508 CURVE SMOOTH",
"30 436 OFFCURVE",
"66 350 OFFCURVE",
"219 350 CURVE SMOOTH",
"381 350 LINE",
"534 350 OFFCURVE",
"570 264 OFFCURVE",
"570 192 CURVE SMOOTH",
"570 120 OFFCURVE",
"534 35 OFFCURVE",
"381 35 CURVE",
"30 35 LINE"
);
}
);
width = 600;
}
);
unicode = 0053;
},
{
color = 3;
glyphname = T;
lastChange = "2018-11-21 16:30:45 +0000";
layers = (
{
layerId = "E2083702-67E7-471D-AE09-DB685EF5235E";
paths = (
{
closed = 1;
nodes = (
"285 0 OFFCURVE",
"301 16 OFFCURVE",
"301 35 CURVE SMOOTH",
"301 630 LINE",
"482 630 LINE SMOOTH",
"501 630 OFFCURVE",
"517 646 OFFCURVE",
"517 665 CURVE SMOOTH",
"517 684 OFFCURVE",
"501 700 OFFCURVE",
"482 700 CURVE SMOOTH",
"50 700 LINE SMOOTH",
"31 700 OFFCURVE",
"15 684 OFFCURVE",
"15 665 CURVE SMOOTH",
"15 646 OFFCURVE",
"31 630 OFFCURVE",
"50 630 CURVE SMOOTH",
"231 630 LINE",
"231 35 LINE SMOOTH",
"231 16 OFFCURVE",
"247 0 OFFCURVE",
"266 0 CURVE SMOOTH"
);
}
);
width = 532;
},
{
associatedMasterId = "E2083702-67E7-471D-AE09-DB685EF5235E";
layerId = "08E7ADD7-D767-42B6-BD24-3B99489F0A33";
name = "Nov 13 18, 14:51";
paths = (
{
closed = 0;
nodes = (
"27 665 LINE",
"459 665 LINE"
);
},
{
closed = 0;
nodes = (
"243 665 LINE",
"243 35 LINE"
);
}
);
width = 600;
}
);
unicode = 0054;
},
{
color = 3;
glyphname = U;
lastChange = "2018-11-21 16:31:20 +0000";
layers = (
{
layerId = "E2083702-67E7-471D-AE09-DB685EF5235E";
paths = (
{
closed = 1;
nodes = (
"406 0 OFFCURVE",
"490 100 OFFCURVE",
"490 278 CURVE SMOOTH",
"490 665 LINE SMOOTH",
"490 684 OFFCURVE",
"474 700 OFFCURVE",
"455 700 CURVE SMOOTH",
"436 700 OFFCURVE",
"420 684 OFFCURVE",
"420 665 CURVE SMOOTH",
"420 278 LINE SMOOTH",
"420 137 OFFCURVE",
"365 70 OFFCURVE",
"252 70 CURVE SMOOTH",
"140 70 OFFCURVE",
"85 137 OFFCURVE",
"85 278 CURVE SMOOTH",
"85 665 LINE SMOOTH",
"85 684 OFFCURVE",
"69 700 OFFCURVE",
"50 700 CURVE SMOOTH",
"31 700 OFFCURVE",
"15 684 OFFCURVE",
"15 665 CURVE SMOOTH",
"15 278 LINE SMOOTH",
"15 100 OFFCURVE",
"99 0 OFFCURVE",
"252 0 CURVE SMOOTH"
);
}
);
width = 505;
},
{
associatedMasterId = "E2083702-67E7-471D-AE09-DB685EF5235E";
layerId = "FD64301D-D6FC-4AA3-AE3B-A5DD74C9D93A";
name = "Nov 13 18, 21:38";
paths = (
{
closed = 0;
nodes = (
"23 665 LINE",
"23 278 LINE",
"23 99 OFFCURVE",
"109 35 OFFCURVE",
"225 35 CURVE SMOOTH",
"341 35 OFFCURVE",
"428 99 OFFCURVE",
"428 278 CURVE",
"428 665 LINE"
);
}
);
visible = 1;
width = 600;
}
);
unicode = 0055;
},
{
color = 3;
glyphname = V;
lastChange = "2018-11-21 16:39:15 +0000";
layers = (
{
layerId = "E2083702-67E7-471D-AE09-DB685EF5235E";
paths = (
{
closed = 1;
nodes = (
"279 23 LINE SMOOTH",
"299 23 OFFCURVE",
"312 32 OFFCURVE",
"319 51 CURVE SMOOTH",
"535 652 LINE SMOOTH",
"536 656 OFFCURVE",
"537 661 OFFCURVE",
"537 665 CURVE SMOOTH",
"537 684 OFFCURVE",
"521 700 OFFCURVE",
"502 700 CURVE SMOOTH",
"487 700 OFFCURVE",
"473 690 OFFCURVE",
"469 676 CURVE SMOOTH",
"276 139 LINE",
"83 676 LINE SMOOTH",
"79 690 OFFCURVE",
"65 700 OFFCURVE",
"50 700 CURVE SMOOTH",
"31 700 OFFCURVE",
"15 684 OFFCURVE",
"15 665 CURVE SMOOTH",
"15 661 OFFCURVE",
"16 656 OFFCURVE",
"17 652 CURVE SMOOTH",
"233 51 LINE SMOOTH",
"240 32 OFFCURVE",
"253 23 OFFCURVE",
"273 23 CURVE SMOOTH"
);
},
{
closed = 1;
nodes = (
"295 0 OFFCURVE",
"311 16 OFFCURVE",
"311 35 CURVE SMOOTH",
"311 54 OFFCURVE",
"330 70 OFFCURVE",
"276 70 CURVE SMOOTH",
"222 70 OFFCURVE",
"241 54 OFFCURVE",
"241 35 CURVE SMOOTH",
"241 16 OFFCURVE",
"257 0 OFFCURVE",
"276 0 CURVE SMOOTH"
);
}
);
width = 552;
},
{
associatedMasterId = "E2083702-67E7-471D-AE09-DB685EF5235E";
layerId = "8BD46472-D327-4283-A90B-8CC36B68D156";
name = "Nov 13 18, 14:53";
paths = (
{
closed = 0;
nodes = (
"0 665 LINE",
"226 35 LINE",
"452 665 LINE"
);
}
);
width = 600;
}
);
unicode = 0056;
},
{
color = 6;
glyphname = W;
lastChange = "2018-11-20 10:46:38 +0000";
layers = (
{
layerId = "E2083702-67E7-471D-AE09-DB685EF5235E";
paths = (
{
closed = 1;
nodes = (
"149.674 -14.562 OFFCURVE",
"166.636 -3.307 OFFCURVE",
"175.639 21.701 CURVE SMOOTH",
"300 367.147 LINE",
"424.361 21.701 LINE SMOOTH",
"433.364 -3.307 OFFCURVE",
"450.326 -14.562 OFFCURVE",
"476.867 -13.137 CURVE SMOOTH",
"484.521 -12.725 LINE SMOOTH",
"511.063 -11.3 OFFCURVE",
"526.723 1.706 OFFCURVE",
"532.995 27.535 CURVE SMOOTH",
"693.503 688.45 LINE SMOOTH",
"694.479 692.136 OFFCURVE",
"695 696.007 OFFCURVE",
"695 700 CURVE SMOOTH",
"695 724.853 OFFCURVE",
"674.853 745 OFFCURVE",
"650 745 CURVE SMOOTH",
"628.496 745 OFFCURVE",
"610.515 729.916 OFFCURVE",
"606.06 709.752 CURVE SMOOTH",
"471.614 156.149 LINE",
"355.341 479.129 LINE SMOOTH",
"346.484 503.73 OFFCURVE",
"330.105 515.242 OFFCURVE",
"303.958 515.242 CURVE SMOOTH",
"296.042 515.242 LINE SMOOTH",
"269.895 515.242 OFFCURVE",
"253.516 503.73 OFFCURVE",
"244.659 479.129 CURVE SMOOTH",
"128.386 156.149 LINE",
"-6.06 709.752 LINE SMOOTH",
"-10.515 729.916 OFFCURVE",
"-28.496 745 OFFCURVE",
"-50 745 CURVE SMOOTH",
"-74.853 745 OFFCURVE",
"-95 724.853 OFFCURVE",
"-95 700 CURVE SMOOTH",
"-95 696.007 OFFCURVE",
"-94.479 692.136 OFFCURVE",
"-93.503 688.45 CURVE SMOOTH",
"67.005 27.535 LINE SMOOTH",
"73.277 1.706 OFFCURVE",
"88.937 -11.3 OFFCURVE",
"115.479 -12.725 CURVE SMOOTH",
"123.133 -13.137 LINE SMOOTH"
);
}
);
width = 600;
},
{
associatedMasterId = "E2083702-67E7-471D-AE09-DB685EF5235E";
layerId = "49BE54BD-C761-4B6E-B7D2-BFFBEE779F42";
name = "Nov 13 18, 14:18";
paths = (
{
closed = 0;
nodes = (
"-50 700 LINE",
"120 0 LINE",
"300 500 LINE",
"480 0 LINE",
"650 700 LINE"
);
}
);
width = 600;
}
);
unicode = 0057;
},
{
color = 6;
glyphname = X;
lastChange = "2018-11-20 10:46:38 +0000";
layers = (
{
layerId = "E2083702-67E7-471D-AE09-DB685EF5235E";
paths = (
{
closed = 1;
nodes = (
"86.844 -45 OFFCURVE",
"101.526 -35.745 OFFCURVE",
"109.24 -22.043 CURVE SMOOTH",
"275 260.962 LINE",
"440.761 -22.044 LINE SMOOTH",
"448.474 -35.745 OFFCURVE",
"463.156 -45 OFFCURVE",
"480 -45 CURVE SMOOTH",
"504.853 -45 OFFCURVE",
"525 -24.853 OFFCURVE",
"525 0 CURVE SMOOTH",
"525 8.565 OFFCURVE",
"522.607 16.57 OFFCURVE",
"518.454 23.385 CURVE SMOOTH",
"327.151 350 LINE",
"518.454 676.615 LINE SMOOTH",
"522.607 683.43 OFFCURVE",
"525 691.435 OFFCURVE",
"525 700 CURVE SMOOTH",
"525 724.853 OFFCURVE",
"504.853 745 OFFCURVE",
"480 745 CURVE SMOOTH",
"463.156 745 OFFCURVE",
"448.474 735.745 OFFCURVE",
"440.761 722.044 CURVE SMOOTH",
"275 439.038 LINE",
"109.24 722.043 LINE SMOOTH",
"101.526 735.745 OFFCURVE",
"86.844 745 OFFCURVE",
"70 745 CURVE SMOOTH",
"45.147 745 OFFCURVE",
"25 724.853 OFFCURVE",
"25 700 CURVE SMOOTH",
"25 691.435 OFFCURVE",
"27.393 683.43 OFFCURVE",
"31.546 676.615 CURVE SMOOTH",
"222.849 350 LINE",
"31.546 23.385 LINE SMOOTH",
"27.393 16.57 OFFCURVE",
"25 8.564 OFFCURVE",
"25 0 CURVE SMOOTH",
"25 -24.853 OFFCURVE",
"45.147 -45 OFFCURVE",
"70 -45 CURVE SMOOTH"
);
}
);
width = 600;
},
{
associatedMasterId = "E2083702-67E7-471D-AE09-DB685EF5235E";
layerId = "D40434FF-A0A1-4DF5-A32B-D6E4AA7E2B8D";
name = "Nov 13 18, 14:16";
paths = (
{
closed = 0;
nodes = (
"70 700 LINE",
"480 0 LINE"
);
},
{
closed = 0;
nodes = (
"480 700 LINE",
"70 0 LINE"
);
}
);
width = 600;
}
);
unicode = 0058;
},
{
color = 3;
glyphname = Y;
lastChange = "2018-11-21 16:46:44 +0000";
layers = (
{
layerId = "E2083702-67E7-471D-AE09-DB685EF5235E";
paths = (
{
closed = 1;
nodes = (
"274 0 OFFCURVE",
"290 16 OFFCURVE",
"290 35 CURVE SMOOTH",
"290 331 LINE",
"489 644 LINE SMOOTH",
"493 649 OFFCURVE",
"495 656 OFFCURVE",
"495 663 CURVE SMOOTH",
"495 682 OFFCURVE",
"479 698 OFFCURVE",
"460 698 CURVE SMOOTH",
"447 698 OFFCURVE",
"436 691 OFFCURVE",
"430 681 CURVE SMOOTH",
"255 406 LINE",
"80 683 LINE SMOOTH",
"74 693 OFFCURVE",
"63 700 OFFCURVE",
"50 700 CURVE SMOOTH",
"31 700 OFFCURVE",
"15 684 OFFCURVE",
"15 665 CURVE SMOOTH",
"15 658 OFFCURVE",
"17 651 OFFCURVE",
"21 646 CURVE SMOOTH",
"220 331 LINE",
"220 35 LINE SMOOTH",
"220 16 OFFCURVE",
"236 0 OFFCURVE",
"255 0 CURVE SMOOTH"
);
}
);
width = 510;
},
{
associatedMasterId = "E2083702-67E7-471D-AE09-DB685EF5235E";
layerId = "B3A3B4FC-B4D0-4B18-9ADF-B49242FFB769";
name = "Nov 13 18, 14:16";
paths = (
{
closed = 0;
nodes = (
"65 665 LINE",
"270 341 LINE",
"270 35 LINE"
);
},
{
closed = 0;
nodes = (
"475 663 LINE",
"270 341 LINE"
);
}
);
width = 600;
}
);
unicode = 0059;
},
{
color = 3;
glyphname = Z;
lastChange = "2018-11-21 16:46:03 +0000";
layers = (
{
layerId = "E2083702-67E7-471D-AE09-DB685EF5235E";
paths = (
{
closed = 1;
nodes = (
"530 0 LINE SMOOTH",
"549 0 OFFCURVE",
"565 16 OFFCURVE",
"565 35 CURVE SMOOTH",
"565 54 OFFCURVE",
"549 70 OFFCURVE",
"530 70 CURVE SMOOTH",
"121 70 LINE",
"541 621 LINE SMOOTH",
"552 637 OFFCURVE",
"554 652 OFFCURVE",
"545 669 CURVE SMOOTH",
"543 674 LINE SMOOTH",
"534 692 OFFCURVE",
"521 700 OFFCURVE",
"501 700 CURVE SMOOTH",
"50 700 LINE SMOOTH",
"31 700 OFFCURVE",
"15 684 OFFCURVE",
"15 665 CURVE SMOOTH",
"15 646 OFFCURVE",
"31 630 OFFCURVE",
"50 630 CURVE SMOOTH",
"459 630 LINE",
"39 79 LINE SMOOTH",
"28 63 OFFCURVE",
"26 48 OFFCURVE",
"35 31 CURVE SMOOTH",
"37 26 LINE SMOOTH",
"46 8 OFFCURVE",
"59 0 OFFCURVE",
"79 0 CURVE SMOOTH"
);
}
);
width = 580;
},
{
associatedMasterId = "E2083702-67E7-471D-AE09-DB685EF5235E";
layerId = "98E33D45-E6B2-4A98-817F-922772B55828";
name = "Nov 13 18, 13:01";
paths = (
{
closed = 0;
nodes = (
"40 665 LINE",
"520 665 LINE",
"40 35 LINE",
"520 35 LINE"
);
}
);
width = 600;
}
);
unicode = 005A;
},
{
color = 3;
glyphname = a;
lastChange = "2018-11-21 14:00:18 +0000";
layers = (
{
associatedMasterId = "E2083702-67E7-471D-AE09-DB685EF5235E";
guideLines = (
{
position = "{10, 465}";
}
);
layerId = "441AC55D-FD61-4426-97C9-5D046A2C2A7D";
name = path;
paths = (
{
closed = 0;
nodes = (
"117 465 LINE",
"458 465 LINE",
"572 0 LINE"
);
},
{
closed = 1;
nodes = (
"390 0 OFFCURVE",
"505 71 OFFCURVE",
"505 155 CURVE SMOOTH",
"505 239 OFFCURVE",
"390 310 OFFCURVE",
"250 310 CURVE SMOOTH",
"110 310 OFFCURVE",
"-5 239 OFFCURVE",
"-5 155 CURVE SMOOTH",
"-5 71 OFFCURVE",
"110 0 OFFCURVE",
"250 0 CURVE SMOOTH"
);
}
);
width = 587;
},
{
associatedMasterId = "E2083702-67E7-471D-AE09-DB685EF5235E";
layerId = "F8FF1924-0357-49B5-BD40-E20E5B0D948C";
name = "Nov 20 18, 10:27";
paths = (
{
closed = 1;
nodes = (
"584 524 OFFCURVE",
"569 544 OFFCURVE",
"544 544 CURVE SMOOTH",
"82 545 LINE SMOOTH",
"57 545 OFFCURVE",
"37 525 OFFCURVE",
"37 500 CURVE SMOOTH",
"37 475 OFFCURVE",
"57 455 OFFCURVE",
"82 455 CURVE SMOOTH",
"506 455 LINE",
"520 369 LINE",
"473 395 OFFCURVE",
"406 410 OFFCURVE",
"345 410 CURVE SMOOTH",
"178 410 OFFCURVE",
"15 312 OFFCURVE",
"15 182 CURVE SMOOTH",
"15 53 OFFCURVE",
"178 -45 OFFCURVE",
"345 -45 CURVE SMOOTH",
"442 -45 OFFCURVE",
"537 -8 OFFCURVE",
"591 50 CURVE",
"603 -8 LINE SMOOTH",
"607 -29 OFFCURVE",
"625 -45 OFFCURVE",
"647 -45 CURVE SMOOTH",
"672 -45 OFFCURVE",
"692 -25 OFFCURVE",
"692 0 CURVE SMOOTH",
"692 3 OFFCURVE",
"692 7 OFFCURVE",
"691 10 CURVE SMOOTH",
"589 499 LINE"
);
},
{
closed = 1;
nodes = (
"229 45 OFFCURVE",
"105 106 OFFCURVE",
"105 182 CURVE SMOOTH",
"105 259 OFFCURVE",
"228 320 OFFCURVE",
"345 320 CURVE SMOOTH",
"458 320 OFFCURVE",
"558 262 OFFCURVE",
"558 182 CURVE SMOOTH",
"558 102 OFFCURVE",
"457 45 OFFCURVE",
"345 45 CURVE SMOOTH"
);
}
);
width = 707;
},
{
guideLines = (
{
position = "{16, 465}";
}
);
layerId = "E2083702-67E7-471D-AE09-DB685EF5235E";
paths = (
{
closed = 1;
nodes = (
"396 0 OFFCURVE",
"499 59 OFFCURVE",
"520 143 CURVE",
"555 26 LINE SMOOTH",
"559 11 OFFCURVE",
"573 0 OFFCURVE",
"589 0 CURVE SMOOTH",
"608 0 OFFCURVE",
"624 16 OFFCURVE",
"624 35 CURVE SMOOTH",
"624 39 OFFCURVE",
"623 42 OFFCURVE",
"622 46 CURVE SMOOTH",
"499 452 LINE SMOOTH",
"494 469 OFFCURVE",
"488 479 OFFCURVE",
"476 488 CURVE SMOOTH",
"464 497 OFFCURVE",
"452 500 OFFCURVE",
"435 500 CURVE SMOOTH",
"176 500 LINE SMOOTH",
"157 500 OFFCURVE",
"141 484 OFFCURVE",
"141 465 CURVE SMOOTH",
"141 446 OFFCURVE",
"157 430 OFFCURVE",
"176 430 CURVE SMOOTH",
"433 430 LINE",
"480 275 LINE",
"434 321 OFFCURVE",
"357 350 OFFCURVE",
"269 350 CURVE SMOOTH",
"127 350 OFFCURVE",
"15 274 OFFCURVE",
"15 175 CURVE SMOOTH",
"15 76 OFFCURVE",
"127 0 OFFCURVE",
"269 0 CURVE SMOOTH"
);
},
{
closed = 1;
nodes = (
"167 70 OFFCURVE",
"85 119 OFFCURVE",
"85 175 CURVE SMOOTH",
"85 231 OFFCURVE",
"167 280 OFFCURVE",
"269 280 CURVE SMOOTH",
"372 280 OFFCURVE",
"454 231 OFFCURVE",
"454 175 CURVE SMOOTH",
"454 119 OFFCURVE",
"372 70 OFFCURVE",
"269 70 CURVE SMOOTH"
);
}
);
visible = 1;
width = 639;
},
{
associatedMasterId = "E2083702-67E7-471D-AE09-DB685EF5235E";
guideLines = (
{
position = "{10, 465}";
}
);
layerId = "7829CC06-9A3C-4204-A892-2D94D4A5DB86";
name = "Nov 21 18, 14:58";
paths = (
{
closed = 0;
nodes = (
"175 465 LINE",
"458 465 LINE",
"588 35 LINE"
);
},
{
closed = 1;
nodes = (
"395 35 OFFCURVE",
"488 99 OFFCURVE",
"488 175 CURVE SMOOTH",
"488 251 OFFCURVE",
"395 315 OFFCURVE",
"268 315 CURVE SMOOTH",
"143 315 OFFCURVE",
"49 251 OFFCURVE",
"49 175 CURVE SMOOTH",
"49 99 OFFCURVE",
"143 35 OFFCURVE",
"268 35 CURVE SMOOTH"
);
}
);
width = 587;
}
);
unicode = 0061;
},
{
color = 3;
glyphname = b;
lastChange = "2018-11-21 15:07:21 +0000";
layers = (
{
layerId = "E2083702-67E7-471D-AE09-DB685EF5235E";
paths = (
{
closed = 1;
nodes = (
"69 0 OFFCURVE",
"85 16 OFFCURVE",
"85 35 CURVE SMOOTH",
"85 76 LINE",
"130 29 OFFCURVE",
"194 0 OFFCURVE",
"265 0 CURVE SMOOTH",
"404 0 OFFCURVE",
"516 111 OFFCURVE",
"516 249 CURVE SMOOTH",
"516 388 OFFCURVE",
"404 500 OFFCURVE",
"265 500 CURVE SMOOTH",
"194 500 OFFCURVE",
"130 471 OFFCURVE",
"85 423 CURVE",
"85 665 LINE SMOOTH",
"85 684 OFFCURVE",
"69 700 OFFCURVE",
"50 700 CURVE SMOOTH",
"31 700 OFFCURVE",
"15 684 OFFCURVE",
"15 665 CURVE SMOOTH",
"15 35 LINE SMOOTH",
"15 16 OFFCURVE",
"31 0 OFFCURVE",
"50 0 CURVE SMOOTH"
);
},
{
closed = 1;
nodes = (
"166 70 OFFCURVE",
"85 150 OFFCURVE",
"85 249 CURVE SMOOTH",
"85 349 OFFCURVE",
"165 430 OFFCURVE",
"265 430 CURVE SMOOTH",
"366 430 OFFCURVE",
"446 350 OFFCURVE",
"446 249 CURVE SMOOTH",
"446 150 OFFCURVE",
"365 70 OFFCURVE",
"265 70 CURVE SMOOTH"
);
}
);
width = 531;
},
{
associatedMasterId = "E2083702-67E7-471D-AE09-DB685EF5235E";
layerId = "60DB8FA5-510D-4F00-9783-72B2FEA28266";
name = path;
paths = (
{
closed = 0;
nodes = (
"20 700 LINE",
"112 700 LINE",
"112 0 LINE"
);
},
{
closed = 1;
nodes = (
"612 0 OFFCURVE",
"756 112 OFFCURVE",
"756 251 CURVE SMOOTH",
"756 388 OFFCURVE",
"612 500 OFFCURVE",
"435 500 CURVE SMOOTH",
"256 500 OFFCURVE",
"112 388 OFFCURVE",
"112 251 CURVE SMOOTH",
"112 112 OFFCURVE",
"256 0 OFFCURVE",
"435 0 CURVE SMOOTH"
);
}
);
width = 600;
},
{
associatedMasterId = "E2083702-67E7-471D-AE09-DB685EF5235E";
layerId = "D411F134-D193-4F36-8E38-BE1F2F04C544";
name = "Nov 21 18, 16:07";
paths = (
{
closed = 1;
nodes = (
"370 35 OFFCURVE",
"466 131 OFFCURVE",
"466 249 CURVE SMOOTH",
"466 369 OFFCURVE",
"370 465 OFFCURVE",
"250 465 CURVE SMOOTH",
"131 465 OFFCURVE",
"35 369 OFFCURVE",
"35 249 CURVE SMOOTH",
"35 131 OFFCURVE",
"131 35 OFFCURVE",
"250 35 CURVE SMOOTH"
);
},
{
closed = 0;
nodes = (
"35 665 LINE",
"35 35 LINE"
);
}
);
width = 600;
}
);
unicode = 0062;
},
{
color = 3;
glyphname = c;
lastChange = "2018-11-21 15:04:54 +0000";
layers = (
{
layerId = "E2083702-67E7-471D-AE09-DB685EF5235E";
paths = (
{
closed = 1;
nodes = (
"344 0 OFFCURVE",
"398 15 OFFCURVE",
"441 41 CURVE SMOOTH",
"451 47 OFFCURVE",
"458 58 OFFCURVE",
"458 71 CURVE SMOOTH",
"458 90 OFFCURVE",
"442 106 OFFCURVE",
"423 106 CURVE SMOOTH",
"416 106 OFFCURVE",
"410 104 OFFCURVE",
"404 100 CURVE SMOOTH",
"371 80 OFFCURVE",
"333 70 OFFCURVE",
"289 70 CURVE SMOOTH",
"175 70 OFFCURVE",
"85 150 OFFCURVE",
"85 250 CURVE SMOOTH",
"85 350 OFFCURVE",
"175 430 OFFCURVE",
"289 430 CURVE SMOOTH",
"333 430 OFFCURVE",
"371 420 OFFCURVE",
"404 400 CURVE SMOOTH",
"410 396 OFFCURVE",
"416 394 OFFCURVE",
"423 394 CURVE SMOOTH",
"442 394 OFFCURVE",
"458 410 OFFCURVE",
"458 429 CURVE SMOOTH",
"458 442 OFFCURVE",
"451 453 OFFCURVE",
"441 459 CURVE SMOOTH",
"398 485 OFFCURVE",
"344 500 OFFCURVE",
"289 500 CURVE SMOOTH",
"136 500 OFFCURVE",
"15 389 OFFCURVE",
"15 250 CURVE SMOOTH",
"15 111 OFFCURVE",
"136 0 OFFCURVE",
"289 0 CURVE SMOOTH"
);
}
);
width = 473;
},
{
associatedMasterId = "E2083702-67E7-471D-AE09-DB685EF5235E";
guideLines = (
{
angle = 90;
position = "{590, 0}";
}
);
layerId = "738EFDE7-0FFF-448D-9DCD-219418812E48";
name = path;
paths = (
{
closed = 0;
nodes = (
"588 459 LINE"
);
},
{
closed = 0;
nodes = (
"588 459 LINE",
"534 485 OFFCURVE",
"470 500 OFFCURVE",
"400 500 CURVE SMOOTH",
"209 500 OFFCURVE",
"54 388 OFFCURVE",
"54 251 CURVE SMOOTH",
"54 112 OFFCURVE",
"209 0 OFFCURVE",
"400 0 CURVE SMOOTH",
"470 0 OFFCURVE",
"534 15 OFFCURVE",
"588 41 CURVE"
);
},
{
closed = 0;
nodes = (
"588 41 LINE"
);
}
);
width = 600;
},
{
associatedMasterId = "E2083702-67E7-471D-AE09-DB685EF5235E";
guideLines = (
{
angle = 90;
position = "{409, 62}";
}
);
layerId = "43C59B1A-9FF7-4CC0-9569-24A82F9D5D2E";
name = "Nov 12 18, 15:10";
paths = (
{
closed = 0;
nodes = (
"452 395 LINE",
"409 438 OFFCURVE",
"347 465 OFFCURVE",
"274 465 CURVE SMOOTH",
"137 465 OFFCURVE",
"35 367 OFFCURVE",
"35 250 CURVE SMOOTH",
"35 133 OFFCURVE",
"137 35 OFFCURVE",
"274 35 CURVE SMOOTH",
"347 35 OFFCURVE",
"409 62 OFFCURVE",
"452 105 CURVE SMOOTH"
);
}
);
width = 600;
},
{
associatedMasterId = "E2083702-67E7-471D-AE09-DB685EF5235E";
guideLines = (
{
angle = 90;
position = "{726, 71}";
}
);
layerId = "4CB4EB62-4490-4593-B272-30E4E9B473C9";
name = "Nov 21 18, 16:01";
paths = (
{
closed = 0;
nodes = (
"408 429 LINE",
"371 452 OFFCURVE",
"325 465 OFFCURVE",
"274 465 CURVE SMOOTH",
"137 465 OFFCURVE",
"35 367 OFFCURVE",
"35 250 CURVE SMOOTH",
"35 133 OFFCURVE",
"137 35 OFFCURVE",
"274 35 CURVE SMOOTH",
"325 35 OFFCURVE",
"371 48 OFFCURVE",
"408 71 CURVE"
);
}
);
width = 600;
},
{
associatedMasterId = "E2083702-67E7-471D-AE09-DB685EF5235E";
guideLines = (
{
angle = 90;
position = "{726, 71}";
}
);
layerId = "2FA776F9-1311-4170-8E9F-FA0AEC51AF37";
name = "Nov 21 18, 16:02";
paths = (
{
closed = 0;
nodes = (
"468 55 LINE"
);
},
{
closed = 0;
nodes = (
"532 517 LINE"
);
},
{
closed = 0;
nodes = (
"468 445 LINE",
"429 458 OFFCURVE",
"385 465 OFFCURVE",
"338 465 CURVE SMOOTH",
"165 465 OFFCURVE",
"35 367 OFFCURVE",
"35 250 CURVE SMOOTH",
"35 133 OFFCURVE",
"165 35 OFFCURVE",
"338 35 CURVE SMOOTH",
"386 35 OFFCURVE",
"429 42 OFFCURVE",
"468 55 CURVE"
);
}
);
width = 600;
},
{
associatedMasterId = "E2083702-67E7-471D-AE09-DB685EF5235E";
guideLines = (
{
angle = 90;
position = "{741, 71}";
}
);
layerId = "54814999-DB40-43A4-8A1A-BCE03A019339";
name = "Nov 21 18, 16:04";
paths = (
{
closed = 1;
nodes = (
"403 0 OFFCURVE",
"450 7 OFFCURVE",
"493 22 CURVE SMOOTH",
"508 26 OFFCURVE",
"518 39 OFFCURVE",
"518 55 CURVE SMOOTH",
"518 74 OFFCURVE",
"502 90 OFFCURVE",
"483 90 CURVE SMOOTH",
"479 90 OFFCURVE",
"475 89 OFFCURVE",
"471 88 CURVE SMOOTH",
"435 76 OFFCURVE",
"396 70 OFFCURVE",
"353 70 CURVE SMOOTH",
"204 70 OFFCURVE",
"85 151 OFFCURVE",
"85 250 CURVE SMOOTH",
"85 349 OFFCURVE",
"204 430 OFFCURVE",
"353 430 CURVE SMOOTH",
"396 430 OFFCURVE",
"435 424 OFFCURVE",
"471 412 CURVE SMOOTH",
"475 411 OFFCURVE",
"479 410 OFFCURVE",
"483 410 CURVE SMOOTH",
"502 410 OFFCURVE",
"518 426 OFFCURVE",
"518 445 CURVE SMOOTH",
"518 461 OFFCURVE",
"508 474 OFFCURVE",
"493 478 CURVE SMOOTH",
"450 493 OFFCURVE",
"402 500 OFFCURVE",
"353 500 CURVE SMOOTH",
"165 500 OFFCURVE",
"15 391 OFFCURVE",
"15 250 CURVE SMOOTH",
"15 109 OFFCURVE",
"165 0 OFFCURVE",
"353 0 CURVE SMOOTH"
);
}
);
width = 533;
}
);
unicode = 0063;
},
{
color = 3;
glyphname = d;
lastChange = "2018-11-21 15:06:52 +0000";
layers = (
{
layerId = "E2083702-67E7-471D-AE09-DB685EF5235E";
paths = (
{
closed = 1;
nodes = (
"337 0 OFFCURVE",
"401 29 OFFCURVE",
"446 76 CURVE",
"446 35 LINE SMOOTH",
"446 16 OFFCURVE",
"462 0 OFFCURVE",
"481 0 CURVE SMOOTH",
"500 0 OFFCURVE",
"516 16 OFFCURVE",
"516 35 CURVE SMOOTH",
"516 665 LINE SMOOTH",
"516 684 OFFCURVE",
"500 700 OFFCURVE",
"481 700 CURVE SMOOTH",
"462 700 OFFCURVE",
"446 684 OFFCURVE",
"446 665 CURVE SMOOTH",
"446 423 LINE",
"401 471 OFFCURVE",
"337 500 OFFCURVE",
"266 500 CURVE SMOOTH",
"127 500 OFFCURVE",
"15 388 OFFCURVE",
"15 249 CURVE SMOOTH",
"15 111 OFFCURVE",
"127 0 OFFCURVE",
"266 0 CURVE SMOOTH"
);
},
{
closed = 1;
nodes = (
"166 70 OFFCURVE",
"85 150 OFFCURVE",
"85 249 CURVE SMOOTH",
"85 350 OFFCURVE",
"165 430 OFFCURVE",
"266 430 CURVE SMOOTH",
"366 430 OFFCURVE",
"446 349 OFFCURVE",
"446 249 CURVE SMOOTH",
"446 150 OFFCURVE",
"365 70 OFFCURVE",
"266 70 CURVE SMOOTH"
);
}
);
width = 531;
},
{
associatedMasterId = "E2083702-67E7-471D-AE09-DB685EF5235E";
layerId = "EF2FCA36-867C-4A07-B4F3-C5BEAE85D3C3";
name = path;
paths = (
{
closed = 0;
nodes = (
"572 700 LINE",
"664 700 LINE",
"664 0 LINE"
);
},
{
closed = 1;
nodes = (
"520 0 OFFCURVE",
"664 112 OFFCURVE",
"664 251 CURVE SMOOTH",
"664 388 OFFCURVE",
"520 500 OFFCURVE",
"341 500 CURVE SMOOTH",
"164 500 OFFCURVE",
"20 388 OFFCURVE",
"20 251 CURVE SMOOTH",
"20 112 OFFCURVE",
"164 0 OFFCURVE",
"341 0 CURVE SMOOTH"
);
}
);
width = 600;
},
{
associatedMasterId = "E2083702-67E7-471D-AE09-DB685EF5235E";
layerId = "C7DDCB2B-C104-43B3-B336-D44BEC517F67";
name = "Nov 21 18, 16:06";
paths = (
{
closed = 1;
nodes = (
"370 35 OFFCURVE",
"466 131 OFFCURVE",
"466 249 CURVE SMOOTH",
"466 369 OFFCURVE",
"370 465 OFFCURVE",
"251 465 CURVE SMOOTH",
"131 465 OFFCURVE",
"35 369 OFFCURVE",
"35 249 CURVE SMOOTH",
"35 131 OFFCURVE",
"131 35 OFFCURVE",
"251 35 CURVE SMOOTH"
);
},
{
closed = 0;
nodes = (
"466 665 LINE",
"466 35 LINE"
);
}
);
width = 600;
}
);
unicode = 0064;
},
{
color = 3;
glyphname = e;
lastChange = "2018-11-21 14:56:22 +0000";
layers = (
{
layerId = "E2083702-67E7-471D-AE09-DB685EF5235E";
paths = (
{
closed = 1;
nodes = (
"367 0 OFFCURVE",
"440 29 OFFCURVE",
"492 80 CURVE SMOOTH",
"498 87 OFFCURVE",
"502 95 OFFCURVE",
"502 105 CURVE SMOOTH",
"502 124 OFFCURVE",
"486 140 OFFCURVE",
"467 140 CURVE SMOOTH",
"457 140 OFFCURVE",
"449 136 OFFCURVE",
"442 130 CURVE SMOOTH",
"403 91 OFFCURVE",
"350 70 OFFCURVE",
"289 70 CURVE SMOOTH",
"188 70 OFFCURVE",
"107 132 OFFCURVE",
"89 215 CURVE",
"504 215 LINE SMOOTH",
"522 215 OFFCURVE",
"534 220 OFFCURVE",
"547 233 CURVE SMOOTH",
"559 245 OFFCURVE",
"565 257 OFFCURVE",
"563 276 CURVE SMOOTH",
"561 293 OFFCURVE",
"557 310 OFFCURVE",
"551 325 CURVE",
"544 347 OFFCURVE",
"533 368 OFFCURVE",
"520 387 CURVE SMOOTH",
"469 458 OFFCURVE",
"384 500 OFFCURVE",
"289 500 CURVE SMOOTH",
"136 500 OFFCURVE",
"15 389 OFFCURVE",
"15 250 CURVE SMOOTH",
"15 111 OFFCURVE",
"136 0 OFFCURVE",
"289 0 CURVE SMOOTH"
);
},
{
closed = 1;
nodes = (
"107 368 OFFCURVE",
"188 430 OFFCURVE",
"289 430 CURVE SMOOTH",
"362 430 OFFCURVE",
"425 400 OFFCURVE",
"462 347 CURVE SMOOTH",
"472 333 OFFCURVE",
"480 318 OFFCURVE",
"485 302 CURVE",
"486 300 LINE",
"487 295 OFFCURVE",
"489 290 OFFCURVE",
"490 285 CURVE",
"89 285 LINE"
);
}
);
width = 578;
},
{
associatedMasterId = "E2083702-67E7-471D-AE09-DB685EF5235E";
layerId = "66068E05-C79F-4D4B-857A-F3C5C9DECE3A";
name = "Nov 20 18, 09:56";
paths = (
{
closed = 0;
nodes = (
"710 219 LINE SMOOTH",
"710 114 OFFCURVE",
"578 5 OFFCURVE",
"355 0 CURVE SMOOTH",
"164 -4 OFFCURVE",
"54 112 OFFCURVE",
"54 251 CURVE SMOOTH",
"54 358 OFFCURVE",
"147 477 OFFCURVE",
"339 511 CURVE SMOOTH",
"496 539 OFFCURVE",
"654 500 OFFCURVE",
"716 350 CURVE",
"68 188 LINE"
);
}
);
width = 600;
},
{
associatedMasterId = "E2083702-67E7-471D-AE09-DB685EF5235E";
layerId = "F58303C7-845D-4617-B401-B630913E8449";
name = "Nov 21 18, 15:51";
paths = (
{
closed = 0;
nodes = (
"35 250 LINE",
"643 250 LINE",
"643 272 OFFCURVE",
"639 293 OFFCURVE",
"630 313 CURVE SMOOTH",
"622 332 OFFCURVE",
"610 350 OFFCURVE",
"595 367 CURVE SMOOTH",
"542 426 OFFCURVE",
"450 465 OFFCURVE",
"338 465 CURVE SMOOTH",
"165 465 OFFCURVE",
"35 367 OFFCURVE",
"35 250 CURVE SMOOTH",
"35 133 OFFCURVE",
"165 35 OFFCURVE",
"338 35 CURVE SMOOTH",
"431 35 OFFCURVE",
"510 62 OFFCURVE",
"565 105 CURVE SMOOTH"
);
}
);
visible = 1;
width = 729;
},
{
associatedMasterId = "E2083702-67E7-471D-AE09-DB685EF5235E";
layerId = "AC06C02B-D898-4268-A87F-38E3DE68D4EF";
name = "Nov 21 18, 15:55";
paths = (
{
closed = 0;
nodes = (
"35 250 LINE",
"514 250 LINE",
"514 272 OFFCURVE",
"511 293 OFFCURVE",
"503 313 CURVE SMOOTH",
"497 332 OFFCURVE",
"488 350 OFFCURVE",
"476 367 CURVE SMOOTH",
"434 426 OFFCURVE",
"362 465 OFFCURVE",
"274 465 CURVE SMOOTH",
"137 465 OFFCURVE",
"35 367 OFFCURVE",
"35 250 CURVE SMOOTH",
"35 133 OFFCURVE",
"137 35 OFFCURVE",
"274 35 CURVE SMOOTH",
"347 35 OFFCURVE",
"409 62 OFFCURVE",
"452 105 CURVE SMOOTH"
);
}
);
visible = 1;
width = 729;
}
);
unicode = 0065;
},
{
color = 3;
glyphname = f;
lastChange = "2018-11-21 14:49:28 +0000";
layers = (
{
layerId = "E2083702-67E7-471D-AE09-DB685EF5235E";
paths = (
{
closed = 1;
nodes = (
"267.33 -35 OFFCURVE",
"283 -19.33 OFFCURVE",
"283 0 CURVE SMOOTH",
"283 430 LINE",
"395 430 LINE SMOOTH",
"414 430 OFFCURVE",
"430 446 OFFCURVE",
"430 465 CURVE SMOOTH",
"430 484 OFFCURVE",
"414 500 OFFCURVE",
"395 500 CURVE SMOOTH",
"283 500 LINE",
"283 607.358 OFFCURVE",
"304.439 630 OFFCURVE",
"395 630 CURVE SMOOTH",
"414.33 630 OFFCURVE",
"430 645.67 OFFCURVE",
"430 665 CURVE SMOOTH",
"430 684.33 OFFCURVE",
"414.33 700 OFFCURVE",
"395 700 CURVE SMOOTH",
"262.783 700 OFFCURVE",
"213 644.751 OFFCURVE",
"213 500 CURVE",
"178 500 LINE SMOOTH",
"159 500 OFFCURVE",
"143 484 OFFCURVE",
"143 465 CURVE SMOOTH",
"143 446 OFFCURVE",
"159 430 OFFCURVE",
"178 430 CURVE SMOOTH",
"213 430 LINE",
"213 0 LINE SMOOTH",
"213 -19.33 OFFCURVE",
"228.67 -35 OFFCURVE",
"248 -35 CURVE SMOOTH"
);
}
);
width = 600;
},
{
associatedMasterId = "E2083702-67E7-471D-AE09-DB685EF5235E";
layerId = "DDA63AAA-C452-4822-B46F-6AAF757A48B0";
name = "Nov 13 18, 12:56";
paths = (
{
closed = 0;
nodes = (
"269 0 LINE",
"269 500 LINE",
"269 570 OFFCURVE",
"268 700 OFFCURVE",
"405 700 CURVE"
);
},
{
closed = 0;
nodes = (
"200 500 LINE",
"405 500 LINE"
);
}
);
width = 600;
},
{
associatedMasterId = "E2083702-67E7-471D-AE09-DB685EF5235E";
layerId = "2CC718A4-0850-4D68-B65D-19FF9BC3F946";
name = "Nov 21 18, 15:45";
paths = (
{
closed = 0;
nodes = (
"148 465 LINE",
"348 465 LINE"
);
},
{
closed = 0;
nodes = (
"395 665 LINE",
"290 665 OFFCURVE",
"248 633 OFFCURVE",
"248 500 CURVE SMOOTH",
"248 0 LINE"
);
}
);
visible = 1;
width = 600;
}
);
unicode = 0066;
},
{
color = 3;
glyphname = g;
lastChange = "2018-11-21 14:25:24 +0000";
layers = (
{
layerId = "E2083702-67E7-471D-AE09-DB685EF5235E";
paths = (
{
closed = 1;
nodes = (
"449 -200 OFFCURVE",
"549 -134 OFFCURVE",
"549 -40 CURVE SMOOTH",
"549 54 OFFCURVE",
"449 120 OFFCURVE",
"315 120 CURVE SMOOTH",
"223 120 OFFCURVE",
"154 94 OFFCURVE",
"98 67 CURVE",
"144 230 LINE",
"188 181 OFFCURVE",
"267 150 OFFCURVE",
"358 150 CURVE SMOOTH",
"501 150 OFFCURVE",
"613 225 OFFCURVE",
"613 325 CURVE SMOOTH",
"613 365 OFFCURVE",
"595 401 OFFCURVE",
"564 430 CURVE",
"643 430 LINE SMOOTH",
"662 430 OFFCURVE",
"678 446 OFFCURVE",
"678 465 CURVE SMOOTH",
"678 484 OFFCURVE",
"662 500 OFFCURVE",
"643 500 CURVE SMOOTH",
"197 500 LINE SMOOTH",
"180 500 OFFCURVE",
"168 496 OFFCURVE",
"156 487 CURVE SMOOTH",
"144 478 OFFCURVE",
"137 468 OFFCURVE",
"133 451 CURVE SMOOTH",
"17 37 LINE SMOOTH",
"12 18 OFFCURVE",
"16 4 OFFCURVE",
"31 -9 CURVE SMOOTH",
"36 -13 LINE SMOOTH",
"51 -26 OFFCURVE",
"67 -28 OFFCURVE",
"84 -18 CURVE SMOOTH",
"91 -15 LINE SMOOTH",
"153 17 OFFCURVE",
"217 50 OFFCURVE",
"315 50 CURVE SMOOTH",
"409 50 OFFCURVE",
"479 10 OFFCURVE",
"479 -40 CURVE SMOOTH",
"479 -90 OFFCURVE",
"409 -130 OFFCURVE",
"315 -130 CURVE SMOOTH",
"224 -130 OFFCURVE",
"147 -109 OFFCURVE",
"99 -70 CURVE SMOOTH",
"93 -65 OFFCURVE",
"85 -62 OFFCURVE",
"77 -62 CURVE SMOOTH",
"58 -62 OFFCURVE",
"42 -78 OFFCURVE",
"42 -97 CURVE SMOOTH",
"42 -108 OFFCURVE",
"47 -118 OFFCURVE",
"55 -125 CURVE SMOOTH",
"116 -173 OFFCURVE",
"209 -200 OFFCURVE",
"315 -200 CURVE SMOOTH"
);
},
{
closed = 1;
nodes = (
"256 220 OFFCURVE",
"174 269 OFFCURVE",
"174 325 CURVE SMOOTH",
"174 381 OFFCURVE",
"256 430 OFFCURVE",
"358 430 CURVE SMOOTH",
"461 430 OFFCURVE",
"543 381 OFFCURVE",
"543 325 CURVE SMOOTH",
"543 269 OFFCURVE",
"461 220 OFFCURVE",
"358 220 CURVE SMOOTH"
);
}
);
width = 693;
},
{
associatedMasterId = "E2083702-67E7-471D-AE09-DB685EF5235E";
layerId = "60E53571-18B2-469D-B366-638EB42405BE";
name = "Nov 21 18, 15:19";
paths = (
{
closed = 0;
nodes = (
"582 465 LINE",
"130 465 LINE",
"0 35 LINE",
"70 69 OFFCURVE",
"147 95 OFFCURVE",
"272 95 CURVE SMOOTH",
"367 95 OFFCURVE",
"471 49 OFFCURVE",
"471 -35 CURVE SMOOTH",
"471 -119 OFFCURVE",
"367 -165 OFFCURVE",
"272 -165 CURVE SMOOTH",
"151 -165 OFFCURVE",
"75 -130 OFFCURVE",
"34 -97 CURVE SMOOTH",
"16 -82 OFFCURVE",
"5 -69 OFFCURVE",
"-1 -58 CURVE SMOOTH"
);
},
{
closed = 1;
nodes = (
"439 185 OFFCURVE",
"532 249 OFFCURVE",
"532 325 CURVE SMOOTH",
"532 401 OFFCURVE",
"439 465 OFFCURVE",
"312 465 CURVE SMOOTH",
"187 465 OFFCURVE",
"93 401 OFFCURVE",
"93 325 CURVE SMOOTH",
"93 249 OFFCURVE",
"187 185 OFFCURVE",
"312 185 CURVE SMOOTH"
);
}
);
width = 600;
},
{
associatedMasterId = "E2083702-67E7-471D-AE09-DB685EF5235E";
layerId = "98F50E88-67BA-48A7-B067-B4A3EE263DDF";
name = "Nov 21 18, 15:23";
paths = (
{
closed = 0;
nodes = (
"600 465 LINE",
"130 465 LINE",
"0 0 LINE",
"70 34 OFFCURVE",
"147 85 OFFCURVE",
"272 85 CURVE SMOOTH",
"367 85 OFFCURVE",
"471 44 OFFCURVE",
"471 -40 CURVE SMOOTH",
"471 -124 OFFCURVE",
"367 -165 OFFCURVE",
"272 -165 CURVE SMOOTH",
"151 -165 OFFCURVE",
"75 -130 OFFCURVE",
"34 -97 CURVE SMOOTH"
);
},
{
closed = 1;
nodes = (
"439 185 OFFCURVE",
"532 249 OFFCURVE",
"532 325 CURVE SMOOTH",
"532 401 OFFCURVE",
"439 465 OFFCURVE",
"312 465 CURVE SMOOTH",
"187 465 OFFCURVE",
"93 401 OFFCURVE",
"93 325 CURVE SMOOTH",
"93 249 OFFCURVE",
"187 185 OFFCURVE",
"312 185 CURVE SMOOTH"
);
}
);
width = 600;
},
{
associatedMasterId = "E2083702-67E7-471D-AE09-DB685EF5235E";
layerId = "78393D8F-F2E2-4ED8-B327-59F1DCD94493";
name = "Nov 21 18, 15:24";
paths = (
{
closed = 0;
nodes = (
"600 465 LINE",
"130 465 LINE",
"0 0 LINE",
"70 34 OFFCURVE",
"147 85 OFFCURVE",
"272 85 CURVE SMOOTH",
"367 85 OFFCURVE",
"471 44 OFFCURVE",
"471 -40 CURVE SMOOTH",
"471 -124 OFFCURVE",
"367 -165 OFFCURVE",
"272 -165 CURVE SMOOTH",
"151 -165 OFFCURVE",
"75 -130 OFFCURVE",
"34 -97 CURVE SMOOTH"
);
},
{
closed = 1;
nodes = (
"442 185 OFFCURVE",
"535 249 OFFCURVE",
"535 325 CURVE SMOOTH",
"535 401 OFFCURVE",
"442 465 OFFCURVE",
"315 465 CURVE SMOOTH",
"190 465 OFFCURVE",
"96 401 OFFCURVE",
"96 325 CURVE SMOOTH",
"96 249 OFFCURVE",
"190 185 OFFCURVE",
"315 185 CURVE SMOOTH"
);
}
);
width = 600;
}
);
unicode = 0067;
},
{
color = 3;
glyphname = h;
lastChange = "2018-11-21 14:10:02 +0000";
layers = (
{
layerId = "E2083702-67E7-471D-AE09-DB685EF5235E";
paths = (
{
closed = 1;
nodes = (
"141.33 0 OFFCURVE",
"157 15.67 OFFCURVE",
"157 35 CURVE SMOOTH",
"157 343.645 LINE",
"192.072 394.532 OFFCURVE",
"255.639 430 OFFCURVE",
"313 430 CURVE SMOOTH",
"422 430 LINE SMOOTH",
"442.318 430 OFFCURVE",
"445 426.295 OFFCURVE",
"445 415 CURVE SMOOTH",
"445 35 LINE SMOOTH",
"445 15.67 OFFCURVE",
"460.67 0 OFFCURVE",
"480 0 CURVE SMOOTH",
"499.33 0 OFFCURVE",
"515 15.67 OFFCURVE",
"515 35 CURVE SMOOTH",
"515 415 LINE SMOOTH",
"515 467.546 OFFCURVE",
"479.025 500 OFFCURVE",
"422 500 CURVE SMOOTH",
"313 500 LINE SMOOTH",
"259.292 500 OFFCURVE",
"202.786 478.496 OFFCURVE",
"157 443.366 CURVE",
"157 639.696 LINE SMOOTH",
"157 657.68 OFFCURVE",
"151.938 670.062 OFFCURVE",
"139.5 682.5 CURVE SMOOTH",
"127.062 694.938 OFFCURVE",
"114.68 700 OFFCURVE",
"96.696 700 CURVE SMOOTH",
"10 700 LINE SMOOTH",
"-9.33 700 OFFCURVE",
"-25 684.33 OFFCURVE",
"-25 665 CURVE SMOOTH",
"-25 645.67 OFFCURVE",
"-9.33 630 OFFCURVE",
"10 630 CURVE SMOOTH",
"87 630 LINE",
"87 35 LINE SMOOTH",
"87 15.67 OFFCURVE",
"102.67 0 OFFCURVE",
"122 0 CURVE SMOOTH"
);
}
);
width = 600;
},
{
associatedMasterId = "E2083702-67E7-471D-AE09-DB685EF5235E";
layerId = "EFDAC659-7265-40BD-AE35-103FB483E2DF";
name = path;
paths = (
{
closed = 0;
nodes = (
"20 700 LINE",
"112 700 LINE",
"112 0 LINE"
);
},
{
closed = 0;
nodes = (
"112 404 LINE",
"112 404 OFFCURVE",
"195 500 OFFCURVE",
"462 500 CURVE SMOOTH",
"478 500 OFFCURVE",
"520 492 OFFCURVE",
"520 450 CURVE SMOOTH",
"520 0 LINE"
);
},
{
closed = 0;
nodes = (
"520 417 LINE"
);
}
);
width = 600;
},
{
associatedMasterId = "E2083702-67E7-471D-AE09-DB685EF5235E";
layerId = "3DC347E8-623B-4504-98BD-9548161EB2A4";
name = "Nov 21 18, 15:09";
paths = (
{
closed = 0;
nodes = (
"10 665 LINE",
"122 665 LINE",
"122 35 LINE"
);
},
{
closed = 0;
nodes = (
"480 35 LINE",
"480 415 LINE SMOOTH",
"480 450 OFFCURVE",
"457 465 OFFCURVE",
"422 465 CURVE",
"313 465 LINE",
"243 465 OFFCURVE",
"163 421 OFFCURVE",
"122 354 CURVE"
);
}
);
width = 600;
}
);
unicode = 0068;
},
{
color = 3;
glyphname = i;
lastChange = "2018-11-21 14:27:44 +0000";
layers = (
{
layerId = "E2083702-67E7-471D-AE09-DB685EF5235E";
paths = (
{
closed = 1;
nodes = (
"84 0 OFFCURVE",
"100 16 OFFCURVE",
"100 35 CURVE SMOOTH",
"100 465 LINE SMOOTH",
"100 484 OFFCURVE",
"84 500 OFFCURVE",
"65 500 CURVE SMOOTH",
"46 500 OFFCURVE",
"30 484 OFFCURVE",
"30 465 CURVE SMOOTH",
"30 35 LINE SMOOTH",
"30 16 OFFCURVE",
"46 0 OFFCURVE",
"65 0 CURVE SMOOTH"
);
},
{
closed = 1;
nodes = (
"93 600 OFFCURVE",
"115 623 OFFCURVE",
"115 650 CURVE SMOOTH",
"115 678 OFFCURVE",
"92 700 OFFCURVE",
"65 700 CURVE SMOOTH",
"38 700 OFFCURVE",
"15 677 OFFCURVE",
"15 650 CURVE SMOOTH",
"15 623 OFFCURVE",
"38 600 OFFCURVE",
"65 600 CURVE SMOOTH"
);
}
);
width = 130;
},
{
associatedMasterId = "E2083702-67E7-471D-AE09-DB685EF5235E";
layerId = "425CDDA3-6754-46D4-A5DF-134E56D6C5DA";
name = path;
paths = (
{
closed = 0;
nodes = (
"300 500 LINE",
"300 0 LINE"
);
}
);
width = 600;
},
{
associatedMasterId = "E2083702-67E7-471D-AE09-DB685EF5235E";
layerId = "BB68987F-433E-492C-91FA-283B145D86BD";
name = "Nov 21 18, 15:27";
paths = (
{
closed = 0;
nodes = (
"122 465 LINE",
"122 35 LINE"
);
},
{
closed = 1;
nodes = (
"130 635 OFFCURVE",
"137 642 OFFCURVE",
"137 650 CURVE SMOOTH",
"137 658 OFFCURVE",
"130 665 OFFCURVE",
"122 665 CURVE SMOOTH",
"114 665 OFFCURVE",
"107 658 OFFCURVE",
"107 650 CURVE SMOOTH",
"107 642 OFFCURVE",
"114 635 OFFCURVE",
"122 635 CURVE SMOOTH"
);
}
);
width = 180;
}
);
unicode = 0069;
},
{
color = 9;
glyphname = j;
lastChange = "2018-11-20 10:46:28 +0000";
layers = (
{
guideLines = (
{
angle = 90;
position = "{255, 500}";
}
);
layerId = "E2083702-67E7-471D-AE09-DB685EF5235E";
paths = (
{
closed = 1;
nodes = (
"229.919 -165 OFFCURVE",
"239.93 -161.111 OFFCURVE",
"247.723 -154.642 CURVE SMOOTH",
"321.781 -93.871 OFFCURVE",
"345 -49.017 OFFCURVE",
"345 40 CURVE SMOOTH",
"345 500 LINE SMOOTH",
"345 524.853 OFFCURVE",
"324.853 545 OFFCURVE",
"300 545 CURVE SMOOTH",
"275.147 545 OFFCURVE",
"255 524.853 OFFCURVE",
"255 500 CURVE SMOOTH",
"255 40 LINE SMOOTH",
"255 -21.119 OFFCURVE",
"244.198 -41.123 OFFCURVE",
"190.615 -85.081 CURVE SMOOTH",
"180.477 -93.332 OFFCURVE",
"174 -105.909 OFFCURVE",
"174 -120 CURVE SMOOTH",
"174 -144.853 OFFCURVE",
"194.147 -165 OFFCURVE",
"219 -165 CURVE SMOOTH"
);
},
{
closed = 1;
nodes = (
"255 630 OFFCURVE",
"275 610 OFFCURVE",
"300 610 CURVE SMOOTH",
"325 610 OFFCURVE",
"345 630 OFFCURVE",
"345 655 CURVE SMOOTH",
"345 680 OFFCURVE",
"325 700 OFFCURVE",
"300 700 CURVE SMOOTH",
"275 700 OFFCURVE",
"255 680 OFFCURVE",
"255 655 CURVE SMOOTH"
);
}
);
width = 600;
},
{
associatedMasterId = "E2083702-67E7-471D-AE09-DB685EF5235E";
layerId = "1769E6A0-73F0-4935-ABEB-DCAEEFB260A9";
name = path;
paths = (
{
closed = 0;
nodes = (
"300 500 LINE",
"300 40 LINE",
"300 -49 OFFCURVE",
"269 -79 OFFCURVE",
"219 -120 CURVE"
);
}
);
visible = 1;
width = 600;
}
);
unicode = 006A;
},
{
color = 3;
glyphname = k;
lastChange = "2018-11-21 15:58:54 +0000";
layers = (
{
layerId = "E2083702-67E7-471D-AE09-DB685EF5235E";
paths = (
{
closed = 1;
nodes = (
"69 0 OFFCURVE",
"85 16 OFFCURVE",
"85 35 CURVE SMOOTH",
"85 235 LINE",
"111 260 LINE",
"228 20 LINE SMOOTH",
"234 8 OFFCURVE",
"246 0 OFFCURVE",
"260 0 CURVE SMOOTH",
"279 0 OFFCURVE",
"295 16 OFFCURVE",
"295 35 CURVE SMOOTH",
"295 41 OFFCURVE",
"294 46 OFFCURVE",
"291 51 CURVE SMOOTH",
"164 312 LINE",
"296 440 LINE SMOOTH",
"303 446 OFFCURVE",
"307 455 OFFCURVE",
"307 465 CURVE SMOOTH",
"307 484 OFFCURVE",
"291 500 OFFCURVE",
"272 500 CURVE SMOOTH",
"263 500 OFFCURVE",
"254 496 OFFCURVE",
"248 490 CURVE SMOOTH",
"85 333 LINE",
"85 665 LINE SMOOTH",
"85 684 OFFCURVE",
"69 700 OFFCURVE",
"50 700 CURVE SMOOTH",
"31 700 OFFCURVE",
"15 684 OFFCURVE",
"15 665 CURVE SMOOTH",
"15 35 LINE SMOOTH",
"15 16 OFFCURVE",
"31 0 OFFCURVE",
"50 0 CURVE SMOOTH"
);
}
);
width = 322;
},
{
associatedMasterId = "E2083702-67E7-471D-AE09-DB685EF5235E";
layerId = "2279075C-0BB8-4478-BF11-DD480D1A2C6E";
name = "Nov 21 18, 16:57";
paths = (
{
closed = 0;
nodes = (
"160 35 LINE",
"160 665 LINE"
);
},
{
closed = 0;
nodes = (
"160 250 LINE",
"352 465 LINE"
);
},
{
closed = 0;
nodes = (
"352 35 LINE",
"192 286 LINE"
);
}
);
width = 600;
},
{
associatedMasterId = "E2083702-67E7-471D-AE09-DB685EF5235E";
layerId = "AEEBDDFF-C93F-4557-9B68-CB6778CA4CB8";
name = "Nov 21 18, 16:57";
paths = (
{
closed = 0;
nodes = (
"160 35 LINE",
"160 665 LINE"
);
},
{
closed = 0;
nodes = (
"160 250 LINE",
"352 465 LINE"
);
},
{
closed = 0;
nodes = (
"402 35 LINE",
"228 326 LINE"
);
}
);
width = 600;
},
{
associatedMasterId = "E2083702-67E7-471D-AE09-DB685EF5235E";
layerId = "5D4E7AE5-4C47-4AFD-A247-039F8AC3BBCF";
name = "Nov 21 18, 16:57";
paths = (
{
closed = 0;
nodes = (
"160 35 LINE",
"160 665 LINE"
);
},
{
closed = 0;
nodes = (
"350 35 LINE",
"160 250 LINE",
"350 465 LINE"
);
}
);
width = 600;
},
{
associatedMasterId = "E2083702-67E7-471D-AE09-DB685EF5235E";
layerId = "39436670-762B-453A-8962-B1B8F2DEF808";
name = "Nov 21 18, 16:58";
paths = (
{
closed = 0;
nodes = (
"160 35 LINE",
"160 665 LINE"
);
},
{
closed = 0;
nodes = (
"160 250 LINE",
"382 465 LINE"
);
},
{
closed = 0;
nodes = (
"370 35 LINE",
"232 318 LINE"
);
}
);
width = 600;
}
);
unicode = 006B;
},
{
color = 3;
glyphname = l;
lastChange = "2018-11-21 14:42:59 +0000";
layers = (
{
layerId = "E2083702-67E7-471D-AE09-DB685EF5235E";
paths = (
{
closed = 1;
nodes = (
"69 0 OFFCURVE",
"85 16 OFFCURVE",
"85 35 CURVE SMOOTH",
"85 665 LINE SMOOTH",
"85 684 OFFCURVE",
"69 700 OFFCURVE",
"50 700 CURVE SMOOTH",
"31 700 OFFCURVE",
"15 684 OFFCURVE",
"15 665 CURVE SMOOTH",
"15 35 LINE SMOOTH",
"15 16 OFFCURVE",
"31 0 OFFCURVE",
"50 0 CURVE SMOOTH"
);
}
);
width = 100;
},
{
associatedMasterId = "E2083702-67E7-471D-AE09-DB685EF5235E";
layerId = "8896AB9E-187E-4671-A1FC-AD298ED553AB";
name = path;
paths = (
{
closed = 0;
nodes = (
"300 700 LINE",
"300 0 LINE"
);
}
);
width = 600;
},
{
associatedMasterId = "E2083702-67E7-471D-AE09-DB685EF5235E";
layerId = "24E4DAD8-79D6-4339-AEA5-4400A6DAB6F7";
name = "Nov 21 18, 15:42";
paths = (
{
closed = 0;
nodes = (
"300 665 LINE",
"300 35 LINE"
);
}
);
width = 600;
}
);
unicode = 006C;
},
{
color = 3;
glyphname = m;
lastChange = "2018-11-21 14:01:32 +0000";
layers = (
{
layerId = "E2083702-67E7-471D-AE09-DB685EF5235E";
paths = (
{
closed = 1;
nodes = (
"181 0 OFFCURVE",
"197 16 OFFCURVE",
"197 35 CURVE SMOOTH",
"197 344 LINE",
"232 395 OFFCURVE",
"296 430 OFFCURVE",
"353 430 CURVE SMOOTH",
"462 430 LINE SMOOTH",
"482 430 OFFCURVE",
"485 426 OFFCURVE",
"485 415 CURVE SMOOTH",
"485 35 LINE SMOOTH",
"485 16 OFFCURVE",
"501 0 OFFCURVE",
"520 0 CURVE SMOOTH",
"539 0 OFFCURVE",
"555 16 OFFCURVE",
"555 35 CURVE SMOOTH",
"555 342 LINE",
"590 394 OFFCURVE",
"654 430 OFFCURVE",
"712 430 CURVE SMOOTH",
"821 430 LINE SMOOTH",
"841 430 OFFCURVE",
"844 426 OFFCURVE",
"844 415 CURVE SMOOTH",
"844 35 LINE SMOOTH",
"844 16 OFFCURVE",
"860 0 OFFCURVE",
"879 0 CURVE SMOOTH",
"898 0 OFFCURVE",
"914 16 OFFCURVE",
"914 35 CURVE SMOOTH",
"914 415 LINE SMOOTH",
"914 468 OFFCURVE",
"878 500 OFFCURVE",
"821 500 CURVE SMOOTH",
"712 500 LINE SMOOTH",
"657 500 OFFCURVE",
"598 477 OFFCURVE",
"552 440 CURVE",
"542 478 OFFCURVE",
"509 500 OFFCURVE",
"462 500 CURVE SMOOTH",
"353 500 LINE SMOOTH",
"299 500 OFFCURVE",
"243 478 OFFCURVE",
"197 443 CURVE",
"197 454 LINE SMOOTH",
"197 462 OFFCURVE",
"192 470 OFFCURVE",
"180 483 CURVE SMOOTH",
"167 495 OFFCURVE",
"155 500 OFFCURVE",
"137 500 CURVE SMOOTH",
"50 500 LINE SMOOTH",
"31 500 OFFCURVE",
"15 484 OFFCURVE",
"15 465 CURVE SMOOTH",
"15 446 OFFCURVE",
"31 430 OFFCURVE",
"50 430 CURVE SMOOTH",
"127 430 LINE",
"127 35 LINE SMOOTH",
"127 16 OFFCURVE",
"143 0 OFFCURVE",
"162 0 CURVE SMOOTH"
);
}
);
width = 929;
},
{
associatedMasterId = "E2083702-67E7-471D-AE09-DB685EF5235E";
layerId = "44A7E989-F62C-4171-92FF-5086EAF91FC9";
name = path;
paths = (
{
closed = 0;
nodes = (
"20 500 LINE",
"112 500 LINE",
"112 0 LINE"
);
},
{
closed = 0;
nodes = (
"112 404 LINE",
"112 404 OFFCURVE",
"195 500 OFFCURVE",
"462 500 CURVE SMOOTH",
"478 500 OFFCURVE",
"520 492 OFFCURVE",
"520 450 CURVE SMOOTH",
"520 0 LINE"
);
},
{
closed = 0;
nodes = (
"520 417 LINE"
);
},
{
closed = 0;
nodes = (
"520 404 LINE",
"520 404 OFFCURVE",
"603 500 OFFCURVE",
"870 500 CURVE SMOOTH",
"886 500 OFFCURVE",
"928 492 OFFCURVE",
"928 450 CURVE SMOOTH",
"928 0 LINE"
);
}
);
width = 932;
},
{
associatedMasterId = "E2083702-67E7-471D-AE09-DB685EF5235E";
layerId = "4B68D1D6-0456-4BEF-8C71-6792712E951B";
name = "Nov 21 18, 15:00";
paths = (
{
closed = 0;
nodes = (
"10 465 LINE",
"122 465 LINE",
"122 35 LINE"
);
},
{
closed = 0;
nodes = (
"480 35 LINE",
"480 415 LINE SMOOTH",
"480 450 OFFCURVE",
"457 465 OFFCURVE",
"422 465 CURVE",
"313 465 LINE",
"243 465 OFFCURVE",
"163 421 OFFCURVE",
"122 354 CURVE"
);
},
{
closed = 0;
nodes = (
"839 35 LINE",
"839 415 LINE SMOOTH",
"839 450 OFFCURVE",
"816 465 OFFCURVE",
"781 465 CURVE",
"672 465 LINE",
"602 465 OFFCURVE",
"522 421 OFFCURVE",
"481 354 CURVE"
);
}
);
visible = 1;
width = 932;
}
);
unicode = 006D;
},
{
color = 3;
glyphname = n;
lastChange = "2018-11-21 14:00:34 +0000";
layers = (
{
layerId = "E2083702-67E7-471D-AE09-DB685EF5235E";
paths = (
{
closed = 1;
nodes = (
"181 0 OFFCURVE",
"197 16 OFFCURVE",
"197 35 CURVE SMOOTH",
"197 344 LINE",
"232 395 OFFCURVE",
"296 430 OFFCURVE",
"353 430 CURVE SMOOTH",
"462 430 LINE SMOOTH",
"482 430 OFFCURVE",
"485 426 OFFCURVE",
"485 415 CURVE SMOOTH",
"485 35 LINE SMOOTH",
"485 16 OFFCURVE",
"501 0 OFFCURVE",
"520 0 CURVE SMOOTH",
"539 0 OFFCURVE",
"555 16 OFFCURVE",
"555 35 CURVE SMOOTH",
"555 415 LINE SMOOTH",
"555 468 OFFCURVE",
"519 500 OFFCURVE",
"462 500 CURVE SMOOTH",
"353 500 LINE SMOOTH",
"299 500 OFFCURVE",
"243 478 OFFCURVE",
"197 443 CURVE",
"197 454 LINE SMOOTH",
"197 462 OFFCURVE",
"192 470 OFFCURVE",
"180 483 CURVE SMOOTH",
"167 495 OFFCURVE",
"155 500 OFFCURVE",
"137 500 CURVE SMOOTH",
"50 500 LINE SMOOTH",
"31 500 OFFCURVE",
"15 484 OFFCURVE",
"15 465 CURVE SMOOTH",
"15 446 OFFCURVE",
"31 430 OFFCURVE",
"50 430 CURVE SMOOTH",
"127 430 LINE",
"127 35 LINE SMOOTH",
"127 16 OFFCURVE",
"143 0 OFFCURVE",
"162 0 CURVE SMOOTH"
);
}
);
width = 570;
},
{
associatedMasterId = "E2083702-67E7-471D-AE09-DB685EF5235E";
layerId = "5378D0AF-BC66-4AE5-A2DB-E0DEADFB89D8";
name = path;
paths = (
{
closed = 0;
nodes = (
"21 500 LINE",
"113 500 LINE",
"113 0 LINE"
);
},
{
closed = 0;
nodes = (
"113 404 LINE",
"113 404 OFFCURVE",
"196 500 OFFCURVE",
"463 500 CURVE SMOOTH",
"479 500 OFFCURVE",
"521 492 OFFCURVE",
"521 450 CURVE SMOOTH",
"521 0 LINE"
);
},
{
closed = 0;
nodes = (
"521 417 LINE"
);
}
);
visible = 1;
width = 600;
},
{
associatedMasterId = "E2083702-67E7-471D-AE09-DB685EF5235E";
layerId = "058C9DC4-0450-4082-8688-DEBB12EF23BF";
name = "Nov 21 18, 14:59";
paths = (
{
closed = 0;
nodes = (
"10 465 LINE",
"122 465 LINE",
"122 35 LINE"
);
},
{
closed = 0;
nodes = (
"480 35 LINE",
"480 415 LINE SMOOTH",
"480 450 OFFCURVE",
"457 465 OFFCURVE",
"422 465 CURVE",
"313 465 LINE",
"243 465 OFFCURVE",
"163 421 OFFCURVE",
"122 354 CURVE"
);
}
);
width = 600;
}
);
unicode = 006E;
},
{
color = 3;
glyphname = o;
lastChange = "2018-11-21 14:04:19 +0000";
layers = (
{
layerId = "E2083702-67E7-471D-AE09-DB685EF5235E";
paths = (
{
closed = 1;
nodes = (
"404 0 OFFCURVE",
"516 112 OFFCURVE",
"516 249 CURVE SMOOTH",
"516 388 OFFCURVE",
"404 500 OFFCURVE",
"266 500 CURVE SMOOTH",
"127 500 OFFCURVE",
"15 388 OFFCURVE",
"15 249 CURVE SMOOTH",
"15 111 OFFCURVE",
"127 0 OFFCURVE",
"266 0 CURVE SMOOTH"
);
},
{
closed = 1;
nodes = (
"166 70 OFFCURVE",
"85 150 OFFCURVE",
"85 249 CURVE SMOOTH",
"85 350 OFFCURVE",
"165 430 OFFCURVE",
"266 430 CURVE SMOOTH",
"366 430 OFFCURVE",
"446 349 OFFCURVE",
"446 249 CURVE SMOOTH",
"446 150 OFFCURVE",
"365 70 OFFCURVE",
"266 70 CURVE SMOOTH"
);
}
);
width = 531;
},
{
associatedMasterId = "E2083702-67E7-471D-AE09-DB685EF5235E";
layerId = "92FEBD09-292D-47F8-A751-004192770891";
name = path;
paths = (
{
closed = 1;
nodes = (
"590 0 OFFCURVE",
"744 112 OFFCURVE",
"744 251 CURVE SMOOTH",
"744 388 OFFCURVE",
"590 500 OFFCURVE",
"400 500 CURVE SMOOTH",
"209 500 OFFCURVE",
"54 388 OFFCURVE",
"54 251 CURVE SMOOTH",
"54 112 OFFCURVE",
"209 0 OFFCURVE",
"400 0 CURVE SMOOTH"
);
}
);
width = 600;
},
{
associatedMasterId = "E2083702-67E7-471D-AE09-DB685EF5235E";
layerId = "E0F2A5B9-11AC-4B91-9ED8-273BF78EDAC2";
name = "Nov 21 18, 15:04";
paths = (
{
closed = 1;
nodes = (
"370 35 OFFCURVE",
"466 131 OFFCURVE",
"466 249 CURVE SMOOTH",
"466 369 OFFCURVE",
"370 465 OFFCURVE",
"251 465 CURVE SMOOTH",
"131 465 OFFCURVE",
"35 369 OFFCURVE",
"35 249 CURVE SMOOTH",
"35 131 OFFCURVE",
"131 35 OFFCURVE",
"251 35 CURVE SMOOTH"
);
}
);
width = 600;
}
);
unicode = 006F;
},
{
color = 3;
glyphname = p;
lastChange = "2018-11-21 15:09:21 +0000";
layers = (
{
layerId = "E2083702-67E7-471D-AE09-DB685EF5235E";
paths = (
{
closed = 1;
nodes = (
"69 -200 OFFCURVE",
"85 -184 OFFCURVE",
"85 -165 CURVE SMOOTH",
"85 77 LINE",
"130 29 OFFCURVE",
"194 0 OFFCURVE",
"295 0 CURVE SMOOTH",
"464 0 OFFCURVE",
"576 112 OFFCURVE",
"576 251 CURVE SMOOTH",
"576 389 OFFCURVE",
"464 500 OFFCURVE",
"295 500 CURVE SMOOTH",
"194 500 OFFCURVE",
"130 471 OFFCURVE",
"85 424 CURVE",
"85 465 LINE SMOOTH",
"85 484 OFFCURVE",
"69 500 OFFCURVE",
"50 500 CURVE SMOOTH",
"31 500 OFFCURVE",
"15 484 OFFCURVE",
"15 465 CURVE SMOOTH",
"15 -165 LINE SMOOTH",
"15 -184 OFFCURVE",
"31 -200 OFFCURVE",
"50 -200 CURVE SMOOTH"
);
},
{
closed = 1;
nodes = (
"165 70 OFFCURVE",
"85 151 OFFCURVE",
"85 251 CURVE SMOOTH",
"85 350 OFFCURVE",
"166 430 OFFCURVE",
"295 430 CURVE SMOOTH",
"425 430 OFFCURVE",
"506 350 OFFCURVE",
"506 251 CURVE SMOOTH",
"506 150 OFFCURVE",
"426 70 OFFCURVE",
"295 70 CURVE SMOOTH"
);
}
);
width = 531;
},
{
associatedMasterId = "E2083702-67E7-471D-AE09-DB685EF5235E";
layerId = "B5781A85-D598-42AD-A3D0-BB78A3262FD2";
name = path;
paths = (
{
closed = 0;
nodes = (
"20 500 LINE",
"112 500 LINE",
"112 -200 LINE"
);
},
{
closed = 1;
nodes = (
"612 0 OFFCURVE",
"756 112 OFFCURVE",
"756 251 CURVE SMOOTH",
"756 388 OFFCURVE",
"612 500 OFFCURVE",
"435 500 CURVE SMOOTH",
"256 500 OFFCURVE",
"112 388 OFFCURVE",
"112 251 CURVE SMOOTH",
"112 112 OFFCURVE",
"256 0 OFFCURVE",
"435 0 CURVE SMOOTH"
);
}
);
width = 600;
},
{
associatedMasterId = "E2083702-67E7-471D-AE09-DB685EF5235E";
layerId = "C28EB538-7C33-4A2F-8993-60824F184106";
name = "path 2";
paths = (
{
closed = 0;
nodes = (
"15 500 LINE",
"380 500 LINE SMOOTH",
"565 500 OFFCURVE",
"691 415 OFFCURVE",
"691 251 CURVE SMOOTH",
"691 112 OFFCURVE",
"587 0 OFFCURVE",
"410 0 CURVE SMOOTH",
"213 0 OFFCURVE",
"107 174 OFFCURVE",
"107 363 CURVE"
);
},
{
closed = 0;
nodes = (
"107 -200 LINE",
"107 500 LINE"
);
}
);
width = 721;
},
{
associatedMasterId = "E2083702-67E7-471D-AE09-DB685EF5235E";
layerId = "0B5589CC-A2B0-4B9D-BC6D-E08D927910B9";
name = "NUDDLE 2";
paths = (
{
closed = 1;
nodes = (
"152 -245 OFFCURVE",
"172 -225 OFFCURVE",
"172 -200 CURVE SMOOTH",
"172 79 LINE",
"234 1 OFFCURVE",
"344 -45 OFFCURVE",
"450 -45 CURVE SMOOTH",
"641 -45 OFFCURVE",
"776 77 OFFCURVE",
"776 251 CURVE SMOOTH",
"776 433 OFFCURVE",
"619 545 OFFCURVE",
"400 545 CURVE SMOOTH",
"15 545 LINE SMOOTH",
"-9.853 545 OFFCURVE",
"-30 524.853 OFFCURVE",
"-30 500 CURVE SMOOTH",
"-30 475.147 OFFCURVE",
"-9.853 455 OFFCURVE",
"15 455 CURVE SMOOTH",
"82 455 LINE",
"82 -200 LINE SMOOTH",
"82 -225 OFFCURVE",
"102 -245 OFFCURVE",
"127 -245 CURVE SMOOTH"
);
},
{
closed = 1;
nodes = (
"297 45 OFFCURVE",
"172 175 OFFCURVE",
"172 363 CURVE SMOOTH",
"172 455 LINE",
"400 455 LINE SMOOTH",
"571 455 OFFCURVE",
"686 380 OFFCURVE",
"686 251 CURVE SMOOTH",
"686 128 OFFCURVE",
"592 45 OFFCURVE",
"450 45 CURVE SMOOTH"
);
}
);
width = 806;
},
{
associatedMasterId = "E2083702-67E7-471D-AE09-DB685EF5235E";
layerId = "05012E77-73F0-4293-B1AC-F182C915DC8D";
name = "Nov 21 18, 16:07";
paths = (
{
closed = 0;
nodes = (
"35 251 LINE",
"35 131 OFFCURVE",
"131 35 OFFCURVE",
"250 35 CURVE SMOOTH",
"370 35 OFFCURVE",
"466 131 OFFCURVE",
"466 251 CURVE SMOOTH",
"466 369 OFFCURVE",
"370 465 OFFCURVE",
"250 465 CURVE SMOOTH",
"-36 465 LINE"
);
},
{
closed = 0;
nodes = (
"35 465 LINE",
"35 -165 LINE"
);
}
);
width = 806;
},
{
associatedMasterId = "E2083702-67E7-471D-AE09-DB685EF5235E";
layerId = "1859863B-160C-4017-A7FF-52BD099B557C";
name = "Nov 21 18, 16:08";
paths = (
{
closed = 1;
nodes = (
"131 465 OFFCURVE",
"35 369 OFFCURVE",
"35 251 CURVE SMOOTH",
"35 131 OFFCURVE",
"131 35 OFFCURVE",
"250 35 CURVE SMOOTH",
"370 35 OFFCURVE",
"466 131 OFFCURVE",
"466 251 CURVE SMOOTH",
"466 369 OFFCURVE",
"370 465 OFFCURVE",
"250 465 CURVE SMOOTH"
);
},
{
closed = 0;
nodes = (
"35 465 LINE",
"35 -165 LINE"
);
}
);
visible = 1;
width = 806;
},
{
associatedMasterId = "E2083702-67E7-471D-AE09-DB685EF5235E";
layerId = "4021172D-3BEA-4715-97BB-994BA42CEF0D";
name = Nuddle3;
paths = (
{
closed = 1;
nodes = (
"140 -200 OFFCURVE",
"156 -184 OFFCURVE",
"156 -165 CURVE SMOOTH",
"156 77 LINE",
"201 29 OFFCURVE",
"265 0 OFFCURVE",
"336 0 CURVE SMOOTH",
"475 0 OFFCURVE",
"587 112 OFFCURVE",
"587 251 CURVE SMOOTH",
"587 389 OFFCURVE",
"475 500 OFFCURVE",
"336 500 CURVE SMOOTH",
"50 500 LINE SMOOTH",
"31 500 OFFCURVE",
"15 484 OFFCURVE",
"15 465 CURVE SMOOTH",
"15 446 OFFCURVE",
"31 430 OFFCURVE",
"50 430 CURVE SMOOTH",
"86 430 LINE",
"86 -165 LINE SMOOTH",
"86 -184 OFFCURVE",
"102 -200 OFFCURVE",
"121 -200 CURVE SMOOTH"
);
},
{
closed = 1;
nodes = (
"236 70 OFFCURVE",
"156 151 OFFCURVE",
"156 251 CURVE SMOOTH",
"156 430 LINE",
"336 430 LINE SMOOTH",
"436 430 OFFCURVE",
"517 350 OFFCURVE",
"517 251 CURVE SMOOTH",
"517 150 OFFCURVE",
"437 70 OFFCURVE",
"336 70 CURVE SMOOTH"
);
}
);
width = 602;
}
);
unicode = 0070;
},
{
color = 9;
glyphname = q;
lastChange = "2018-11-20 10:46:28 +0000";
layers = (
{
layerId = "E2083702-67E7-471D-AE09-DB685EF5235E";
paths = (
{
closed = 1;
nodes = (
"688.853 -245 OFFCURVE",
"709 -224.853 OFFCURVE",
"709 -200 CURVE SMOOTH",
"709 455 LINE",
"756 455 LINE SMOOTH",
"780.853 455 OFFCURVE",
"801 475.147 OFFCURVE",
"801 500 CURVE SMOOTH",
"801 524.853 OFFCURVE",
"780.853 545 OFFCURVE",
"756 545 CURVE SMOOTH",
"696.534 545 LINE SMOOTH",
"673.411 545 OFFCURVE",
"657.491 538.491 OFFCURVE",
"641.5 522.5 CURVE SMOOTH",
"625.509 506.509 OFFCURVE",
"619 490.589 OFFCURVE",
"619 467.466 CURVE SMOOTH",
"619 444.109 LINE",
"551.511 506.088 OFFCURVE",
"451.967 545 OFFCURVE",
"341 545 CURVE SMOOTH",
"139.4 545 OFFCURVE",
"-25 414.22 OFFCURVE",
"-25 251 CURVE SMOOTH",
"-25 86.255 OFFCURVE",
"138.833 -45 OFFCURVE",
"341 -45 CURVE SMOOTH",
"452.173 -45 OFFCURVE",
"551.605 -6.021 OFFCURVE",
"619 56.231 CURVE",
"619 -200 LINE SMOOTH",
"619 -224.853 OFFCURVE",
"639.147 -245 OFFCURVE",
"664 -245 CURVE SMOOTH"
);
},
{
closed = 1;
nodes = (
"187.742 45 OFFCURVE",
"65 138.731 OFFCURVE",
"65 251 CURVE SMOOTH",
"65 361.685 OFFCURVE",
"188.986 455 OFFCURVE",
"341 455 CURVE SMOOTH",
"494.577 455 OFFCURVE",
"619 361.989 OFFCURVE",
"619 251 CURVE SMOOTH",
"619 138.424 OFFCURVE",
"495.825 45 OFFCURVE",
"341 45 CURVE SMOOTH"
);
}
);
width = 832;
},
{
associatedMasterId = "E2083702-67E7-471D-AE09-DB685EF5235E";
layerId = "01F9A2BF-854F-4D8F-A1D9-B8216C8CE61C";
name = path;
paths = (
{
closed = 0;
nodes = (
"756 500 LINE",
"664 500 LINE",
"664 -200 LINE"
);
},
{
closed = 1;
nodes = (
"520 0 OFFCURVE",
"664 112 OFFCURVE",
"664 251 CURVE SMOOTH",
"664 388 OFFCURVE",
"520 500 OFFCURVE",
"341 500 CURVE SMOOTH",
"164 500 OFFCURVE",
"20 388 OFFCURVE",
"20 251 CURVE SMOOTH",
"20 112 OFFCURVE",
"164 0 OFFCURVE",
"341 0 CURVE SMOOTH"
);
}
);
width = 600;
}
);
unicode = 0071;
},
{
color = 3;
glyphname = r;
lastChange = "2018-11-21 14:10:50 +0000";
layers = (
{
layerId = "E2083702-67E7-471D-AE09-DB685EF5235E";
paths = (
{
closed = 1;
nodes = (
"146.33 0 OFFCURVE",
"162 15.67 OFFCURVE",
"162 35 CURVE SMOOTH",
"162 343.645 LINE",
"197.072 394.532 OFFCURVE",
"260.639 430 OFFCURVE",
"318 430 CURVE SMOOTH",
"427 430 LINE SMOOTH",
"447.318 430 OFFCURVE",
"450 426.295 OFFCURVE",
"450 415 CURVE SMOOTH",
"450 354 LINE SMOOTH",
"450 334.67 OFFCURVE",
"465.67 319 OFFCURVE",
"485 319 CURVE SMOOTH",
"504.33 319 OFFCURVE",
"520 334.67 OFFCURVE",
"520 354 CURVE SMOOTH",
"520 415 LINE SMOOTH",
"520 467.546 OFFCURVE",
"484.025 500 OFFCURVE",
"427 500 CURVE SMOOTH",
"318 500 LINE SMOOTH",
"264.292 500 OFFCURVE",
"207.786 478.496 OFFCURVE",
"162 443.366 CURVE",
"162 454.183 LINE SMOOTH",
"162 461.871 OFFCURVE",
"156.938 470.062 OFFCURVE",
"144.5 482.5 CURVE SMOOTH",
"132.062 494.938 OFFCURVE",
"119.68 500 OFFCURVE",
"101.696 500 CURVE SMOOTH",
"15 500 LINE SMOOTH",
"-4.33 500 OFFCURVE",
"-20 484.33 OFFCURVE",
"-20 465 CURVE SMOOTH",
"-20 445.67 OFFCURVE",
"-4.33 430 OFFCURVE",
"15 430 CURVE SMOOTH",
"92 430 LINE",
"92 35 LINE SMOOTH",
"92 15.67 OFFCURVE",
"107.67 0 OFFCURVE",
"127 0 CURVE SMOOTH"
);
}
);
width = 500;
},
{
associatedMasterId = "E2083702-67E7-471D-AE09-DB685EF5235E";
layerId = "C8C77AA6-2452-4EA2-BA87-9FDF4A1E307D";
name = path;
paths = (
{
closed = 0;
nodes = (
"20 500 LINE",
"112 500 LINE",
"112 0 LINE"
);
},
{
closed = 0;
nodes = (
"112 404 LINE",
"112 404 OFFCURVE",
"195 500 OFFCURVE",
"462 500 CURVE SMOOTH",
"478 500 OFFCURVE",
"520 492 OFFCURVE",
"520 450 CURVE SMOOTH",
"520 390 LINE"
);
},
{
closed = 0;
nodes = (
"520 417 LINE"
);
}
);
width = 600;
},
{
associatedMasterId = "E2083702-67E7-471D-AE09-DB685EF5235E";
layerId = "AE0D908A-5072-49DF-8B07-96627CA2600B";
name = "Nov 21 18, 15:10";
paths = (
{
closed = 0;
nodes = (
"10 465 LINE",
"122 465 LINE",
"122 35 LINE"
);
},
{
closed = 0;
nodes = (
"480 354 LINE",
"480 415 LINE SMOOTH",
"480 450 OFFCURVE",
"457 465 OFFCURVE",
"422 465 CURVE",
"313 465 LINE",
"243 465 OFFCURVE",
"163 421 OFFCURVE",
"122 354 CURVE"
);
}
);
width = 600;
}
);
unicode = 0072;
},
{
color = 3;
glyphname = s;
lastChange = "2018-11-21 14:09:17 +0000";
layers = (
{
guideLines = (
{
locked = 1;
position = "{40, 250}";
}
);
layerId = "E2083702-67E7-471D-AE09-DB685EF5235E";
paths = (
{
closed = 1;
nodes = (
"363 0 LINE SMOOTH",
"466 0 OFFCURVE",
"532 55 OFFCURVE",
"532 143 CURVE SMOOTH",
"532 232 OFFCURVE",
"467 285 OFFCURVE",
"363 285 CURVE SMOOTH",
"184 285 LINE SMOOTH",
"116 285 OFFCURVE",
"85 310 OFFCURVE",
"85 358 CURVE SMOOTH",
"85 404 OFFCURVE",
"118 430 OFFCURVE",
"184 430 CURVE SMOOTH",
"497 430 LINE SMOOTH",
"516 430 OFFCURVE",
"532 446 OFFCURVE",
"532 465 CURVE SMOOTH",
"532 484 OFFCURVE",
"516 500 OFFCURVE",
"497 500 CURVE SMOOTH",
"184 500 LINE SMOOTH",
"81 500 OFFCURVE",
"15 446 OFFCURVE",
"15 358 CURVE SMOOTH",
"15 269 OFFCURVE",
"80 215 OFFCURVE",
"184 215 CURVE SMOOTH",
"363 215 LINE SMOOTH",
"430 215 OFFCURVE",
"462 190 OFFCURVE",
"462 143 CURVE SMOOTH",
"462 96 OFFCURVE",
"429 70 OFFCURVE",
"363 70 CURVE SMOOTH",
"50 70 LINE SMOOTH",
"31 70 OFFCURVE",
"15 54 OFFCURVE",
"15 35 CURVE SMOOTH",
"15 16 OFFCURVE",
"31 0 OFFCURVE",
"50 0 CURVE SMOOTH"
);
}
);
width = 547;
},
{
associatedMasterId = "E2083702-67E7-471D-AE09-DB685EF5235E";
guideLines = (
{
locked = 1;
position = "{-50, 250}";
}
);
layerId = "1A06E017-4FC1-42A8-A4AA-D422D6BDFA8E";
name = path;
paths = (
{
closed = 0;
nodes = (
"20 0 LINE",
"364 0 LINE SMOOTH",
"484 0 OFFCURVE",
"520 57 OFFCURVE",
"520 125 CURVE SMOOTH",
"520 195 OFFCURVE",
"484 250 OFFCURVE",
"364 250 CURVE",
"156 250 LINE SMOOTH",
"46 250 OFFCURVE",
"0 305 OFFCURVE",
"0 375 CURVE SMOOTH",
"0 443 OFFCURVE",
"46 500 OFFCURVE",
"156 500 CURVE SMOOTH",
"500 500 LINE"
);
}
);
width = 600;
},
{
associatedMasterId = "E2083702-67E7-471D-AE09-DB685EF5235E";
guideLines = (
{
locked = 1;
position = "{-50, 250}";
}
);
layerId = "A785FA6C-6895-4DE9-8086-4A36EAB319A5";
name = "Nov 21 18, 15:07";
paths = (
{
closed = 0;
nodes = (
"35 35 LINE",
"348 35 LINE SMOOTH",
"443 35 OFFCURVE",
"482 84 OFFCURVE",
"482 143 CURVE SMOOTH",
"482 203 OFFCURVE",
"443 250 OFFCURVE",
"348 250 CURVE",
"169 250 LINE SMOOTH",
"74 250 OFFCURVE",
"35 297 OFFCURVE",
"35 358 CURVE SMOOTH",
"35 416 OFFCURVE",
"74 465 OFFCURVE",
"169 465 CURVE SMOOTH",
"482 465 LINE"
);
}
);
width = 600;
}
);
unicode = 0073;
},
{
color = 3;
glyphname = t;
lastChange = "2018-11-21 14:12:18 +0000";
layers = (
{
layerId = "E2083702-67E7-471D-AE09-DB685EF5235E";
paths = (
{
closed = 1;
nodes = (
"169 -35 OFFCURVE",
"185 -19 OFFCURVE",
"185 0 CURVE SMOOTH",
"185 430 LINE",
"250 430 LINE SMOOTH",
"269 430 OFFCURVE",
"285 446 OFFCURVE",
"285 465 CURVE SMOOTH",
"285 484 OFFCURVE",
"269 500 OFFCURVE",
"250 500 CURVE SMOOTH",
"185 500 LINE",
"185 665 LINE SMOOTH",
"185 684 OFFCURVE",
"169 700 OFFCURVE",
"150 700 CURVE SMOOTH",
"131 700 OFFCURVE",
"115 684 OFFCURVE",
"115 665 CURVE SMOOTH",
"115 500 LINE",
"50 500 LINE SMOOTH",
"31 500 OFFCURVE",
"15 484 OFFCURVE",
"15 465 CURVE SMOOTH",
"15 446 OFFCURVE",
"31 430 OFFCURVE",
"50 430 CURVE SMOOTH",
"115 430 LINE",
"115 0 LINE SMOOTH",
"115 -19 OFFCURVE",
"131 -35 OFFCURVE",
"150 -35 CURVE SMOOTH"
);
}
);
width = 300;
},
{
associatedMasterId = "E2083702-67E7-471D-AE09-DB685EF5235E";
layerId = "201F9C78-BD20-459E-9FA4-E1A1782FEB86";
name = path;
paths = (
{
closed = 0;
nodes = (
"250 700 LINE",
"250 0 LINE"
);
},
{
closed = 0;
nodes = (
"200 500 LINE",
"350 500 LINE"
);
}
);
width = 600;
},
{
associatedMasterId = "E2083702-67E7-471D-AE09-DB685EF5235E";
layerId = "B9DC0809-50F3-4A50-A4FD-1A732ED11CC0";
name = "Nov 21 18, 15:11";
paths = (
{
closed = 0;
nodes = (
"248 665 LINE",
"248 0 LINE"
);
},
{
closed = 0;
nodes = (
"148 465 LINE",
"348 465 LINE"
);
}
);
width = 600;
}
);
unicode = 0074;
},
{
color = 3;
glyphname = u;
lastChange = "2018-11-21 14:05:14 +0000";
layers = (
{
layerId = "E2083702-67E7-471D-AE09-DB685EF5235E";
paths = (
{
closed = 1;
nodes = (
"217 0 LINE SMOOTH",
"271 0 OFFCURVE",
"327 22 OFFCURVE",
"373 57 CURVE",
"373 46 LINE SMOOTH",
"373 38 OFFCURVE",
"378 30 OFFCURVE",
"391 18 CURVE SMOOTH",
"403 5 OFFCURVE",
"415 0 OFFCURVE",
"433 0 CURVE SMOOTH",
"520 0 LINE SMOOTH",
"539 0 OFFCURVE",
"555 16 OFFCURVE",
"555 35 CURVE SMOOTH",
"555 54 OFFCURVE",
"539 70 OFFCURVE",
"520 70 CURVE SMOOTH",
"443 70 LINE",
"443 465 LINE SMOOTH",
"443 484 OFFCURVE",
"427 500 OFFCURVE",
"408 500 CURVE SMOOTH",
"389 500 OFFCURVE",
"373 484 OFFCURVE",
"373 465 CURVE SMOOTH",
"373 156 LINE",
"338 105 OFFCURVE",
"274 70 OFFCURVE",
"217 70 CURVE SMOOTH",
"108 70 LINE SMOOTH",
"88 70 OFFCURVE",
"85 74 OFFCURVE",
"85 85 CURVE SMOOTH",
"85 465 LINE SMOOTH",
"85 484 OFFCURVE",
"69 500 OFFCURVE",
"50 500 CURVE SMOOTH",
"31 500 OFFCURVE",
"15 484 OFFCURVE",
"15 465 CURVE SMOOTH",
"15 85 LINE SMOOTH",
"15 32 OFFCURVE",
"51 0 OFFCURVE",
"108 0 CURVE SMOOTH"
);
}
);
width = 570;
},
{
associatedMasterId = "E2083702-67E7-471D-AE09-DB685EF5235E";
layerId = "1B6F7660-4901-4BEF-A70E-C110ACAF9F9C";
name = path;
paths = (
{
closed = 0;
nodes = (
"468 500 LINE",
"468 0 LINE",
"560 0 LINE"
);
},
{
closed = 0;
nodes = (
"60 500 LINE",
"60 50 LINE SMOOTH",
"60 8 OFFCURVE",
"102 0 OFFCURVE",
"118 0 CURVE SMOOTH",
"385 0 OFFCURVE",
"468 96 OFFCURVE",
"468 96 CURVE"
);
},
{
closed = 0;
nodes = (
"408 83 LINE"
);
}
);
visible = 1;
width = 600;
},
{
associatedMasterId = "E2083702-67E7-471D-AE09-DB685EF5235E";
layerId = "05FD5D0A-9D56-4805-9CCD-1F3F406A9EAB";
name = "Nov 21 18, 15:04";
paths = (
{
closed = 0;
nodes = (
"505 35 LINE",
"393 35 LINE",
"393 465 LINE"
);
},
{
closed = 0;
nodes = (
"35 465 LINE",
"35 85 LINE SMOOTH",
"35 50 OFFCURVE",
"58 35 OFFCURVE",
"93 35 CURVE",
"202 35 LINE",
"272 35 OFFCURVE",
"352 79 OFFCURVE",
"393 146 CURVE"
);
}
);
width = 600;
}
);
unicode = 0075;
},
{
color = 3;
glyphname = v;
lastChange = "2018-11-21 15:44:48 +0000";
layers = (
{
layerId = "E2083702-67E7-471D-AE09-DB685EF5235E";
paths = (
{
closed = 1;
nodes = (
"283 18 LINE SMOOTH",
"302 18 OFFCURVE",
"315 26 OFFCURVE",
"324 43 CURVE SMOOTH",
"541 448 LINE SMOOTH",
"543 453 OFFCURVE",
"545 459 OFFCURVE",
"545 465 CURVE SMOOTH",
"545 484 OFFCURVE",
"529 500 OFFCURVE",
"510 500 CURVE SMOOTH",
"496 500 OFFCURVE",
"485 492 OFFCURVE",
"479 481 CURVE SMOOTH",
"280 109 LINE",
"81 481 LINE SMOOTH",
"75 492 OFFCURVE",
"64 500 OFFCURVE",
"50 500 CURVE SMOOTH",
"31 500 OFFCURVE",
"15 484 OFFCURVE",
"15 465 CURVE SMOOTH",
"15 459 OFFCURVE",
"17 453 OFFCURVE",
"19 448 CURVE SMOOTH",
"236 43 LINE SMOOTH",
"245 26 OFFCURVE",
"258 18 OFFCURVE",
"277 18 CURVE SMOOTH"
);
}
);
width = 560;
},
{
associatedMasterId = "E2083702-67E7-471D-AE09-DB685EF5235E";
layerId = "FA752F03-5862-45D0-986D-4426F5172C88";
name = path;
paths = (
{
closed = 0;
nodes = (
"0 465 LINE",
"230 35 LINE",
"460 465 LINE"
);
}
);
width = 600;
}
);
unicode = 0076;
},
{
color = 3;
glyphname = w;
lastChange = "2018-11-21 15:48:19 +0000";
layers = (
{
guideLines = (
{
position = "{380, 355}";
}
);
layerId = "E2083702-67E7-471D-AE09-DB685EF5235E";
paths = (
{
closed = 1;
nodes = (
"252.611 20.335 OFFCURVE",
"265.546 28.368 OFFCURVE",
"273.994 46.391 CURVE SMOOTH",
"380 272.538 LINE",
"486.006 46.391 LINE SMOOTH",
"494.454 28.368 OFFCURVE",
"507.389 20.335 OFFCURVE",
"527.289 20.752 CURVE SMOOTH",
"533.305 20.878 LINE SMOOTH",
"553.205 21.295 OFFCURVE",
"565.792 29.862 OFFCURVE",
"573.478 48.224 CURVE SMOOTH",
"741.989 450.777 LINE SMOOTH",
"743.924 455.123 OFFCURVE",
"745 459.935 OFFCURVE",
"745 465 CURVE SMOOTH",
"745 484.33 OFFCURVE",
"729.33 500 OFFCURVE",
"710 500 CURVE SMOOTH",
"695.176 500 OFFCURVE",
"682.504 490.784 OFFCURVE",
"677.402 477.768 CURVE SMOOTH",
"528.192 121.32 LINE",
"423.891 343.828 LINE SMOOTH",
"398 398 OFFCURVE",
"402.729 369.855 OFFCURVE",
"382.946 369.855 CURVE SMOOTH",
"377.054 369.855 LINE SMOOTH",
"357.271 369.855 OFFCURVE",
"362 399 OFFCURVE",
"336.109 343.828 CURVE SMOOTH",
"231.808 121.32 LINE",
"82.598 477.768 LINE SMOOTH",
"77.496 490.783 OFFCURVE",
"64.825 500 OFFCURVE",
"50 500 CURVE SMOOTH",
"30.67 500 OFFCURVE",
"15 484.33 OFFCURVE",
"15 465 CURVE SMOOTH",
"15 459.936 OFFCURVE",
"16.076 455.123 OFFCURVE",
"18.011 450.777 CURVE SMOOTH",
"186.522 48.224 LINE SMOOTH",
"194.208 29.862 OFFCURVE",
"206.795 21.295 OFFCURVE",
"226.695 20.878 CURVE SMOOTH",
"232.711 20.752 LINE SMOOTH"
);
},
{
closed = 1;
nodes = (
"399 320 OFFCURVE",
"415 336 OFFCURVE",
"415 355 CURVE SMOOTH",
"415 374 OFFCURVE",
"399 390 OFFCURVE",
"380 390 CURVE SMOOTH",
"361 390 OFFCURVE",
"345 374 OFFCURVE",
"345 355 CURVE SMOOTH",
"345 336 OFFCURVE",
"361 320 OFFCURVE",
"380 320 CURVE SMOOTH"
);
}
);
width = 760;
},
{
associatedMasterId = "E2083702-67E7-471D-AE09-DB685EF5235E";
layerId = "1AD590A9-78F3-41CD-BF33-583A5080BD04";
name = path;
paths = (
{
closed = 0;
nodes = (
"0 500 LINE",
"230 0 LINE",
"410 410 LINE",
"590 0 LINE",
"820 500 LINE"
);
}
);
width = 600;
},
{
associatedMasterId = "E2083702-67E7-471D-AE09-DB685EF5235E";
guideLines = (
{
position = "{380, 355}";
}
);
layerId = "863F7E90-1F60-4CE1-96AD-E20572588810";
name = "Nov 21 18, 16:45";
paths = (
{
closed = 0;
nodes = (
"50 465 LINE",
"230 35 LINE",
"380 355 LINE",
"530 35 LINE",
"710 465 LINE"
);
}
);
visible = 1;
width = 600;
}
);
unicode = 0077;
},
{
color = 3;
glyphname = x;
lastChange = "2018-11-21 15:49:19 +0000";
layers = (
{
guideLines = (
{
position = "{847, 250}";
}
);
layerId = "E2083702-67E7-471D-AE09-DB685EF5235E";
paths = (
{
closed = 1;
nodes = (
"60 0 OFFCURVE",
"70 5 OFFCURVE",
"76 12 CURVE SMOOTH",
"243 198 LINE",
"409 12 LINE SMOOTH",
"415 5 OFFCURVE",
"425 0 OFFCURVE",
"435 0 CURVE SMOOTH",
"454 0 OFFCURVE",
"470 16 OFFCURVE",
"470 35 CURVE SMOOTH",
"470 44 OFFCURVE",
"467 52 OFFCURVE",
"461 58 CURVE SMOOTH",
"289 250 LINE",
"461 442 LINE SMOOTH",
"467 448 OFFCURVE",
"470 456 OFFCURVE",
"470 465 CURVE SMOOTH",
"470 484 OFFCURVE",
"454 500 OFFCURVE",
"435 500 CURVE SMOOTH",
"425 500 OFFCURVE",
"415 495 OFFCURVE",
"409 488 CURVE SMOOTH",
"243 302 LINE",
"76 488 LINE SMOOTH",
"70 495 OFFCURVE",
"60 500 OFFCURVE",
"50 500 CURVE SMOOTH",
"31 500 OFFCURVE",
"15 484 OFFCURVE",
"15 465 CURVE SMOOTH",
"15 456 OFFCURVE",
"18 448 OFFCURVE",
"24 442 CURVE SMOOTH",
"196 250 LINE",
"24 58 LINE SMOOTH",
"18 52 OFFCURVE",
"15 44 OFFCURVE",
"15 35 CURVE SMOOTH",
"15 16 OFFCURVE",
"31 0 OFFCURVE",
"50 0 CURVE SMOOTH"
);
}
);
width = 485;
},
{
associatedMasterId = "E2083702-67E7-471D-AE09-DB685EF5235E";
guideLines = (
{
position = "{883, 250}";
}
);
layerId = "BC30D9DE-2C80-4204-A1F8-F4BA9D0E1B27";
name = path;
paths = (
{
closed = 0;
nodes = (
"117 501 LINE",
"465 0 LINE"
);
},
{
closed = 0;
nodes = (
"465 501 LINE",
"117 0 LINE"
);
}
);
width = 600;
},
{
associatedMasterId = "E2083702-67E7-471D-AE09-DB685EF5235E";
guideLines = (
{
position = "{883, 250}";
}
);
layerId = "BE0601A7-933C-4614-96EA-124E3441AF34";
name = "Nov 21 18, 16:48";
paths = (
{
closed = 0;
nodes = (
"86 465 LINE",
"471 35 LINE"
);
},
{
closed = 0;
nodes = (
"471 465 LINE",
"86 35 LINE"
);
}
);
width = 600;
}
);
unicode = 0078;
},
{
color = 3;
glyphname = y;
lastChange = "2018-11-21 14:15:40 +0000";
layers = (
{
layerId = "E2083702-67E7-471D-AE09-DB685EF5235E";
paths = (
{
closed = 1;
nodes = (
"383 -235 LINE SMOOTH",
"401 -235 OFFCURVE",
"413 -230 OFFCURVE",
"426 -218 CURVE SMOOTH",
"438 -205 OFFCURVE",
"443 -193 OFFCURVE",
"443 -175 CURVE SMOOTH",
"443 465 LINE SMOOTH",
"443 484 OFFCURVE",
"427 500 OFFCURVE",
"408 500 CURVE SMOOTH",
"389 500 OFFCURVE",
"373 484 OFFCURVE",
"373 465 CURVE SMOOTH",
"373 156 LINE",
"338 105 OFFCURVE",
"274 70 OFFCURVE",
"217 70 CURVE SMOOTH",
"108 70 LINE SMOOTH",
"88 70 OFFCURVE",
"85 74 OFFCURVE",
"85 85 CURVE SMOOTH",
"85 465 LINE SMOOTH",
"85 484 OFFCURVE",
"69 500 OFFCURVE",
"50 500 CURVE SMOOTH",
"31 500 OFFCURVE",
"15 484 OFFCURVE",
"15 465 CURVE SMOOTH",
"15 85 LINE SMOOTH",
"15 32 OFFCURVE",
"51 0 OFFCURVE",
"108 0 CURVE SMOOTH",
"217 0 LINE SMOOTH",
"271 0 OFFCURVE",
"327 22 OFFCURVE",
"373 57 CURVE",
"373 -165 LINE",
"108 -165 LINE SMOOTH",
"89 -165 OFFCURVE",
"73 -181 OFFCURVE",
"73 -200 CURVE SMOOTH",
"73 -219 OFFCURVE",
"89 -235 OFFCURVE",
"108 -235 CURVE SMOOTH"
);
}
);
width = 458;
},
{
associatedMasterId = "E2083702-67E7-471D-AE09-DB685EF5235E";
layerId = "2F9DA966-10E4-4A9C-B0DE-F6260ECCBEE0";
name = "Nov 21 18, 15:15";
paths = (
{
closed = 0;
nodes = (
"93 -200 LINE",
"393 -200 LINE",
"393 465 LINE"
);
},
{
closed = 0;
nodes = (
"35 465 LINE",
"35 85 LINE SMOOTH",
"35 50 OFFCURVE",
"58 35 OFFCURVE",
"93 35 CURVE",
"202 35 LINE",
"272 35 OFFCURVE",
"352 79 OFFCURVE",
"393 146 CURVE"
);
}
);
width = 600;
}
);
unicode = 0079;
},
{
color = 3;
glyphname = z;
lastChange = "2018-11-21 15:52:15 +0000";
layers = (
{
layerId = "E2083702-67E7-471D-AE09-DB685EF5235E";
paths = (
{
closed = 1;
nodes = (
"488 0 LINE SMOOTH",
"507 0 OFFCURVE",
"523 16 OFFCURVE",
"523 35 CURVE SMOOTH",
"523 54 OFFCURVE",
"507 70 OFFCURVE",
"488 70 CURVE SMOOTH",
"136 70 LINE",
"492 419 LINE SMOOTH",
"506 434 OFFCURVE",
"509 449 OFFCURVE",
"501 467 CURVE SMOOTH",
"499 473 LINE SMOOTH",
"492 491 OFFCURVE",
"479 500 OFFCURVE",
"459 500 CURVE SMOOTH",
"50 500 LINE SMOOTH",
"31 500 OFFCURVE",
"15 484 OFFCURVE",
"15 465 CURVE SMOOTH",
"15 446 OFFCURVE",
"31 430 OFFCURVE",
"50 430 CURVE SMOOTH",
"402 430 LINE",
"46 81 LINE SMOOTH",
"32 66 OFFCURVE",
"29 51 OFFCURVE",
"37 33 CURVE SMOOTH",
"39 27 LINE SMOOTH",
"46 9 OFFCURVE",
"59 0 OFFCURVE",
"79 0 CURVE SMOOTH"
);
}
);
width = 538;
},
{
associatedMasterId = "E2083702-67E7-471D-AE09-DB685EF5235E";
layerId = "823CD064-89A4-43D5-AAE1-3D03679D8805";
name = path;
paths = (
{
closed = 0;
nodes = (
"0 500 LINE",
"480 500 LINE",
"0 0 LINE",
"480 0 LINE"
);
}
);
width = 600;
},
{
associatedMasterId = "E2083702-67E7-471D-AE09-DB685EF5235E";
layerId = "3CE0C99F-120B-4404-963B-1E4D4210F340";
name = "Nov 21 18, 16:51";
paths = (
{
closed = 0;
nodes = (
"0 465 LINE",
"438 465 LINE",
"0 35 LINE",
"438 35 LINE"
);
}
);
width = 600;
}
);
unicode = 007A;
},
{
color = 3;
glyphname = a.alt1;
lastChange = "2018-11-21 14:50:47 +0000";
layers = (
{
layerId = "E2083702-67E7-471D-AE09-DB685EF5235E";
paths = (
{
closed = 1;
nodes = (
"566 0 OFFCURVE",
"712 80 OFFCURVE",
"750 193 CURVE",
"800 26 LINE SMOOTH",
"804 11 OFFCURVE",
"818 0 OFFCURVE",
"834 0 CURVE SMOOTH",
"853 0 OFFCURVE",
"869 16 OFFCURVE",
"869 35 CURVE SMOOTH",
"869 39 OFFCURVE",
"868 42 OFFCURVE",
"867 46 CURVE SMOOTH",
"738 474 LINE SMOOTH",
"734 489 OFFCURVE",
"720 500 OFFCURVE",
"704 500 CURVE SMOOTH",
"685 500 OFFCURVE",
"669 484 OFFCURVE",
"669 465 CURVE SMOOTH",
"669 461 OFFCURVE",
"670 458 OFFCURVE",
"671 454 CURVE SMOOTH",
"687 400 LINE",
"620 461 OFFCURVE",
"511 500 OFFCURVE",
"386 500 CURVE SMOOTH",
"179 500 OFFCURVE",
"15 391 OFFCURVE",
"15 250 CURVE SMOOTH",
"15 109 OFFCURVE",
"179 0 OFFCURVE",
"386 0 CURVE SMOOTH"
);
},
{
closed = 1;
nodes = (
"218 70 OFFCURVE",
"85 152 OFFCURVE",
"85 250 CURVE SMOOTH",
"85 348 OFFCURVE",
"218 430 OFFCURVE",
"386 430 CURVE SMOOTH",
"556 430 OFFCURVE",
"689 348 OFFCURVE",
"689 250 CURVE SMOOTH",
"689 152 OFFCURVE",
"556 70 OFFCURVE",
"386 70 CURVE SMOOTH"
);
}
);
width = 884;
},
{
associatedMasterId = "E2083702-67E7-471D-AE09-DB685EF5235E";
layerId = "312019C3-FB83-4CE7-ADD9-D6290D7BE48A";
name = path;
paths = (
{
closed = 0;
nodes = (
"705 500 LINE",
"794 0 LINE"
);
},
{
closed = 1;
nodes = (
"590 0 OFFCURVE",
"744 112 OFFCURVE",
"744 251 CURVE SMOOTH",
"744 388 OFFCURVE",
"590 500 OFFCURVE",
"400 500 CURVE SMOOTH",
"209 500 OFFCURVE",
"54 388 OFFCURVE",
"54 251 CURVE SMOOTH",
"54 112 OFFCURVE",
"209 0 OFFCURVE",
"400 0 CURVE SMOOTH"
);
}
);
width = 600;
},
{
associatedMasterId = "E2083702-67E7-471D-AE09-DB685EF5235E";
layerId = "7EB2DE72-D74F-48B9-BBF4-92FD3D42EA66";
name = "Nov 21 18, 15:50";
paths = (
{
closed = 0;
nodes = (
"572 465 LINE",
"702 35 LINE"
);
},
{
closed = 1;
nodes = (
"449 35 OFFCURVE",
"592 133 OFFCURVE",
"592 250 CURVE SMOOTH",
"592 367 OFFCURVE",
"449 465 OFFCURVE",
"254 465 CURVE SMOOTH",
"62 465 OFFCURVE",
"-82 367 OFFCURVE",
"-82 250 CURVE SMOOTH",
"-82 133 OFFCURVE",
"62 35 OFFCURVE",
"254 35 CURVE SMOOTH"
);
}
);
width = 818;
}
);
},
{
color = 3;
glyphname = g.alt1;
lastChange = "2018-11-21 14:19:17 +0000";
layers = (
{
guideLines = (
{
angle = 90;
position = "{35, 307}";
},
{
position = "{35, 50}";
}
);
layerId = "E2083702-67E7-471D-AE09-DB685EF5235E";
paths = (
{
closed = 1;
nodes = (
"380 -200 OFFCURVE",
"483 -136 OFFCURVE",
"483 -47 CURVE SMOOTH",
"483 45 OFFCURVE",
"404 93 OFFCURVE",
"260 93 CURVE SMOOTH",
"243 93 OFFCURVE",
"224 93 OFFCURVE",
"205 91 CURVE",
"266 130 LINE",
"386 135 OFFCURVE",
"483 215 OFFCURVE",
"483 315 CURVE SMOOTH",
"483 359 OFFCURVE",
"465 399 OFFCURVE",
"434 430 CURVE",
"541 430 LINE SMOOTH",
"560 430 OFFCURVE",
"576 446 OFFCURVE",
"576 465 CURVE SMOOTH",
"576 484 OFFCURVE",
"560 500 OFFCURVE",
"541 500 CURVE SMOOTH",
"256 500 LINE SMOOTH",
"126 500 OFFCURVE",
"15 416 OFFCURVE",
"15 315 CURVE SMOOTH",
"15 241 OFFCURVE",
"76 175 OFFCURVE",
"160 146 CURVE",
"58 82 LINE SMOOTH",
"40 70 OFFCURVE",
"35 55 OFFCURVE",
"43 35 CURVE SMOOTH",
"45 30 LINE SMOOTH",
"53 10 OFFCURVE",
"67 3 OFFCURVE",
"88 6 CURVE SMOOTH",
"154 18 OFFCURVE",
"212 23 OFFCURVE",
"260 23 CURVE SMOOTH",
"365 23 OFFCURVE",
"413 -1 OFFCURVE",
"413 -47 CURVE SMOOTH",
"413 -92 OFFCURVE",
"340 -130 OFFCURVE",
"243 -130 CURVE SMOOTH",
"179 -130 OFFCURVE",
"118 -114 OFFCURVE",
"69 -83 CURVE SMOOTH",
"64 -79 OFFCURVE",
"57 -77 OFFCURVE",
"50 -77 CURVE SMOOTH",
"31 -77 OFFCURVE",
"15 -93 OFFCURVE",
"15 -112 CURVE SMOOTH",
"15 -125 OFFCURVE",
"22 -136 OFFCURVE",
"32 -142 CURVE SMOOTH",
"91 -179 OFFCURVE",
"168 -200 OFFCURVE",
"243 -200 CURVE SMOOTH"
);
},
{
closed = 1;
nodes = (
"166 200 OFFCURVE",
"85 256 OFFCURVE",
"85 315 CURVE SMOOTH",
"85 374 OFFCURVE",
"165 430 OFFCURVE",
"256 430 CURVE SMOOTH",
"343 430 OFFCURVE",
"413 378 OFFCURVE",
"413 315 CURVE SMOOTH",
"413 253 OFFCURVE",
"342 200 OFFCURVE",
"256 200 CURVE SMOOTH"
);
}
);
width = 591;
},
{
associatedMasterId = "E2083702-67E7-471D-AE09-DB685EF5235E";
guideLines = (
{
angle = 90;
position = "{20, 307}";
},
{
position = "{20, 50}";
}
);
layerId = "6C6770F9-3C19-4111-B591-AEBD7F578EDF";
name = path;
paths = (
{
closed = 1;
nodes = (
"533 201 OFFCURVE",
"422 115 OFFCURVE",
"285 115 CURVE SMOOTH",
"148 115 OFFCURVE",
"20 201 OFFCURVE",
"20 307 CURVE SMOOTH",
"20 414 OFFCURVE",
"148 500 OFFCURVE",
"285 500 CURVE SMOOTH",
"422 500 OFFCURVE",
"533 414 OFFCURVE",
"533 307 CURVE SMOOTH"
);
},
{
closed = 0;
nodes = (
"600 500 LINE",
"285 500 LINE"
);
},
{
closed = 0;
nodes = (
"285 115 LINE",
"20 50 LINE",
"285 95 OFFCURVE",
"533 87 OFFCURVE",
"533 -75 CURVE SMOOTH",
"533 -200 OFFCURVE",
"285 -248 OFFCURVE",
"20 -138 CURVE SMOOTH"
);
}
);
width = 600;
},
{
associatedMasterId = "E2083702-67E7-471D-AE09-DB685EF5235E";
guideLines = (
{
angle = 90;
position = "{20, 307}";
},
{
position = "{20, 50}";
}
);
layerId = "2999F988-BFD4-4308-98DD-4EF3E4F2E25E";
name = "Nov 12 18, 13:55";
paths = (
{
closed = 1;
nodes = (
"433 233 OFFCURVE",
"347 165 OFFCURVE",
"241 165 CURVE SMOOTH",
"135 165 OFFCURVE",
"35 233 OFFCURVE",
"35 315 CURVE SMOOTH",
"35 398 OFFCURVE",
"135 465 OFFCURVE",
"241 465 CURVE SMOOTH",
"347 465 OFFCURVE",
"433 398 OFFCURVE",
"433 315 CURVE SMOOTH"
);
},
{
closed = 0;
nodes = (
"526 465 LINE",
"241 465 LINE"
);
},
{
closed = 0;
nodes = (
"241 165 LINE",
"35 35 LINE",
"287 83 OFFCURVE",
"433 58 OFFCURVE",
"433 -47 CURVE SMOOTH",
"433 -161 OFFCURVE",
"192 -211 OFFCURVE",
"35 -112 CURVE SMOOTH"
);
}
);
width = 600;
}
);
},
{
color = 3;
glyphname = i.alt1;
lastChange = "2018-11-21 14:29:45 +0000";
layers = (
{
layerId = "E2083702-67E7-471D-AE09-DB685EF5235E";
paths = (
{
closed = 1;
nodes = (
"50 500 LINE SMOOTH",
"31 500 OFFCURVE",
"15 484 OFFCURVE",
"15 465 CURVE SMOOTH",
"15 446 OFFCURVE",
"31 430 OFFCURVE",
"50 430 CURVE SMOOTH",
"127 430 LINE",
"127 35 LINE SMOOTH",
"127 16 OFFCURVE",
"143 0 OFFCURVE",
"162 0 CURVE SMOOTH",
"181 0 OFFCURVE",
"197 16 OFFCURVE",
"197 35 CURVE SMOOTH",
"197 465 LINE",
"197 465 LINE SMOOTH",
"197 484 OFFCURVE",
"181 500 OFFCURVE",
"162 500 CURVE SMOOTH"
);
},
{
closed = 1;
nodes = (
"190 600 OFFCURVE",
"212 623 OFFCURVE",
"212 650 CURVE SMOOTH",
"212 678 OFFCURVE",
"189 700 OFFCURVE",
"162 700 CURVE SMOOTH",
"135 700 OFFCURVE",
"112 677 OFFCURVE",
"112 650 CURVE SMOOTH",
"112 623 OFFCURVE",
"135 600 OFFCURVE",
"162 600 CURVE SMOOTH"
);
}
);
width = 227;
},
{
associatedMasterId = "E2083702-67E7-471D-AE09-DB685EF5235E";
layerId = "6735F20E-1E3E-4C44-BB51-1E8AB460EFD1";
name = path;
paths = (
{
closed = 0;
nodes = (
"10 465 LINE",
"122 465 LINE",
"122 35 LINE"
);
},
{
closed = 1;
nodes = (
"130 635 OFFCURVE",
"137 642 OFFCURVE",
"137 650 CURVE SMOOTH",
"137 658 OFFCURVE",
"130 665 OFFCURVE",
"122 665 CURVE SMOOTH",
"114 665 OFFCURVE",
"107 658 OFFCURVE",
"107 650 CURVE SMOOTH",
"107 642 OFFCURVE",
"114 635 OFFCURVE",
"122 635 CURVE SMOOTH"
);
}
);
width = 600;
},
{
associatedMasterId = "E2083702-67E7-471D-AE09-DB685EF5235E";
layerId = "00F82DDB-BFF1-4641-A73A-7EEB453444A0";
name = "Nov 21 18, 15:28";
paths = (
{
closed = 0;
nodes = (
"10 465 LINE",
"122 465 LINE",
"122 35 LINE"
);
},
{
closed = 1;
nodes = (
"130 635 OFFCURVE",
"137 642 OFFCURVE",
"137 650 CURVE SMOOTH",
"137 658 OFFCURVE",
"130 665 OFFCURVE",
"122 665 CURVE SMOOTH",
"114 665 OFFCURVE",
"107 658 OFFCURVE",
"107 650 CURVE SMOOTH",
"107 642 OFFCURVE",
"114 635 OFFCURVE",
"122 635 CURVE SMOOTH"
);
}
);
width = 600;
}
);
},
{
color = 3;
glyphname = j.alt1;
lastChange = "2018-11-21 14:41:58 +0000";
layers = (
{
layerId = "E2083702-67E7-471D-AE09-DB685EF5235E";
paths = (
{
closed = 1;
nodes = (
"319 -115 LINE SMOOTH",
"319 -167.546 OFFCURVE",
"283.025 -200 OFFCURVE",
"226 -200 CURVE SMOOTH",
"142.164 -200 OFFCURVE",
"51.512 -147.605 OFFCURVE",
"5.456 -72.773 CURVE SMOOTH",
"2.002 -67.348 OFFCURVE",
"0 -60.908 OFFCURVE",
"0 -54 CURVE SMOOTH",
"0 -34.67 OFFCURVE",
"15.67 -19 OFFCURVE",
"35 -19 CURVE SMOOTH",
"47.819 -19 OFFCURVE",
"59.028 -25.892 OFFCURVE",
"65.125 -36.172 CURVE SMOOTH",
"98.922 -91.026 OFFCURVE",
"165.871 -130 OFFCURVE",
"226 -130 CURVE SMOOTH",
"246.318 -130 OFFCURVE",
"249 -126.295 OFFCURVE",
"249 -115 CURVE SMOOTH",
"249 430 LINE",
"172 430 LINE SMOOTH",
"152.67 430 OFFCURVE",
"137 445.67 OFFCURVE",
"137 465 CURVE SMOOTH",
"137 484.33 OFFCURVE",
"153 500 OFFCURVE",
"172 500 CURVE SMOOTH",
"283 500 LINE",
"284 500 LINE SMOOTH",
"303 500 OFFCURVE",
"319 484 OFFCURVE",
"319 465 CURVE SMOOTH"
);
},
{
closed = 1;
nodes = (
"311.5 600 OFFCURVE",
"334 623.16 OFFCURVE",
"334 650 CURVE SMOOTH",
"334 677.5 OFFCURVE",
"310.84 700 OFFCURVE",
"284 700 CURVE SMOOTH",
"256.5 700 OFFCURVE",
"234 676.84 OFFCURVE",
"234 650 CURVE SMOOTH",
"234 622.5 OFFCURVE",
"257.16 600 OFFCURVE",
"284 600 CURVE SMOOTH"
);
}
);
width = 600;
},
{
associatedMasterId = "E2083702-67E7-471D-AE09-DB685EF5235E";
layerId = "A4AD8931-EB8F-4785-8334-AF8FCC1EFBD3";
name = path;
paths = (
{
closed = 0;
nodes = (
"172 500 LINE",
"264 500 LINE",
"264 -40 LINE",
"264 -120 OFFCURVE",
"237 -200 OFFCURVE",
"147 -200 CURVE SMOOTH",
"57 -200 OFFCURVE",
"32 -121 OFFCURVE",
"32 -41 CURVE",
"32 0 LINE"
);
}
);
width = 600;
},
{
associatedMasterId = "E2083702-67E7-471D-AE09-DB685EF5235E";
layerId = "A29F26D5-54EF-41EE-B624-A1CC46DC41FA";
name = "Nov 21 18, 15:39";
paths = (
{
closed = 0;
nodes = (
"172 465 LINE",
"284 465 LINE",
"284 -115 LINE SMOOTH",
"284 -150 OFFCURVE",
"261 -165 OFFCURVE",
"226 -165 CURVE SMOOTH",
"156 -165 OFFCURVE",
"76 -121 OFFCURVE",
"35 -54 CURVE"
);
},
{
closed = 1;
nodes = (
"292 635 OFFCURVE",
"299 642 OFFCURVE",
"299 650 CURVE SMOOTH",
"299 658 OFFCURVE",
"292 665 OFFCURVE",
"284 665 CURVE SMOOTH",
"276 665 OFFCURVE",
"269 658 OFFCURVE",
"269 650 CURVE SMOOTH",
"269 642 OFFCURVE",
"276 635 OFFCURVE",
"284 635 CURVE SMOOTH"
);
}
);
width = 600;
}
);
},
{
glyphname = k.alt1;
lastChange = "2018-11-12 12:49:01 +0000";
layers = (
{
guideLines = (
{
angle = 90;
position = "{370, 500}";
},
{
angle = 62.65;
position = "{244, 158}";
}
);
layerId = "E2083702-67E7-471D-AE09-DB685EF5235E";
paths = (
{
closed = 1;
nodes = (
"394.853 -45 OFFCURVE",
"415 -24.853 OFFCURVE",
"415 0 CURVE SMOOTH",
"415 7.304 OFFCURVE",
"413.259 14.2 OFFCURVE",
"410.172 20.299 CURVE SMOOTH",
"295.849 258.163 LINE",
"409.591 478.591 LINE SMOOTH",
"413.041 484.958 OFFCURVE",
"415 492.25 OFFCURVE",
"415 500 CURVE SMOOTH",
"415 524.853 OFFCURVE",
"394.853 545 OFFCURVE",
"370 545 CURVE SMOOTH",
"352.259 545 OFFCURVE",
"336.918 534.734 OFFCURVE",
"329.589 519.819 CURVE SMOOTH",
"157 185.344 LINE",
"157 667.466 LINE SMOOTH",
"157 690.589 OFFCURVE",
"150.491 706.509 OFFCURVE",
"134.5 722.5 CURVE SMOOTH",
"118.509 738.491 OFFCURVE",
"102.589 745 OFFCURVE",
"79.466 745 CURVE SMOOTH",
"20 745 LINE SMOOTH",
"-4.853 745 OFFCURVE",
"-25 724.853 OFFCURVE",
"-25 700 CURVE SMOOTH",
"-25 675.147 OFFCURVE",
"-4.853 655 OFFCURVE",
"20 655 CURVE SMOOTH",
"67 655 LINE",
"67 40.194 LINE SMOOTH",
"67 13.165 OFFCURVE",
"79.793 -3.106 OFFCURVE",
"106.059 -9.483 CURVE SMOOTH",
"112.931 -11.152 LINE SMOOTH",
"139.197 -17.529 OFFCURVE",
"158.027 -8.936 OFFCURVE",
"170.421 15.084 CURVE SMOOTH",
"244.149 157.969 LINE",
"329.022 -18.621 LINE SMOOTH",
"336.104 -34.181 OFFCURVE",
"351.788 -45 OFFCURVE",
"370 -45 CURVE SMOOTH"
);
},
{
closed = 1;
nodes = (
"67 0 LINE",
"67 -25 OFFCURVE",
"87 -45 OFFCURVE",
"112 -45 CURVE SMOOTH",
"137 -45 OFFCURVE",
"157 -25 OFFCURVE",
"157 0 CURVE",
"67 114 LINE"
);
},
{
closed = 1;
nodes = (
"157 700 LINE",
"157 725 OFFCURVE",
"137 745 OFFCURVE",
"112 745 CURVE",
"48 745 LINE",
"157 620 LINE"
);
}
);
width = 600;
},
{
associatedMasterId = "E2083702-67E7-471D-AE09-DB685EF5235E";
guideLines = (
{
angle = 90;
position = "{370, 500}";
}
);
layerId = "D6BDD128-9906-4D3A-8D4F-166F80C8A568";
name = path;
paths = (
{
closed = 0;
nodes = (
"370 0 LINE",
"246 258 LINE"
);
},
{
closed = 0;
nodes = (
"20 700 LINE",
"112 700 LINE",
"112 0 LINE",
"370 500 LINE"
);
}
);
visible = 1;
width = 600;
}
);
},
{
color = 1;
glyphname = l.alt1;
lastChange = "2018-10-16 12:22:06 +0000";
layers = (
{
layerId = "E2083702-67E7-471D-AE09-DB685EF5235E";
paths = (
{
closed = 1;
nodes = (
"75 745 LINE SMOOTH",
"50 745 OFFCURVE",
"30 725 OFFCURVE",
"30 700 CURVE SMOOTH",
"30 675 OFFCURVE",
"50 655 OFFCURVE",
"75 655 CURVE SMOOTH",
"122 655 LINE",
"122 0 LINE SMOOTH",
"122 -25 OFFCURVE",
"142 -45 OFFCURVE",
"167 -45 CURVE SMOOTH",
"192 -45 OFFCURVE",
"212 -25 OFFCURVE",
"212 0 CURVE SMOOTH",
"212 700 LINE SMOOTH",
"212 725 OFFCURVE",
"192 745 OFFCURVE",
"167 745 CURVE SMOOTH"
);
}
);
width = 242;
},
{
associatedMasterId = "E2083702-67E7-471D-AE09-DB685EF5235E";
layerId = "761B47CD-A5A1-4795-8E15-F817807B5704";
name = path;
paths = (
{
closed = 0;
nodes = (
"32 700 LINE",
"124 700 LINE",
"124 0 LINE"
);
}
);
width = 600;
}
);
},
{
color = 3;
glyphname = t.alt1;
lastChange = "2018-11-21 14:40:03 +0000";
layers = (
{
layerId = "E2083702-67E7-471D-AE09-DB685EF5235E";
paths = (
{
closed = 1;
nodes = (
"389.836 0 OFFCURVE",
"480.488 52.394 OFFCURVE",
"526.544 127.226 CURVE SMOOTH",
"529.998 132.651 OFFCURVE",
"532 139.092 OFFCURVE",
"532 146 CURVE SMOOTH",
"532 165.33 OFFCURVE",
"516.33 181 OFFCURVE",
"497 181 CURVE SMOOTH",
"484.181 181 OFFCURVE",
"472.972 174.109 OFFCURVE",
"466.875 163.829 CURVE SMOOTH",
"433.079 108.975 OFFCURVE",
"366.129 70 OFFCURVE",
"306 70 CURVE SMOOTH",
"285.682 70 OFFCURVE",
"283 73.705 OFFCURVE",
"283 85 CURVE SMOOTH",
"283 430 LINE",
"448 430 LINE SMOOTH",
"467.33 430 OFFCURVE",
"483 445.67 OFFCURVE",
"483 465 CURVE SMOOTH",
"483 484.33 OFFCURVE",
"467.33 500 OFFCURVE",
"448 500 CURVE SMOOTH",
"283 500 LINE",
"283 665 LINE SMOOTH",
"283 684.33 OFFCURVE",
"267.33 700 OFFCURVE",
"248 700 CURVE SMOOTH",
"228.67 700 OFFCURVE",
"213 684.33 OFFCURVE",
"213 665 CURVE SMOOTH",
"213 500 LINE",
"178 500 LINE SMOOTH",
"158.67 500 OFFCURVE",
"143 484.33 OFFCURVE",
"143 465 CURVE SMOOTH",
"143 445.67 OFFCURVE",
"158.67 430 OFFCURVE",
"178 430 CURVE SMOOTH",
"213 430 LINE",
"213 85 LINE SMOOTH",
"213 32.454 OFFCURVE",
"248.975 0 OFFCURVE",
"306 0 CURVE SMOOTH"
);
}
);
width = 600;
},
{
associatedMasterId = "E2083702-67E7-471D-AE09-DB685EF5235E";
layerId = "720B27C0-E942-4ABF-80D4-FDB20DE9D572";
name = "Nov 21 18, 15:14";
paths = (
{
closed = 0;
nodes = (
"248 665 LINE",
"248 85 LINE SMOOTH",
"248 50 OFFCURVE",
"271 35 OFFCURVE",
"306 35 CURVE SMOOTH",
"376 35 OFFCURVE",
"456 79 OFFCURVE",
"497 146 CURVE"
);
},
{
closed = 0;
nodes = (
"178 465 LINE",
"448 465 LINE"
);
}
);
width = 600;
}
);
},
{
color = 3;
glyphname = y.alt1;
lastChange = "2018-11-21 14:17:49 +0000";
layers = (
{
layerId = "E2083702-67E7-471D-AE09-DB685EF5235E";
paths = (
{
closed = 1;
nodes = (
"268.58 -200 OFFCURVE",
"292.282 -114.951 OFFCURVE",
"315.707 -53.46 CURVE SMOOTH",
"316.138 -52.264 LINE",
"487.876 452.965 LINE SMOOTH",
"489.25 456.718 OFFCURVE",
"490 460.771 OFFCURVE",
"490 465 CURVE SMOOTH",
"490 484.33 OFFCURVE",
"474.33 500 OFFCURVE",
"455 500 CURVE SMOOTH",
"439.336 500 OFFCURVE",
"426.077 489.711 OFFCURVE",
"421.61 475.522 CURVE SMOOTH",
"292.966 97.069 LINE",
"136.68 477.555 LINE SMOOTH",
"131.633 490.683 OFFCURVE",
"118.905 500 OFFCURVE",
"104 500 CURVE SMOOTH",
"84.67 500 OFFCURVE",
"69 484.33 OFFCURVE",
"69 465 CURVE SMOOTH",
"69 460.009 OFFCURVE",
"70.045 455.262 OFFCURVE",
"71.927 450.966 CURVE SMOOTH",
"258.699 -3.739 LINE",
"250.065 -29.139 LINE",
"225.653 -93.278 OFFCURVE",
"215.065 -130 OFFCURVE",
"101 -130 CURVE SMOOTH",
"81.67 -130 OFFCURVE",
"66 -145.67 OFFCURVE",
"66 -165 CURVE SMOOTH",
"66 -184.33 OFFCURVE",
"81.67 -200 OFFCURVE",
"101 -200 CURVE SMOOTH"
);
}
);
width = 600;
},
{
associatedMasterId = "E2083702-67E7-471D-AE09-DB685EF5235E";
layerId = "1F0B1C76-18A7-4D7C-8882-0A0A2BBBBC12";
name = path;
paths = (
{
closed = 0;
nodes = (
"486 500 LINE",
"293 -69 LINE",
"247 -186 OFFCURVE",
"157 -200 OFFCURVE",
"51 -200 CURVE SMOOTH"
);
},
{
closed = 0;
nodes = (
"113 500 LINE",
"314 0 LINE"
);
}
);
width = 600;
},
{
associatedMasterId = "E2083702-67E7-471D-AE09-DB685EF5235E";
layerId = "70990854-629B-45EE-B338-C7799E2F22B4";
name = "Nov 12 18, 15:02";
paths = (
{
closed = 0;
nodes = (
"455 465 LINE",
"283 -41 LINE",
"259 -104 OFFCURVE",
"242 -165 OFFCURVE",
"101 -165 CURVE SMOOTH"
);
},
{
closed = 0;
nodes = (
"104 465 LINE",
"295 0 LINE"
);
}
);
width = 600;
}
);
},
{
color = 3;
glyphname = k.alt2;
lastChange = "2018-11-21 15:55:43 +0000";
layers = (
{
layerId = "E2083702-67E7-471D-AE09-DB685EF5235E";
paths = (
{
closed = 1;
nodes = (
"55 700 LINE SMOOTH",
"36 700 OFFCURVE",
"20 684 OFFCURVE",
"20 665 CURVE SMOOTH",
"20 646 OFFCURVE",
"36 630 OFFCURVE",
"55 630 CURVE SMOOTH",
"67 630 LINE",
"67 35 LINE SMOOTH",
"67 16 OFFCURVE",
"83 0 OFFCURVE",
"102 0 CURVE SMOOTH",
"121 0 OFFCURVE",
"137 16 OFFCURVE",
"137 35 CURVE SMOOTH",
"137 89 OFFCURVE",
"148 147 OFFCURVE",
"167 202 CURVE",
"206 87 OFFCURVE",
"295 11 OFFCURVE",
"406 0 CURVE SMOOTH",
"407 0 OFFCURVE",
"409 0 OFFCURVE",
"410 0 CURVE SMOOTH",
"429 0 OFFCURVE",
"445 16 OFFCURVE",
"445 35 CURVE SMOOTH",
"445 53 OFFCURVE",
"431 68 OFFCURVE",
"413 70 CURVE SMOOTH",
"332 78 OFFCURVE",
"267 132 OFFCURVE",
"236 216 CURVE",
"405 225 OFFCURVE",
"510 286 OFFCURVE",
"510 382 CURVE SMOOTH",
"510 458 OFFCURVE",
"449 520 OFFCURVE",
"373 520 CURVE SMOOTH",
"288 520 OFFCURVE",
"197 431 OFFCURVE",
"137 312 CURVE",
"137 665 LINE SMOOTH",
"137 684 OFFCURVE",
"121 700 OFFCURVE",
"102 700 CURVE SMOOTH"
);
},
{
closed = 1;
nodes = (
"250.383 379.458 OFFCURVE",
"316.7 450 OFFCURVE",
"373 450 CURVE SMOOTH",
"410.437 450 OFFCURVE",
"440 419.395 OFFCURVE",
"440 382 CURVE SMOOTH",
"440 328.06 OFFCURVE",
"348.676 287.273 OFFCURVE",
"202.408 285.092 CURVE"
);
}
);
width = 759;
},
{
associatedMasterId = "E2083702-67E7-471D-AE09-DB685EF5235E";
layerId = "21B12486-A7F8-481F-BAF6-092AF754F723";
name = path1;
paths = (
{
closed = 0;
nodes = (
"112 700 LINE",
"112 0 LINE"
);
},
{
closed = 0;
nodes = (
"370 0 LINE",
"112 319 LINE",
"370 500 LINE"
);
}
);
width = 600;
},
{
associatedMasterId = "E2083702-67E7-471D-AE09-DB685EF5235E";
layerId = "172FA51B-6FC1-4173-A586-A1B8678CA38E";
name = path2;
paths = (
{
closed = 0;
nodes = (
"20 700 LINE",
"112 700 LINE",
"112 0 LINE"
);
},
{
closed = 0;
nodes = (
"112 285 LINE",
"370 500 LINE"
);
},
{
closed = 0;
nodes = (
"370 0 LINE",
"197 355 LINE"
);
}
);
width = 600;
},
{
associatedMasterId = "E2083702-67E7-471D-AE09-DB685EF5235E";
layerId = "6DE14EC9-87F8-43F2-98D7-580D18CB9C5F";
name = "Oct 16 18, 16:46";
paths = (
{
closed = 0;
nodes = (
"20 665 LINE",
"102 665 LINE",
"102 35 LINE",
"102 250 OFFCURVE",
"254 485 OFFCURVE",
"373 485 CURVE SMOOTH",
"438 485 OFFCURVE",
"475 430 OFFCURVE",
"475 382 CURVE SMOOTH",
"475 305 OFFCURVE",
"373 250 OFFCURVE",
"190 250 CURVE",
"218 122 OFFCURVE",
"306 45 OFFCURVE",
"410 35 CURVE"
);
}
);
width = 600;
}
);
},
{
color = 3;
glyphname = e.atl1;
lastChange = "2018-11-21 14:59:35 +0000";
layers = (
{
layerId = "E2083702-67E7-471D-AE09-DB685EF5235E";
paths = (
{
closed = 1;
nodes = (
"498 0 LINE SMOOTH",
"517 0 OFFCURVE",
"533 16 OFFCURVE",
"533 35 CURVE SMOOTH",
"533 54 OFFCURVE",
"517 70 OFFCURVE",
"498 70 CURVE SMOOTH",
"353 70 LINE SMOOTH",
"191 70 OFFCURVE",
"104 118 OFFCURVE",
"88 215 CURVE",
"633 215 LINE SMOOTH",
"651 215 OFFCURVE",
"663 220 OFFCURVE",
"676 233 CURVE SMOOTH",
"688 245 OFFCURVE",
"694 258 OFFCURVE",
"691 276 CURVE SMOOTH",
"689 294 OFFCURVE",
"684 311 OFFCURVE",
"677 327 CURVE SMOOTH",
"668 348 OFFCURVE",
"654 370 OFFCURVE",
"636 390 CURVE SMOOTH",
"575 459 OFFCURVE",
"470 500 OFFCURVE",
"353 500 CURVE SMOOTH",
"165 500 OFFCURVE",
"15 391 OFFCURVE",
"15 250 CURVE SMOOTH",
"15 87 OFFCURVE",
"136 0 OFFCURVE",
"353 0 CURVE SMOOTH"
);
},
{
closed = 1;
nodes = (
"114 367 OFFCURVE",
"222 430 OFFCURVE",
"353 430 CURVE SMOOTH",
"451 430 OFFCURVE",
"536 398 OFFCURVE",
"584 344 CURVE SMOOTH",
"597 329 OFFCURVE",
"606 314 OFFCURVE",
"613 299 CURVE SMOOTH",
"613 299 LINE SMOOTH",
"615 294 OFFCURVE",
"617 290 OFFCURVE",
"618 285 CURVE",
"90 285 LINE"
);
}
);
width = 707;
},
{
associatedMasterId = "E2083702-67E7-471D-AE09-DB685EF5235E";
layerId = "273568FD-E836-4293-8DF4-950F6108DB39";
name = "Nov 21 18, 15:58";
paths = (
{
closed = 0;
nodes = (
"62 250 LINE",
"670 250 LINE",
"670 272 OFFCURVE",
"666 293 OFFCURVE",
"657 313 CURVE SMOOTH",
"649 332 OFFCURVE",
"637 350 OFFCURVE",
"622 367 CURVE SMOOTH",
"570 426 OFFCURVE",
"477 465 OFFCURVE",
"365 465 CURVE SMOOTH",
"192 465 OFFCURVE",
"62 367 OFFCURVE",
"62 250 CURVE SMOOTH",
"62 133 OFFCURVE",
"134 35 OFFCURVE",
"365 35 CURVE",
"590 35 LINE"
);
}
);
width = 770;
}
);
},
{
glyphname = asterisk;
lastChange = "2018-11-21 15:39:26 +0000";
layers = (
{
layerId = "E2083702-67E7-471D-AE09-DB685EF5235E";
paths = (
{
closed = 1;
nodes = (
"317.33 375 OFFCURVE",
"333 390.67 OFFCURVE",
"333 410 CURVE SMOOTH",
"333 480.502 LINE",
"361.251 452.251 LINE SMOOTH",
"367.585 445.918 OFFCURVE",
"376.335 442 OFFCURVE",
"386 442 CURVE SMOOTH",
"405.33 442 OFFCURVE",
"421 457.67 OFFCURVE",
"421 477 CURVE SMOOTH",
"421 486.665 OFFCURVE",
"417.082 495.415 OFFCURVE",
"410.749 501.749 CURVE SMOOTH",
"382.498 530 LINE",
"452 530 LINE SMOOTH",
"471.33 530 OFFCURVE",
"487 545.67 OFFCURVE",
"487 565 CURVE SMOOTH",
"487 584.33 OFFCURVE",
"471.33 600 OFFCURVE",
"452 600 CURVE SMOOTH",
"382.498 600 LINE",
"410.749 628.251 LINE SMOOTH",
"417.082 634.585 OFFCURVE",
"421 643.335 OFFCURVE",
"421 653 CURVE SMOOTH",
"421 672.33 OFFCURVE",
"405.33 688 OFFCURVE",
"386 688 CURVE SMOOTH",
"376.335 688 OFFCURVE",
"367.585 684.083 OFFCURVE",
"361.251 677.749 CURVE SMOOTH",
"333 649.498 LINE",
"333 720 LINE SMOOTH",
"333 739.33 OFFCURVE",
"317.33 755 OFFCURVE",
"298 755 CURVE SMOOTH",
"278.67 755 OFFCURVE",
"263 739.33 OFFCURVE",
"263 720 CURVE SMOOTH",
"263 649.498 LINE",
"234.749 677.749 LINE SMOOTH",
"228.415 684.083 OFFCURVE",
"219.665 688 OFFCURVE",
"210 688 CURVE SMOOTH",
"190.67 688 OFFCURVE",
"175 672.33 OFFCURVE",
"175 653 CURVE SMOOTH",
"175 643.335 OFFCURVE",
"178.917 634.585 OFFCURVE",
"185.251 628.251 CURVE SMOOTH",
"213.502 600 LINE",
"144 600 LINE SMOOTH",
"124.67 600 OFFCURVE",
"109 584.33 OFFCURVE",
"109 565 CURVE SMOOTH",
"109 545.67 OFFCURVE",
"124.67 530 OFFCURVE",
"144 530 CURVE SMOOTH",
"213.502 530 LINE",
"185.251 501.749 LINE SMOOTH",
"178.917 495.415 OFFCURVE",
"175 486.665 OFFCURVE",
"175 477 CURVE SMOOTH",
"175 457.67 OFFCURVE",
"190.67 442 OFFCURVE",
"210 442 CURVE SMOOTH",
"219.665 442 OFFCURVE",
"228.415 445.918 OFFCURVE",
"234.749 452.251 CURVE SMOOTH",
"263 480.502 LINE",
"263 410 LINE SMOOTH",
"263 390.67 OFFCURVE",
"278.67 375 OFFCURVE",
"298 375 CURVE SMOOTH"
);
}
);
width = 600;
},
{
associatedMasterId = "E2083702-67E7-471D-AE09-DB685EF5235E";
layerId = "8424E9C5-2536-4DE7-A5B9-FB4652EFAB9F";
name = "Nov 21 18, 16:33";
paths = (
{
closed = 0;
nodes = (
"298 720 LINE",
"298 410 LINE"
);
},
{
closed = 0;
nodes = (
"386 477 LINE",
"210 653 LINE"
);
},
{
closed = 0;
nodes = (
"452 565 LINE",
"144 565 LINE"
);
},
{
closed = 0;
nodes = (
"210 477 LINE",
"386 653 LINE"
);
}
);
width = 600;
},
{
associatedMasterId = "E2083702-67E7-471D-AE09-DB685EF5235E";
layerId = "C8FC8BD5-42F4-41D4-8413-12DCDD920D40";
name = "Nov 21 18, 16:37";
paths = (
{
closed = 0;
nodes = (
"298 700 LINE",
"298 430 LINE"
);
},
{
closed = 0;
nodes = (
"393 660 LINE",
"203 470 LINE"
);
},
{
closed = 0;
nodes = (
"432 565 LINE",
"164 565 LINE"
);
},
{
closed = 0;
nodes = (
"393 470 LINE",
"203 660 LINE"
);
}
);
width = 600;
}
);
unicode = 002A;
},
{
glyphname = periodcentered;
lastChange = "2018-11-21 15:34:15 +0000";
layers = (
{
layerId = "E2083702-67E7-471D-AE09-DB685EF5235E";
paths = (
{
closed = 1;
nodes = (
"317.5 201 OFFCURVE",
"340 224.16 OFFCURVE",
"340 251 CURVE SMOOTH",
"340 278.5 OFFCURVE",
"316.84 301 OFFCURVE",
"290 301 CURVE SMOOTH",
"262.5 301 OFFCURVE",
"240 277.84 OFFCURVE",
"240 251 CURVE SMOOTH",
"240 223.5 OFFCURVE",
"263.16 201 OFFCURVE",
"290 201 CURVE SMOOTH"
);
}
);
width = 600;
},
{
associatedMasterId = "E2083702-67E7-471D-AE09-DB685EF5235E";
layerId = "7AD4CA93-9BD4-42F9-A668-618150A5C830";
name = "Nov 21 18, 16:34";
paths = (
{
closed = 1;
nodes = (
"298 236 OFFCURVE",
"305 243 OFFCURVE",
"305 251 CURVE SMOOTH",
"305 259 OFFCURVE",
"298 266 OFFCURVE",
"290 266 CURVE SMOOTH",
"282 266 OFFCURVE",
"275 259 OFFCURVE",
"275 251 CURVE SMOOTH",
"275 243 OFFCURVE",
"282 236 OFFCURVE",
"290 236 CURVE SMOOTH"
);
}
);
width = 600;
}
);
unicode = 00B7;
},
{
glyphname = bullet;
lastChange = "2018-11-21 15:44:13 +0000";
layers = (
{
layerId = "E2083702-67E7-471D-AE09-DB685EF5235E";
paths = (
{
closed = 1;
nodes = (
"337.335 177 OFFCURVE",
"378 217.665 OFFCURVE",
"378 265 CURVE SMOOTH",
"378 312.335 OFFCURVE",
"337.335 353 OFFCURVE",
"290 353 CURVE SMOOTH",
"242.665 353 OFFCURVE",
"202 312.335 OFFCURVE",
"202 265 CURVE SMOOTH",
"202 217.665 OFFCURVE",
"242.665 177 OFFCURVE",
"290 177 CURVE SMOOTH"
);
}
);
width = 600;
},
{
associatedMasterId = "E2083702-67E7-471D-AE09-DB685EF5235E";
layerId = "BD3B2CA4-7183-4A34-B466-E078B2E8E226";
name = "Nov 21 18, 16:44";
paths = (
{
closed = 1;
nodes = (
"298 250 OFFCURVE",
"305 257 OFFCURVE",
"305 265 CURVE SMOOTH",
"305 273 OFFCURVE",
"298 280 OFFCURVE",
"290 280 CURVE SMOOTH",
"282 280 OFFCURVE",
"275 273 OFFCURVE",
"275 265 CURVE SMOOTH",
"275 257 OFFCURVE",
"282 250 OFFCURVE",
"290 250 CURVE SMOOTH"
);
},
{
closed = 1;
nodes = (
"307 233 OFFCURVE",
"322 248 OFFCURVE",
"322 265 CURVE SMOOTH",
"322 282 OFFCURVE",
"307 297 OFFCURVE",
"290 297 CURVE SMOOTH",
"273 297 OFFCURVE",
"258 282 OFFCURVE",
"258 265 CURVE SMOOTH",
"258 248 OFFCURVE",
"273 233 OFFCURVE",
"290 233 CURVE SMOOTH"
);
},
{
closed = 1;
nodes = (
"318 212 OFFCURVE",
"343 237 OFFCURVE",
"343 265 CURVE SMOOTH",
"343 293 OFFCURVE",
"318 318 OFFCURVE",
"290 318 CURVE SMOOTH",
"262 318 OFFCURVE",
"237 293 OFFCURVE",
"237 265 CURVE SMOOTH",
"237 237 OFFCURVE",
"262 212 OFFCURVE",
"290 212 CURVE SMOOTH"
);
}
);
width = 600;
}
);
unicode = 2022;
},
{
glyphname = colon;
lastChange = "2018-11-21 15:42:10 +0000";
layers = (
{
layerId = "E2083702-67E7-471D-AE09-DB685EF5235E";
paths = (
{
closed = 1;
nodes = (
"317.5 215 OFFCURVE",
"340 238.16 OFFCURVE",
"340 265 CURVE SMOOTH",
"340 292.5 OFFCURVE",
"316.84 315 OFFCURVE",
"290 315 CURVE SMOOTH",
"263 315 OFFCURVE",
"240 292 OFFCURVE",
"240 265 CURVE SMOOTH",
"240 237.5 OFFCURVE",
"263.16 215 OFFCURVE",
"290 215 CURVE SMOOTH"
);
},
{
closed = 1;
nodes = (
"317.5 0 OFFCURVE",
"340 23.16 OFFCURVE",
"340 50 CURVE SMOOTH",
"340 77.5 OFFCURVE",
"316.84 100 OFFCURVE",
"290 100 CURVE SMOOTH",
"262.5 100 OFFCURVE",
"240 76.84 OFFCURVE",
"240 50 CURVE SMOOTH",
"240 22.5 OFFCURVE",
"263.16 0 OFFCURVE",
"290 0 CURVE SMOOTH"
);
}
);
width = 600;
},
{
associatedMasterId = "E2083702-67E7-471D-AE09-DB685EF5235E";
layerId = "E2C85DB1-573B-432A-B6BF-6D62B504A05F";
name = "Nov 21 18, 16:41";
paths = (
{
closed = 1;
nodes = (
"298 35 OFFCURVE",
"305 42 OFFCURVE",
"305 50 CURVE SMOOTH",
"305 58 OFFCURVE",
"298 65 OFFCURVE",
"290 65 CURVE SMOOTH",
"282 65 OFFCURVE",
"275 58 OFFCURVE",
"275 50 CURVE SMOOTH",
"275 42 OFFCURVE",
"282 35 OFFCURVE",
"290 35 CURVE SMOOTH"
);
},
{
closed = 1;
nodes = (
"298 250 OFFCURVE",
"305 257 OFFCURVE",
"305 265 CURVE SMOOTH",
"305 273 OFFCURVE",
"298 280 OFFCURVE",
"290 280 CURVE SMOOTH",
"282 280 OFFCURVE",
"275 273 OFFCURVE",
"275 265 CURVE SMOOTH",
"275 257 OFFCURVE",
"282 250 OFFCURVE",
"290 250 CURVE SMOOTH"
);
}
);
width = 600;
}
);
unicode = 003A;
},
{
glyphname = comma;
lastChange = "2018-11-21 15:43:25 +0000";
layers = (
{
layerId = "E2083702-67E7-471D-AE09-DB685EF5235E";
paths = (
{
closed = 1;
nodes = (
"222.933 -135 OFFCURVE",
"233.47 -129.029 OFFCURVE",
"239.788 -119.911 CURVE SMOOTH",
"286.839 -53.904 OFFCURVE",
"314.44 16.202 OFFCURVE",
"326.557 100.422 CURVE SMOOTH",
"326.848 102.239 OFFCURVE",
"327 104.102 OFFCURVE",
"327 106 CURVE SMOOTH",
"327 125.33 OFFCURVE",
"311.33 141 OFFCURVE",
"292 141 CURVE SMOOTH",
"274.189 141 OFFCURVE",
"259.486 127.696 OFFCURVE",
"257.285 110.483 CURVE SMOOTH",
"246.546 35.734 OFFCURVE",
"224.129 -21.32 OFFCURVE",
"182.717 -79.378 CURVE SMOOTH",
"178.493 -85.162 OFFCURVE",
"176 -92.29 OFFCURVE",
"176 -100 CURVE SMOOTH",
"176 -119.33 OFFCURVE",
"191.67 -135 OFFCURVE",
"211 -135 CURVE SMOOTH"
);
}
);
width = 600;
},
{
associatedMasterId = "E2083702-67E7-471D-AE09-DB685EF5235E";
layerId = "7940246F-84CD-490F-8C5B-7E5E818D4366";
name = "Nov 21 18, 16:43";
paths = (
{
closed = 0;
nodes = (
"292 106 LINE",
"282 36 OFFCURVE",
"261 -30 OFFCURVE",
"211 -100 CURVE"
);
}
);
width = 600;
}
);
unicode = 002C;
},
{
glyphname = ellipsis;
lastChange = "2018-11-21 15:35:09 +0000";
layers = (
{
layerId = "E2083702-67E7-471D-AE09-DB685EF5235E";
paths = (
{
closed = 1;
nodes = (
"353 0 OFFCURVE",
"375 23 OFFCURVE",
"375 50 CURVE SMOOTH",
"375 78 OFFCURVE",
"352 100 OFFCURVE",
"325 100 CURVE SMOOTH",
"298 100 OFFCURVE",
"275 77 OFFCURVE",
"275 50 CURVE SMOOTH",
"275 23 OFFCURVE",
"298 0 OFFCURVE",
"325 0 CURVE SMOOTH"
);
},
{
closed = 1;
nodes = (
"93 0 OFFCURVE",
"115 23 OFFCURVE",
"115 50 CURVE SMOOTH",
"115 78 OFFCURVE",
"92 100 OFFCURVE",
"65 100 CURVE SMOOTH",
"38 100 OFFCURVE",
"15 77 OFFCURVE",
"15 50 CURVE SMOOTH",
"15 23 OFFCURVE",
"38 0 OFFCURVE",
"65 0 CURVE SMOOTH"
);
},
{
closed = 1;
nodes = (
"223 0 OFFCURVE",
"245 23 OFFCURVE",
"245 50 CURVE SMOOTH",
"245 78 OFFCURVE",
"222 100 OFFCURVE",
"195 100 CURVE SMOOTH",
"168 100 OFFCURVE",
"145 77 OFFCURVE",
"145 50 CURVE SMOOTH",
"145 23 OFFCURVE",
"168 0 OFFCURVE",
"195 0 CURVE SMOOTH"
);
}
);
width = 390;
},
{
associatedMasterId = "E2083702-67E7-471D-AE09-DB685EF5235E";
layerId = "19D51583-74F7-425D-81F1-2576AFED6535";
name = "Nov 21 18, 16:34";
paths = (
{
closed = 1;
nodes = (
"298 35 OFFCURVE",
"305 42 OFFCURVE",
"305 50 CURVE SMOOTH",
"305 58 OFFCURVE",
"298 65 OFFCURVE",
"290 65 CURVE SMOOTH",
"282 65 OFFCURVE",
"275 58 OFFCURVE",
"275 50 CURVE SMOOTH",
"275 42 OFFCURVE",
"282 35 OFFCURVE",
"290 35 CURVE SMOOTH"
);
},
{
closed = 1;
nodes = (
"428 35 OFFCURVE",
"435 42 OFFCURVE",
"435 50 CURVE SMOOTH",
"435 58 OFFCURVE",
"428 65 OFFCURVE",
"420 65 CURVE SMOOTH",
"412 65 OFFCURVE",
"405 58 OFFCURVE",
"405 50 CURVE SMOOTH",
"405 42 OFFCURVE",
"412 35 OFFCURVE",
"420 35 CURVE SMOOTH"
);
},
{
closed = 1;
nodes = (
"558 35 OFFCURVE",
"565 42 OFFCURVE",
"565 50 CURVE SMOOTH",
"565 58 OFFCURVE",
"558 65 OFFCURVE",
"550 65 CURVE SMOOTH",
"542 65 OFFCURVE",
"535 58 OFFCURVE",
"535 50 CURVE SMOOTH",
"535 42 OFFCURVE",
"542 35 OFFCURVE",
"550 35 CURVE SMOOTH"
);
}
);
width = 600;
}
);
unicode = 2026;
},
{
glyphname = exclam;
lastChange = "2018-11-21 15:25:35 +0000";
layers = (
{
layerId = "E2083702-67E7-471D-AE09-DB685EF5235E";
paths = (
{
closed = 1;
nodes = (
"309.33 215 OFFCURVE",
"325 230.67 OFFCURVE",
"325 250 CURVE SMOOTH",
"325 665 LINE SMOOTH",
"325 684.33 OFFCURVE",
"309.33 700 OFFCURVE",
"290 700 CURVE SMOOTH",
"270.67 700 OFFCURVE",
"255 684.33 OFFCURVE",
"255 665 CURVE SMOOTH",
"255 250 LINE SMOOTH",
"255 230.67 OFFCURVE",
"270.67 215 OFFCURVE",
"290 215 CURVE SMOOTH"
);
},
{
closed = 1;
nodes = (
"317.5 0 OFFCURVE",
"340 23.16 OFFCURVE",
"340 50 CURVE SMOOTH",
"340 77.5 OFFCURVE",
"316.84 100 OFFCURVE",
"290 100 CURVE SMOOTH",
"263 100 OFFCURVE",
"240 77 OFFCURVE",
"240 50 CURVE SMOOTH",
"240 22.5 OFFCURVE",
"263.16 0 OFFCURVE",
"290 0 CURVE SMOOTH"
);
}
);
width = 600;
},
{
associatedMasterId = "E2083702-67E7-471D-AE09-DB685EF5235E";
layerId = "D0D4EE07-6081-4A68-BF3C-40E28AC204DE";
name = "Nov 21 18, 16:25";
paths = (
{
closed = 0;
nodes = (
"290 665 LINE",
"290 250 LINE"
);
},
{
closed = 1;
nodes = (
"298 35 OFFCURVE",
"305 42 OFFCURVE",
"305 50 CURVE SMOOTH",
"305 58 OFFCURVE",
"298 65 OFFCURVE",
"290 65 CURVE SMOOTH",
"282 65 OFFCURVE",
"275 58 OFFCURVE",
"275 50 CURVE SMOOTH",
"275 42 OFFCURVE",
"282 35 OFFCURVE",
"290 35 CURVE SMOOTH"
);
}
);
width = 600;
}
);
unicode = 0021;
},
{
glyphname = exclamdown;
lastChange = "2018-11-21 16:50:29 +0000";
layers = (
{
layerId = "E2083702-67E7-471D-AE09-DB685EF5235E";
paths = (
{
closed = 1;
nodes = (
"309.33 -200 OFFCURVE",
"325 -184.33 OFFCURVE",
"325 -165 CURVE SMOOTH",
"325 250 LINE SMOOTH",
"325 269.33 OFFCURVE",
"309.33 285 OFFCURVE",
"290 285 CURVE SMOOTH",
"270.67 285 OFFCURVE",
"255 269.33 OFFCURVE",
"255 250 CURVE SMOOTH",
"255 -165 LINE SMOOTH",
"255 -184.33 OFFCURVE",
"270.67 -200 OFFCURVE",
"290 -200 CURVE SMOOTH"
);
},
{
closed = 1;
nodes = (
"317.5 400 OFFCURVE",
"340 423.16 OFFCURVE",
"340 450 CURVE SMOOTH",
"340 477.5 OFFCURVE",
"316.84 500 OFFCURVE",
"290 500 CURVE SMOOTH",
"262.5 500 OFFCURVE",
"240 476.84 OFFCURVE",
"240 450 CURVE SMOOTH",
"240 422.5 OFFCURVE",
"263.16 400 OFFCURVE",
"290 400 CURVE SMOOTH"
);
}
);
width = 600;
},
{
associatedMasterId = "E2083702-67E7-471D-AE09-DB685EF5235E";
layerId = "70768987-C927-4170-943D-377A4F99A9D0";
name = "Nov 21 18, 17:50";
paths = (
{
closed = 0;
nodes = (
"290 250 LINE",
"290 -165 LINE"
);
},
{
closed = 1;
nodes = (
"282 465 OFFCURVE",
"275 458 OFFCURVE",
"275 450 CURVE SMOOTH",
"275 442 OFFCURVE",
"282 435 OFFCURVE",
"290 435 CURVE SMOOTH",
"298 435 OFFCURVE",
"305 442 OFFCURVE",
"305 450 CURVE SMOOTH",
"305 458 OFFCURVE",
"298 465 OFFCURVE",
"290 465 CURVE SMOOTH"
);
}
);
width = 600;
}
);
unicode = 00A1;
},
{
glyphname = period;
lastChange = "2018-11-21 15:33:57 +0000";
layers = (
{
layerId = "E2083702-67E7-471D-AE09-DB685EF5235E";
paths = (
{
closed = 1;
nodes = (
"317.5 0 OFFCURVE",
"340 23.16 OFFCURVE",
"340 50 CURVE SMOOTH",
"340 77.5 OFFCURVE",
"316.84 100 OFFCURVE",
"290 100 CURVE SMOOTH",
"262.5 100 OFFCURVE",
"240 76.84 OFFCURVE",
"240 50 CURVE SMOOTH",
"240 22.5 OFFCURVE",
"263.16 0 OFFCURVE",
"290 0 CURVE SMOOTH"
);
}
);
width = 600;
},
{
associatedMasterId = "E2083702-67E7-471D-AE09-DB685EF5235E";
layerId = "16AE2D0E-DD18-42DD-8CF5-EBC395FC1B0D";
name = "Nov 21 18, 16:33";
paths = (
{
closed = 1;
nodes = (
"298 35 OFFCURVE",
"305 42 OFFCURVE",
"305 50 CURVE SMOOTH",
"305 58 OFFCURVE",
"298 65 OFFCURVE",
"290 65 CURVE SMOOTH",
"282 65 OFFCURVE",
"275 58 OFFCURVE",
"275 50 CURVE SMOOTH",
"275 42 OFFCURVE",
"282 35 OFFCURVE",
"290 35 CURVE SMOOTH"
);
}
);
width = 600;
}
);
unicode = 002E;
},
{
glyphname = question;
lastChange = "2018-11-21 15:33:34 +0000";
layers = (
{
layerId = "E2083702-67E7-471D-AE09-DB685EF5235E";
paths = (
{
closed = 1;
nodes = (
"309.33 215 OFFCURVE",
"325 230.67 OFFCURVE",
"325 250 CURVE SMOOTH",
"325 352.893 LINE",
"381.63 364.447 OFFCURVE",
"493 402.603 OFFCURVE",
"493 524 CURVE SMOOTH",
"493 628.003 OFFCURVE",
"407.565 700 OFFCURVE",
"290 700 CURVE SMOOTH",
"222.109 700 OFFCURVE",
"162.289 682.516 OFFCURVE",
"126.383 651.711 CURVE SMOOTH",
"118.808 645.291 OFFCURVE",
"114 635.707 OFFCURVE",
"114 625 CURVE SMOOTH",
"114 605.67 OFFCURVE",
"129.67 590 OFFCURVE",
"149 590 CURVE SMOOTH",
"157.769 590 OFFCURVE",
"165.785 593.225 OFFCURVE",
"171.926 598.554 CURVE SMOOTH",
"195.348 618.693 OFFCURVE",
"236.885 630 OFFCURVE",
"290 630 CURVE SMOOTH",
"369.062 630 OFFCURVE",
"423 587.931 OFFCURVE",
"423 524 CURVE SMOOTH",
"423 453.057 OFFCURVE",
"350.71 429.151 OFFCURVE",
"311.636 421.409 CURVE SMOOTH",
"294.34 417.984 OFFCURVE",
"282.658 412.924 OFFCURVE",
"271.125 400.446 CURVE SMOOTH",
"259.628 388.008 OFFCURVE",
"255 375.832 OFFCURVE",
"255 358.029 CURVE SMOOTH",
"255 250 LINE SMOOTH",
"255 230.67 OFFCURVE",
"270.67 215 OFFCURVE",
"290 215 CURVE SMOOTH"
);
},
{
closed = 1;
nodes = (
"317.5 0 OFFCURVE",
"340 23.16 OFFCURVE",
"340 50 CURVE SMOOTH",
"340 77.5 OFFCURVE",
"316.84 100 OFFCURVE",
"290 100 CURVE SMOOTH",
"262.5 100 OFFCURVE",
"240 76.84 OFFCURVE",
"240 50 CURVE SMOOTH",
"240 22.5 OFFCURVE",
"263.16 0 OFFCURVE",
"290 0 CURVE SMOOTH"
);
},
{
closed = 1;
nodes = (
"255 328 LINE",
"284 328 LINE",
"333 386 LINE",
"312 421 LINE",
"290 418 LINE",
"271 418 OFFCURVE",
"255 402 OFFCURVE",
"255 383 CURVE"
);
}
);
width = 600;
},
{
associatedMasterId = "E2083702-67E7-471D-AE09-DB685EF5235E";
layerId = "13F45B02-9F11-4A45-9586-FA79CCABE7BB";
name = "Nov 21 18, 16:22";
paths = (
{
closed = 0;
nodes = (
"149 625 LINE",
"178 650 OFFCURVE",
"228 665 OFFCURVE",
"290 665 CURVE SMOOTH",
"352 665 OFFCURVE",
"458 634 OFFCURVE",
"458 524 CURVE SMOOTH",
"458 394 OFFCURVE",
"290 383 OFFCURVE",
"290 383 CURVE SMOOTH",
"290 250 LINE"
);
},
{
closed = 1;
nodes = (
"298 35 OFFCURVE",
"305 42 OFFCURVE",
"305 50 CURVE SMOOTH",
"305 58 OFFCURVE",
"298 65 OFFCURVE",
"290 65 CURVE SMOOTH",
"282 65 OFFCURVE",
"275 58 OFFCURVE",
"275 50 CURVE SMOOTH",
"275 42 OFFCURVE",
"282 35 OFFCURVE",
"290 35 CURVE SMOOTH"
);
}
);
visible = 1;
width = 600;
}
);
unicode = 003F;
},
{
glyphname = questiondown;
lastChange = "2018-11-21 16:51:11 +0000";
layers = (
{
layerId = "E2083702-67E7-471D-AE09-DB685EF5235E";
paths = (
{
closed = 1;
nodes = (
"271 320 OFFCURVE",
"255 304 OFFCURVE",
"255 285 CURVE SMOOTH",
"255 177 LINE SMOOTH",
"255 159 OFFCURVE",
"260 147 OFFCURVE",
"271 135 CURVE SMOOTH",
"283 122 OFFCURVE",
"294 117 OFFCURVE",
"312 114 CURVE SMOOTH",
"351 107 OFFCURVE",
"423 82 OFFCURVE",
"423 11 CURVE SMOOTH",
"423 -53 OFFCURVE",
"369 -95 OFFCURVE",
"290 -95 CURVE SMOOTH",
"237 -95 OFFCURVE",
"194 -86 OFFCURVE",
"172 -64 CURVE SMOOTH",
"166 -58 OFFCURVE",
"158 -55 OFFCURVE",
"149 -55 CURVE SMOOTH",
"130 -55 OFFCURVE",
"114 -71 OFFCURVE",
"114 -90 CURVE SMOOTH",
"114 -101 OFFCURVE",
"119 -110 OFFCURVE",
"126 -117 CURVE SMOOTH",
"160 -151 OFFCURVE",
"222 -165 OFFCURVE",
"290 -165 CURVE SMOOTH",
"408 -165 OFFCURVE",
"493 -93 OFFCURVE",
"493 11 CURVE SMOOTH",
"493 132 OFFCURVE",
"382 171 OFFCURVE",
"325 182 CURVE",
"325 285 LINE SMOOTH",
"325 304 OFFCURVE",
"309 320 OFFCURVE",
"290 320 CURVE SMOOTH"
);
},
{
closed = 1;
nodes = (
"263 535 OFFCURVE",
"240 513 OFFCURVE",
"240 485 CURVE SMOOTH",
"240 458 OFFCURVE",
"263 435 OFFCURVE",
"290 435 CURVE SMOOTH",
"317 435 OFFCURVE",
"340 458 OFFCURVE",
"340 485 CURVE SMOOTH",
"340 512 OFFCURVE",
"318 535 OFFCURVE",
"290 535 CURVE SMOOTH"
);
},
{
closed = 1;
nodes = (
"255 133 OFFCURVE",
"271 117 OFFCURVE",
"290 117 CURVE",
"312 114 LINE",
"333 149 LINE",
"284 207 LINE",
"255 207 LINE",
"255 152 LINE"
);
}
);
width = 600;
},
{
associatedMasterId = "E2083702-67E7-471D-AE09-DB685EF5235E";
layerId = "E337B67A-C5E7-4020-A8B8-1A55099F20DD";
name = "Nov 21 18, 17:50";
paths = (
{
closed = 0;
nodes = (
"290 250 LINE",
"290 117 LINE SMOOTH",
"290 117 OFFCURVE",
"458 106 OFFCURVE",
"458 -24 CURVE SMOOTH",
"458 -134 OFFCURVE",
"352 -165 OFFCURVE",
"290 -165 CURVE SMOOTH",
"228 -165 OFFCURVE",
"178 -150 OFFCURVE",
"149 -125 CURVE"
);
},
{
closed = 1;
nodes = (
"282 465 OFFCURVE",
"275 458 OFFCURVE",
"275 450 CURVE SMOOTH",
"275 442 OFFCURVE",
"282 435 OFFCURVE",
"290 435 CURVE SMOOTH",
"298 435 OFFCURVE",
"305 442 OFFCURVE",
"305 450 CURVE SMOOTH",
"305 458 OFFCURVE",
"298 465 OFFCURVE",
"290 465 CURVE SMOOTH"
);
}
);
width = 600;
}
);
unicode = 00BF;
},
{
glyphname = quotesingle;
lastChange = "2018-11-21 16:52:14 +0000";
layers = (
{
layerId = "E2083702-67E7-471D-AE09-DB685EF5235E";
paths = (
{
closed = 1;
nodes = (
"62 424 OFFCURVE",
"72 430 OFFCURVE",
"79 439 CURVE SMOOTH",
"126 505 OFFCURVE",
"153 575 OFFCURVE",
"166 659 CURVE SMOOTH",
"166 661 OFFCURVE",
"166 663 OFFCURVE",
"166 665 CURVE SMOOTH",
"166 684 OFFCURVE",
"150 700 OFFCURVE",
"131 700 CURVE SMOOTH",
"113 700 OFFCURVE",
"98 687 OFFCURVE",
"96 669 CURVE SMOOTH",
"86 595 OFFCURVE",
"63 538 OFFCURVE",
"22 480 CURVE SMOOTH",
"17 474 OFFCURVE",
"15 467 OFFCURVE",
"15 459 CURVE SMOOTH",
"15 440 OFFCURVE",
"31 424 OFFCURVE",
"50 424 CURVE SMOOTH"
);
}
);
width = 181;
},
{
associatedMasterId = "E2083702-67E7-471D-AE09-DB685EF5235E";
layerId = "F3AD1135-352C-4944-961B-65FBAB147D4A";
name = "Nov 21 18, 17:51";
paths = (
{
closed = 0;
nodes = (
"292 665 LINE",
"282 595 OFFCURVE",
"261 529 OFFCURVE",
"211 459 CURVE"
);
}
);
width = 600;
}
);
unicode = 0027;
},
{
glyphname = semicolon;
lastChange = "2018-11-21 15:43:03 +0000";
layers = (
{
layerId = "E2083702-67E7-471D-AE09-DB685EF5235E";
paths = (
{
closed = 1;
nodes = (
"222.933 -135 OFFCURVE",
"233.47 -129.029 OFFCURVE",
"239.788 -119.911 CURVE SMOOTH",
"286.839 -53.904 OFFCURVE",
"314.44 16.202 OFFCURVE",
"326.557 100.422 CURVE SMOOTH",
"326.848 102.239 OFFCURVE",
"327 104.102 OFFCURVE",
"327 106 CURVE SMOOTH",
"327 125.33 OFFCURVE",
"311.33 141 OFFCURVE",
"292 141 CURVE SMOOTH",
"274.189 141 OFFCURVE",
"259.486 127.696 OFFCURVE",
"257.285 110.483 CURVE SMOOTH",
"246.546 35.734 OFFCURVE",
"224.129 -21.32 OFFCURVE",
"182.717 -79.378 CURVE SMOOTH",
"178.493 -85.162 OFFCURVE",
"176 -92.29 OFFCURVE",
"176 -100 CURVE SMOOTH",
"176 -119.33 OFFCURVE",
"191.67 -135 OFFCURVE",
"211 -135 CURVE SMOOTH"
);
},
{
closed = 1;
nodes = (
"317.5 215 OFFCURVE",
"340 238.16 OFFCURVE",
"340 265 CURVE SMOOTH",
"340 292.5 OFFCURVE",
"316.84 315 OFFCURVE",
"290 315 CURVE SMOOTH",
"262.5 315 OFFCURVE",
"240 291.84 OFFCURVE",
"240 265 CURVE SMOOTH",
"240 237.5 OFFCURVE",
"263.16 215 OFFCURVE",
"290 215 CURVE SMOOTH"
);
}
);
width = 600;
},
{
associatedMasterId = "E2083702-67E7-471D-AE09-DB685EF5235E";
layerId = "B327E234-2AC6-4E1B-A348-1F6C78E85D47";
name = "Nov 21 18, 16:40";
paths = (
{
closed = 1;
nodes = (
"298 250 OFFCURVE",
"305 257 OFFCURVE",
"305 265 CURVE SMOOTH",
"305 273 OFFCURVE",
"298 280 OFFCURVE",
"290 280 CURVE SMOOTH",
"282 280 OFFCURVE",
"275 273 OFFCURVE",
"275 265 CURVE SMOOTH",
"275 257 OFFCURVE",
"282 250 OFFCURVE",
"290 250 CURVE SMOOTH"
);
},
{
closed = 0;
nodes = (
"292 106 LINE",
"282 36 OFFCURVE",
"261 -30 OFFCURVE",
"211 -100 CURVE"
);
}
);
width = 600;
}
);
unicode = 003B;
},
{
glyphname = braceleft;
lastChange = "2018-11-21 15:28:46 +0000";
layers = (
{
layerId = "E2083702-67E7-471D-AE09-DB685EF5235E";
paths = (
{
closed = 1;
nodes = (
"267.636 215 OFFCURVE",
"317 314.584 OFFCURVE",
"317 500 CURVE SMOOTH",
"317 583.946 OFFCURVE",
"351.841 630 OFFCURVE",
"412 630 CURVE SMOOTH",
"431.33 630 OFFCURVE",
"447 645.67 OFFCURVE",
"447 665 CURVE SMOOTH",
"447 684.33 OFFCURVE",
"431.33 700 OFFCURVE",
"412 700 CURVE SMOOTH",
"311.406 700 OFFCURVE",
"247 621.889 OFFCURVE",
"247 500 CURVE SMOOTH",
"247 357.587 OFFCURVE",
"218.407 285 OFFCURVE",
"170 285 CURVE SMOOTH",
"150.67 285 OFFCURVE",
"135 269.33 OFFCURVE",
"135 250 CURVE SMOOTH",
"135 230.67 OFFCURVE",
"150.67 215 OFFCURVE",
"170 215 CURVE SMOOTH"
);
},
{
closed = 1;
nodes = (
"151 285 OFFCURVE",
"135 269 OFFCURVE",
"135 250 CURVE SMOOTH",
"135 231 OFFCURVE",
"151 215 OFFCURVE",
"170 215 CURVE SMOOTH",
"218 215 OFFCURVE",
"247 142 OFFCURVE",
"247 0 CURVE SMOOTH",
"247 -122 OFFCURVE",
"311 -200 OFFCURVE",
"412 -200 CURVE SMOOTH",
"431 -200 OFFCURVE",
"447 -184 OFFCURVE",
"447 -165 CURVE SMOOTH",
"447 -146 OFFCURVE",
"431 -130 OFFCURVE",
"412 -130 CURVE SMOOTH",
"352 -130 OFFCURVE",
"317 -84 OFFCURVE",
"317 0 CURVE SMOOTH",
"317 185 OFFCURVE",
"268 285 OFFCURVE",
"170 285 CURVE SMOOTH"
);
}
);
width = 600;
},
{
associatedMasterId = "E2083702-67E7-471D-AE09-DB685EF5235E";
layerId = "67E46CF0-D907-49FF-A4DD-E403AE22172C";
name = "Nov 21 18, 16:28";
paths = (
{
closed = 0;
nodes = (
"412 665 LINE",
"361 665 OFFCURVE",
"282 635 OFFCURVE",
"282 500 CURVE SMOOTH",
"282 355 OFFCURVE",
"252 250 OFFCURVE",
"170 250 CURVE",
"252 250 OFFCURVE",
"282 145 OFFCURVE",
"282 0 CURVE SMOOTH",
"282 -135 OFFCURVE",
"361 -165 OFFCURVE",
"412 -165 CURVE"
);
}
);
width = 600;
}
);
unicode = 007B;
},
{
glyphname = bracketleft;
lastChange = "2018-11-21 15:30:46 +0000";
layers = (
{
layerId = "E2083702-67E7-471D-AE09-DB685EF5235E";
paths = (
{
closed = 1;
nodes = (
"205 -165 LINE",
"205 -165 LINE SMOOTH",
"205 -184 OFFCURVE",
"221 -200 OFFCURVE",
"240 -200 CURVE SMOOTH",
"380 -200 LINE SMOOTH",
"399.33 -200 OFFCURVE",
"415 -184.33 OFFCURVE",
"415 -165 CURVE SMOOTH",
"415 -145.67 OFFCURVE",
"399.33 -130 OFFCURVE",
"380 -130 CURVE SMOOTH",
"275 -130 LINE",
"275 630 LINE",
"380 630 LINE SMOOTH",
"399.33 630 OFFCURVE",
"415 645.67 OFFCURVE",
"415 665 CURVE SMOOTH",
"415 684.33 OFFCURVE",
"399.33 700 OFFCURVE",
"380 700 CURVE SMOOTH",
"240 700 LINE",
"240 700 LINE SMOOTH",
"221 700 OFFCURVE",
"205 684 OFFCURVE",
"205 665 CURVE SMOOTH"
);
}
);
width = 600;
},
{
associatedMasterId = "E2083702-67E7-471D-AE09-DB685EF5235E";
layerId = "BC3468FD-8BF8-4904-A4A8-927910CDD72A";
name = "Nov 21 18, 16:29";
paths = (
{
closed = 0;
nodes = (
"380 -165 LINE",
"240 -165 LINE",
"240 665 LINE",
"380 665 LINE"
);
}
);
visible = 1;
width = 600;
}
);
unicode = 005B;
},
{
glyphname = parenleft;
lastChange = "2018-11-21 15:32:20 +0000";
layers = (
{
layerId = "E2083702-67E7-471D-AE09-DB685EF5235E";
paths = (
{
closed = 1;
nodes = (
"399.33 -200 OFFCURVE",
"415 -184.33 OFFCURVE",
"415 -165 CURVE SMOOTH",
"415 -155.028 OFFCURVE",
"410.83 -146.03 OFFCURVE",
"404.138 -139.655 CURVE SMOOTH",
"309.565 -49.585 OFFCURVE",
"261 82.153 OFFCURVE",
"261 250 CURVE SMOOTH",
"261 417.847 OFFCURVE",
"309.565 549.585 OFFCURVE",
"404.138 639.655 CURVE SMOOTH",
"410.83 646.03 OFFCURVE",
"415 655.028 OFFCURVE",
"415 665 CURVE SMOOTH",
"415 684.33 OFFCURVE",
"399.33 700 OFFCURVE",
"380 700 CURVE SMOOTH",
"370.642 700 OFFCURVE",
"362.142 696.327 OFFCURVE",
"355.862 690.345 CURVE SMOOTH",
"247.655 587.291 OFFCURVE",
"191 435.476 OFFCURVE",
"191 250 CURVE SMOOTH",
"191 64.524 OFFCURVE",
"247.655 -87.291 OFFCURVE",
"355.862 -190.345 CURVE SMOOTH",
"362.142 -196.327 OFFCURVE",
"370.642 -200 OFFCURVE",
"380 -200 CURVE SMOOTH"
);
}
);
width = 600;
},
{
associatedMasterId = "E2083702-67E7-471D-AE09-DB685EF5235E";
layerId = "C7BC676A-645C-4AD2-9EC1-0ABEAB3A4881";
name = "Nov 21 18, 16:32";
paths = (
{
closed = 0;
nodes = (
"380 665 LINE",
"275 565 OFFCURVE",
"226 420 OFFCURVE",
"226 250 CURVE SMOOTH",
"226 80 OFFCURVE",
"275 -65 OFFCURVE",
"380 -165 CURVE"
);
}
);
width = 600;
}
);
unicode = 0028;
},
{
glyphname = guillemetleft;
lastChange = "2018-11-21 15:37:37 +0000";
layers = (
{
layerId = "E2083702-67E7-471D-AE09-DB685EF5235E";
paths = (
{
closed = 1;
nodes = (
"532 440 LINE SMOOTH",
"539 447 OFFCURVE",
"543 456 OFFCURVE",
"543 466 CURVE SMOOTH",
"543 485 OFFCURVE",
"527 501 OFFCURVE",
"508 501 CURVE SMOOTH",
"499 501 OFFCURVE",
"490 498 OFFCURVE",
"484 492 CURVE SMOOTH",
"269 293 LINE SMOOTH",
"256 281 OFFCURVE",
"250 268 OFFCURVE",
"250 250 CURVE",
"250 250 LINE",
"250 232 OFFCURVE",
"256 219 OFFCURVE",
"269 207 CURVE SMOOTH",
"484 8 LINE SMOOTH",
"490 3 OFFCURVE",
"499 -1 OFFCURVE",
"508 -1 CURVE SMOOTH",
"527 -1 OFFCURVE",
"543 15 OFFCURVE",
"543 34 CURVE SMOOTH",
"543 44 OFFCURVE",
"539 53 OFFCURVE",
"532 60 CURVE SMOOTH",
"326 250 LINE"
);
},
{
closed = 1;
nodes = (
"294 440 LINE SMOOTH",
"301 447 OFFCURVE",
"305 456 OFFCURVE",
"305 466 CURVE SMOOTH",
"305 485 OFFCURVE",
"289 501 OFFCURVE",
"270 501 CURVE SMOOTH",
"261 501 OFFCURVE",
"252 498 OFFCURVE",
"246 492 CURVE SMOOTH",
"31 293 LINE SMOOTH",
"18 281 OFFCURVE",
"12 268 OFFCURVE",
"12 250 CURVE",
"12 250 LINE",
"12 232 OFFCURVE",
"18 219 OFFCURVE",
"31 207 CURVE SMOOTH",
"246 8 LINE SMOOTH",
"252 3 OFFCURVE",
"261 -1 OFFCURVE",
"270 -1 CURVE SMOOTH",
"289 -1 OFFCURVE",
"305 15 OFFCURVE",
"305 34 CURVE SMOOTH",
"305 44 OFFCURVE",
"301 53 OFFCURVE",
"294 60 CURVE SMOOTH",
"88 250 LINE"
);
}
);
width = 600;
},
{
associatedMasterId = "E2083702-67E7-471D-AE09-DB685EF5235E";
layerId = "DA373B9C-79AC-48AA-98BC-6A2FD4640C1F";
name = "Nov 21 18, 16:36";
paths = (
{
closed = 0;
nodes = (
"270 34 LINE",
"36 250 LINE",
"270 465 LINE",
"36 250 LINE"
);
},
{
closed = 0;
nodes = (
"508 34 LINE",
"274 250 LINE",
"508 465 LINE",
"274 250 LINE"
);
}
);
width = 600;
}
);
unicode = 00AB;
},
